<svg xmlns="http://www.w3.org/2000/svg" xmlns:xlink="http://www.w3.org/1999/xlink" width="1920" zoomAndPan="magnify" viewBox="0 0 1440 809.999993" height="1080" preserveAspectRatio="xMidYMid meet" version="1.0"><defs><g/><clipPath id="c57b9ceee6"><path d="M 512.496094 47.792969 L 928.050781 47.792969 L 928.050781 761.824219 L 512.496094 761.824219 Z M 512.496094 47.792969 " clip-rule="nonzero"/></clipPath><clipPath id="18c427d9d2"><path d="M 512.496094 47.792969 L 928.050781 47.792969 L 928.050781 761.820312 L 512.496094 761.820312 Z M 512.496094 47.792969 " clip-rule="nonzero"/></clipPath><clipPath id="f63690d2da"><path d="M 551.84375 174.476562 L 666.335938 174.476562 L 666.335938 750.304688 L 551.84375 750.304688 Z M 551.84375 174.476562 " clip-rule="nonzero"/></clipPath><clipPath id="dc0ea98d8d"><path d="M 551.847656 174.484375 L 666.335938 174.484375 L 666.335938 750.296875 L 551.847656 750.296875 Z M 551.847656 174.484375 " clip-rule="nonzero"/></clipPath><clipPath id="d787a4e350"><path d="M 580.46875 190.617188 L 637.714844 190.617188 L 637.714844 236.683594 L 580.46875 236.683594 Z M 580.46875 190.617188 " clip-rule="nonzero"/></clipPath><clipPath id="6e5775279c"><path d="M 580.46875 524.90625 L 637.714844 524.90625 L 637.714844 570.972656 L 580.46875 570.972656 Z M 580.46875 524.90625 " clip-rule="nonzero"/></clipPath><clipPath id="9a86bce733"><path d="M 580.46875 469.242188 L 637.714844 469.242188 L 637.714844 515.308594 L 580.46875 515.308594 Z M 580.46875 469.242188 " clip-rule="nonzero"/></clipPath><clipPath id="62a0226505"><path d="M 580.46875 413.578125 L 637.714844 413.578125 L 637.714844 459.644531 L 580.46875 459.644531 Z M 580.46875 413.578125 " clip-rule="nonzero"/></clipPath><clipPath id="7b1102d754"><path d="M 580.46875 357.917969 L 637.714844 357.917969 L 637.714844 403.984375 L 580.46875 403.984375 Z M 580.46875 357.917969 " clip-rule="nonzero"/></clipPath><clipPath id="bbca4f730e"><path d="M 580.46875 302.253906 L 637.714844 302.253906 L 637.714844 348.320312 L 580.46875 348.320312 Z M 580.46875 302.253906 " clip-rule="nonzero"/></clipPath><clipPath id="a5c1190bac"><path d="M 580.46875 246.4375 L 637.714844 246.4375 L 637.714844 292.503906 L 580.46875 292.503906 Z M 580.46875 246.4375 " clip-rule="nonzero"/></clipPath><clipPath id="3701e91af9"><path d="M 580.46875 580.570312 L 637.714844 580.570312 L 637.714844 626.636719 L 580.46875 626.636719 Z M 580.46875 580.570312 " clip-rule="nonzero"/></clipPath><clipPath id="dca0a37556"><path d="M 580.46875 636.234375 L 637.714844 636.234375 L 637.714844 682.300781 L 580.46875 682.300781 Z M 580.46875 636.234375 " clip-rule="nonzero"/></clipPath><clipPath id="43fd1c14f7"><path d="M 580.46875 691.898438 L 637.714844 691.898438 L 637.714844 737.964844 L 580.46875 737.964844 Z M 580.46875 691.898438 " clip-rule="nonzero"/></clipPath><clipPath id="b9ab89816a"><path d="M 536.007812 66.988281 L 904.539062 66.988281 L 904.539062 159.121094 L 536.007812 159.121094 Z M 536.007812 66.988281 " clip-rule="nonzero"/></clipPath><clipPath id="4c62b924ec"><path d="M 550.367188 90.019531 L 576.136719 90.019531 L 576.136719 136.085938 L 550.367188 136.085938 Z M 550.367188 90.019531 " clip-rule="nonzero"/></clipPath><clipPath id="b9680237fb"><path d="M 756.539062 90.019531 L 782.308594 90.019531 L 782.308594 136.085938 L 756.539062 136.085938 Z M 756.539062 90.019531 " clip-rule="nonzero"/></clipPath><clipPath id="c00093a907"><path d="M 722.175781 90.019531 L 747.949219 90.019531 L 747.949219 136.085938 L 722.175781 136.085938 Z M 722.175781 90.019531 " clip-rule="nonzero"/></clipPath><clipPath id="a61898a476"><path d="M 687.816406 90.019531 L 713.585938 90.019531 L 713.585938 136.085938 L 687.816406 136.085938 Z M 687.816406 90.019531 " clip-rule="nonzero"/></clipPath><clipPath id="e2829db2aa"><path d="M 653.453125 90.019531 L 679.222656 90.019531 L 679.222656 136.085938 L 653.453125 136.085938 Z M 653.453125 90.019531 " clip-rule="nonzero"/></clipPath><clipPath id="2e7062dd5c"><path d="M 619.089844 90.019531 L 644.863281 90.019531 L 644.863281 136.085938 L 619.089844 136.085938 Z M 619.089844 90.019531 " clip-rule="nonzero"/></clipPath><clipPath id="25f293eb2a"><path d="M 584.730469 90.019531 L 610.5 90.019531 L 610.5 136.085938 L 584.730469 136.085938 Z M 584.730469 90.019531 " clip-rule="nonzero"/></clipPath><clipPath id="232fd4cd46"><path d="M 790.898438 90.019531 L 816.671875 90.019531 L 816.671875 136.085938 L 790.898438 136.085938 Z M 790.898438 90.019531 " clip-rule="nonzero"/></clipPath><clipPath id="ff26cdf761"><path d="M 825.261719 90.019531 L 851.035156 90.019531 L 851.035156 136.085938 L 825.261719 136.085938 Z M 825.261719 90.019531 " clip-rule="nonzero"/></clipPath><clipPath id="bb2644ad9b"><path d="M 859.625 90.019531 L 885.394531 90.019531 L 885.394531 136.085938 L 859.625 136.085938 Z M 859.625 90.019531 " clip-rule="nonzero"/></clipPath><clipPath id="0b28ee8d71"><path d="M 780.898438 174.476562 L 895.394531 174.476562 L 895.394531 750.304688 L 780.898438 750.304688 Z M 780.898438 174.476562 " clip-rule="nonzero"/></clipPath><clipPath id="4336ff1576"><path d="M 780.902344 174.484375 L 895.394531 174.484375 L 895.394531 750.296875 L 780.902344 750.296875 Z M 780.902344 174.484375 " clip-rule="nonzero"/></clipPath><clipPath id="ef55dfb7e6"><path d="M 809.523438 190.617188 L 866.769531 190.617188 L 866.769531 236.683594 L 809.523438 236.683594 Z M 809.523438 190.617188 " clip-rule="nonzero"/></clipPath><clipPath id="131fd28289"><path d="M 809.523438 524.90625 L 866.769531 524.90625 L 866.769531 570.972656 L 809.523438 570.972656 Z M 809.523438 524.90625 " clip-rule="nonzero"/></clipPath><clipPath id="406b58b0b0"><path d="M 809.523438 469.242188 L 866.769531 469.242188 L 866.769531 515.308594 L 809.523438 515.308594 Z M 809.523438 469.242188 " clip-rule="nonzero"/></clipPath><clipPath id="ce36c37754"><path d="M 809.523438 413.578125 L 866.769531 413.578125 L 866.769531 459.644531 L 809.523438 459.644531 Z M 809.523438 413.578125 " clip-rule="nonzero"/></clipPath><clipPath id="04078c1097"><path d="M 809.523438 357.917969 L 866.769531 357.917969 L 866.769531 403.984375 L 809.523438 403.984375 Z M 809.523438 357.917969 " clip-rule="nonzero"/></clipPath><clipPath id="af1a7beba0"><path d="M 809.523438 302.253906 L 866.769531 302.253906 L 866.769531 348.320312 L 809.523438 348.320312 Z M 809.523438 302.253906 " clip-rule="nonzero"/></clipPath><clipPath id="f8f8736207"><path d="M 809.523438 246.4375 L 866.769531 246.4375 L 866.769531 292.503906 L 809.523438 292.503906 Z M 809.523438 246.4375 " clip-rule="nonzero"/></clipPath><clipPath id="7721929e10"><path d="M 809.523438 580.570312 L 866.769531 580.570312 L 866.769531 626.636719 L 809.523438 626.636719 Z M 809.523438 580.570312 " clip-rule="nonzero"/></clipPath><clipPath id="a7a056d809"><path d="M 809.523438 636.234375 L 866.769531 636.234375 L 866.769531 682.300781 L 809.523438 682.300781 Z M 809.523438 636.234375 " clip-rule="nonzero"/></clipPath><clipPath id="e875ccdbb2"><path d="M 809.523438 691.898438 L 866.769531 691.898438 L 866.769531 737.964844 L 809.523438 737.964844 Z M 809.523438 691.898438 " clip-rule="nonzero"/></clipPath></defs><g clip-path="url(#c57b9ceee6)"><path fill="#d9d9d9" d="M 928.050781 47.792969 L 928.050781 762.4375 L 512.496094 762.4375 L 512.496094 47.792969 Z M 928.050781 47.792969 " fill-opacity="1" fill-rule="nonzero"/></g><g clip-path="url(#18c427d9d2)"><path stroke-linecap="butt" transform="matrix(0, 0.479858, -0.479858, 0, 928.05272, 47.793862)" fill="none" stroke-linejoin="miter" d="M -0.00186231 0.00403929 L 1488.004064 0.00403929 L 1488.004064 865.999523 L -0.00186231 865.999523 Z M -0.00186231 0.00403929 " stroke="#0cbe46" stroke-width="8" stroke-opacity="1" stroke-miterlimit="4"/></g><g clip-path="url(#f63690d2da)"><path fill="#ffffff" d="M 666.335938 174.476562 L 666.335938 750.523438 L 551.84375 750.523438 L 551.84375 174.476562 Z M 666.335938 174.476562 " fill-opacity="1" fill-rule="nonzero"/></g><g clip-path="url(#dc0ea98d8d)"><path stroke-linecap="butt" transform="matrix(0, 0.479858, -0.479858, 0, 666.336765, 174.482781)" fill="none" stroke-linejoin="miter" d="M 0.00332219 0.00172384 L 1199.968247 0.00172384 L 1199.968247 238.597811 L 0.00332219 238.597811 Z M 0.00332219 0.00172384 " stroke="#0cbe46" stroke-width="8" stroke-opacity="1" stroke-miterlimit="4"/></g><g clip-path="url(#d787a4e350)"><path fill="#0cbe46" d="M 580.46875 190.617188 L 637.691406 190.617188 L 637.691406 236.683594 L 580.46875 236.683594 Z M 580.46875 190.617188 " fill-opacity="1" fill-rule="nonzero"/></g><g fill="#000000" fill-opacity="1"><g transform="translate(604.723057, 216.531072)"><g><path d="M 3.421875 0 L 2.8125 0 L 2.8125 -1.3125 L 0.25 -1.3125 L 0.25 -1.828125 L 2.671875 -5.484375 L 3.421875 -5.484375 L 3.421875 -1.828125 L 4.375 -1.828125 L 4.375 -1.3125 L 3.421875 -1.3125 Z M 1 -1.90625 L 1.046875 -1.828125 L 2.8125 -1.828125 L 2.8125 -4.578125 L 2.734375 -4.59375 Z M 1 -1.90625 "/></g></g><g transform="translate(609.367931, 216.531072)"><g><path d="M 0.390625 0 L 0.390625 -0.53125 L 1.890625 -0.53125 L 1.890625 -4.71875 L 1.796875 -4.75 C 1.554688 -4.625 1.34375 -4.53125 1.15625 -4.46875 C 0.976562 -4.40625 0.742188 -4.34375 0.453125 -4.28125 L 0.453125 -4.875 C 0.742188 -4.9375 1.023438 -5.015625 1.296875 -5.109375 C 1.578125 -5.210938 1.828125 -5.335938 2.046875 -5.484375 L 2.515625 -5.484375 L 2.515625 -0.53125 L 3.84375 -0.53125 L 3.84375 0 Z M 0.390625 0 "/></g></g></g><g clip-path="url(#6e5775279c)"><path fill="#0cbe46" d="M 580.46875 524.90625 L 637.691406 524.90625 L 637.691406 570.972656 L 580.46875 570.972656 Z M 580.46875 524.90625 " fill-opacity="1" fill-rule="nonzero"/></g><g fill="#000000" fill-opacity="1"><g transform="translate(604.873013, 550.819219)"><g><path d="M 3.421875 0 L 2.8125 0 L 2.8125 -1.3125 L 0.25 -1.3125 L 0.25 -1.828125 L 2.671875 -5.484375 L 3.421875 -5.484375 L 3.421875 -1.828125 L 4.375 -1.828125 L 4.375 -1.3125 L 3.421875 -1.3125 Z M 1 -1.90625 L 1.046875 -1.828125 L 2.8125 -1.828125 L 2.8125 -4.578125 L 2.734375 -4.59375 Z M 1 -1.90625 "/></g></g><g transform="translate(609.517886, 550.819219)"><g><path d="M 1.484375 0 L 0.859375 0 L 2.890625 -4.84375 L 2.875 -4.9375 L 0.203125 -4.9375 L 0.203125 -5.484375 L 3.546875 -5.484375 L 3.546875 -4.890625 Z M 1.484375 0 "/></g></g></g><g clip-path="url(#9a86bce733)"><path fill="#0cbe46" d="M 580.46875 469.242188 L 637.691406 469.242188 L 637.691406 515.308594 L 580.46875 515.308594 Z M 580.46875 469.242188 " fill-opacity="1" fill-rule="nonzero"/></g><g fill="#000000" fill-opacity="1"><g transform="translate(604.295684, 495.15571)"><g><path d="M 3.421875 0 L 2.8125 0 L 2.8125 -1.3125 L 0.25 -1.3125 L 0.25 -1.828125 L 2.671875 -5.484375 L 3.421875 -5.484375 L 3.421875 -1.828125 L 4.375 -1.828125 L 4.375 -1.3125 L 3.421875 -1.3125 Z M 1 -1.90625 L 1.046875 -1.828125 L 2.8125 -1.828125 L 2.8125 -4.578125 L 2.734375 -4.59375 Z M 1 -1.90625 "/></g></g><g transform="translate(608.940557, 495.15571)"><g><path d="M 2.609375 0.078125 C 2.222656 0.078125 1.875 -0.015625 1.5625 -0.203125 C 1.257812 -0.390625 1.015625 -0.691406 0.828125 -1.109375 C 0.648438 -1.523438 0.5625 -2.066406 0.5625 -2.734375 C 0.5625 -3.378906 0.648438 -3.910156 0.828125 -4.328125 C 1.015625 -4.753906 1.265625 -5.066406 1.578125 -5.265625 C 1.898438 -5.460938 2.265625 -5.5625 2.671875 -5.5625 C 3.378906 -5.5625 3.894531 -5.347656 4.21875 -4.921875 L 3.90625 -4.484375 L 3.8125 -4.484375 C 3.539062 -4.816406 3.160156 -4.984375 2.671875 -4.984375 C 2.203125 -4.984375 1.84375 -4.800781 1.59375 -4.4375 C 1.34375 -4.082031 1.21875 -3.507812 1.21875 -2.71875 L 1.296875 -2.703125 C 1.441406 -3.015625 1.632812 -3.242188 1.875 -3.390625 C 2.113281 -3.546875 2.410156 -3.625 2.765625 -3.625 C 3.109375 -3.625 3.40625 -3.550781 3.65625 -3.40625 C 3.914062 -3.257812 4.113281 -3.046875 4.25 -2.765625 C 4.382812 -2.492188 4.453125 -2.164062 4.453125 -1.78125 C 4.453125 -1.40625 4.375 -1.078125 4.21875 -0.796875 C 4.070312 -0.515625 3.859375 -0.296875 3.578125 -0.140625 C 3.304688 0.00390625 2.984375 0.078125 2.609375 0.078125 Z M 2.609375 -0.5 C 2.972656 -0.5 3.253906 -0.609375 3.453125 -0.828125 C 3.660156 -1.046875 3.765625 -1.363281 3.765625 -1.78125 C 3.765625 -2.195312 3.660156 -2.515625 3.453125 -2.734375 C 3.253906 -2.953125 2.972656 -3.0625 2.609375 -3.0625 C 2.367188 -3.0625 2.15625 -3.007812 1.96875 -2.90625 C 1.789062 -2.8125 1.648438 -2.664062 1.546875 -2.46875 C 1.453125 -2.28125 1.40625 -2.050781 1.40625 -1.78125 C 1.40625 -1.507812 1.453125 -1.28125 1.546875 -1.09375 C 1.648438 -0.90625 1.789062 -0.757812 1.96875 -0.65625 C 2.15625 -0.550781 2.367188 -0.5 2.609375 -0.5 Z M 2.609375 -0.5 "/></g></g></g><g clip-path="url(#62a0226505)"><path fill="#0cbe46" d="M 580.46875 413.578125 L 637.691406 413.578125 L 637.691406 459.644531 L 580.46875 459.644531 Z M 580.46875 413.578125 " fill-opacity="1" fill-rule="nonzero"/></g><g fill="#000000" fill-opacity="1"><g transform="translate(604.498124, 439.492176)"><g><path d="M 3.421875 0 L 2.8125 0 L 2.8125 -1.3125 L 0.25 -1.3125 L 0.25 -1.828125 L 2.671875 -5.484375 L 3.421875 -5.484375 L 3.421875 -1.828125 L 4.375 -1.828125 L 4.375 -1.3125 L 3.421875 -1.3125 Z M 1 -1.90625 L 1.046875 -1.828125 L 2.8125 -1.828125 L 2.8125 -4.578125 L 2.734375 -4.59375 Z M 1 -1.90625 "/></g></g><g transform="translate(609.142997, 439.492176)"><g><path d="M 2.25 0.078125 C 1.738281 0.078125 1.328125 -0.0351562 1.015625 -0.265625 C 0.710938 -0.492188 0.519531 -0.816406 0.4375 -1.234375 L 0.90625 -1.453125 L 1 -1.4375 C 1.0625 -1.21875 1.140625 -1.039062 1.234375 -0.90625 C 1.335938 -0.769531 1.472656 -0.664062 1.640625 -0.59375 C 1.804688 -0.53125 2.007812 -0.5 2.25 -0.5 C 2.625 -0.5 2.910156 -0.609375 3.109375 -0.828125 C 3.316406 -1.054688 3.421875 -1.378906 3.421875 -1.796875 C 3.421875 -2.222656 3.320312 -2.546875 3.125 -2.765625 C 2.925781 -2.992188 2.644531 -3.109375 2.28125 -3.109375 C 2.007812 -3.109375 1.789062 -3.050781 1.625 -2.9375 C 1.457031 -2.832031 1.304688 -2.664062 1.171875 -2.4375 L 0.65625 -2.484375 L 0.765625 -5.484375 L 3.828125 -5.484375 L 3.828125 -4.9375 L 1.328125 -4.9375 L 1.265625 -3.109375 L 1.34375 -3.09375 C 1.46875 -3.28125 1.625 -3.421875 1.8125 -3.515625 C 2 -3.609375 2.222656 -3.65625 2.484375 -3.65625 C 2.804688 -3.65625 3.085938 -3.582031 3.328125 -3.4375 C 3.578125 -3.289062 3.769531 -3.078125 3.90625 -2.796875 C 4.039062 -2.523438 4.109375 -2.191406 4.109375 -1.796875 C 4.109375 -1.410156 4.03125 -1.070312 3.875 -0.78125 C 3.71875 -0.5 3.5 -0.285156 3.21875 -0.140625 C 2.945312 0.00390625 2.625 0.078125 2.25 0.078125 Z M 2.25 0.078125 "/></g></g></g><g clip-path="url(#7b1102d754)"><path fill="#0cbe46" d="M 580.46875 357.917969 L 637.691406 357.917969 L 637.691406 403.984375 L 580.46875 403.984375 Z M 580.46875 357.917969 " fill-opacity="1" fill-rule="nonzero"/></g><g fill="#000000" fill-opacity="1"><g transform="translate(604.445639, 383.828672)"><g><path d="M 3.421875 0 L 2.8125 0 L 2.8125 -1.3125 L 0.25 -1.3125 L 0.25 -1.828125 L 2.671875 -5.484375 L 3.421875 -5.484375 L 3.421875 -1.828125 L 4.375 -1.828125 L 4.375 -1.3125 L 3.421875 -1.3125 Z M 1 -1.90625 L 1.046875 -1.828125 L 2.8125 -1.828125 L 2.8125 -4.578125 L 2.734375 -4.59375 Z M 1 -1.90625 "/></g></g><g transform="translate(609.090513, 383.828672)"><g><path d="M 3.421875 0 L 2.8125 0 L 2.8125 -1.3125 L 0.25 -1.3125 L 0.25 -1.828125 L 2.671875 -5.484375 L 3.421875 -5.484375 L 3.421875 -1.828125 L 4.375 -1.828125 L 4.375 -1.3125 L 3.421875 -1.3125 Z M 1 -1.90625 L 1.046875 -1.828125 L 2.8125 -1.828125 L 2.8125 -4.578125 L 2.734375 -4.59375 Z M 1 -1.90625 "/></g></g></g><g clip-path="url(#bbca4f730e)"><path fill="#0cbe46" d="M 580.46875 302.253906 L 637.691406 302.253906 L 637.691406 348.320312 L 580.46875 348.320312 Z M 580.46875 302.253906 " fill-opacity="1" fill-rule="nonzero"/></g><g fill="#000000" fill-opacity="1"><g transform="translate(604.535613, 328.165196)"><g><path d="M 3.421875 0 L 2.8125 0 L 2.8125 -1.3125 L 0.25 -1.3125 L 0.25 -1.828125 L 2.671875 -5.484375 L 3.421875 -5.484375 L 3.421875 -1.828125 L 4.375 -1.828125 L 4.375 -1.3125 L 3.421875 -1.3125 Z M 1 -1.90625 L 1.046875 -1.828125 L 2.8125 -1.828125 L 2.8125 -4.578125 L 2.734375 -4.59375 Z M 1 -1.90625 "/></g></g><g transform="translate(609.180486, 328.165196)"><g><path d="M 2.171875 0.078125 C 1.640625 0.078125 1.21875 -0.0390625 0.90625 -0.28125 C 0.59375 -0.519531 0.390625 -0.851562 0.296875 -1.28125 L 0.78125 -1.5 L 0.859375 -1.484375 C 0.953125 -1.148438 1.097656 -0.898438 1.296875 -0.734375 C 1.492188 -0.578125 1.785156 -0.5 2.171875 -0.5 C 2.554688 -0.5 2.847656 -0.585938 3.046875 -0.765625 C 3.253906 -0.941406 3.359375 -1.203125 3.359375 -1.546875 C 3.359375 -1.890625 3.253906 -2.148438 3.046875 -2.328125 C 2.835938 -2.503906 2.515625 -2.59375 2.078125 -2.59375 L 1.484375 -2.59375 L 1.484375 -3.125 L 2.015625 -3.125 C 2.359375 -3.125 2.628906 -3.207031 2.828125 -3.375 C 3.035156 -3.550781 3.140625 -3.796875 3.140625 -4.109375 C 3.140625 -4.398438 3.050781 -4.617188 2.875 -4.765625 C 2.695312 -4.921875 2.453125 -5 2.140625 -5 C 1.585938 -5 1.191406 -4.773438 0.953125 -4.328125 L 0.875 -4.3125 L 0.515625 -4.71875 C 0.660156 -4.96875 0.867188 -5.171875 1.140625 -5.328125 C 1.421875 -5.484375 1.753906 -5.5625 2.140625 -5.5625 C 2.484375 -5.5625 2.773438 -5.503906 3.015625 -5.390625 C 3.265625 -5.285156 3.453125 -5.128906 3.578125 -4.921875 C 3.710938 -4.710938 3.78125 -4.46875 3.78125 -4.1875 C 3.78125 -3.914062 3.703125 -3.675781 3.546875 -3.46875 C 3.390625 -3.269531 3.179688 -3.113281 2.921875 -3 L 2.921875 -2.921875 C 3.285156 -2.828125 3.554688 -2.660156 3.734375 -2.421875 C 3.921875 -2.191406 4.015625 -1.898438 4.015625 -1.546875 C 4.015625 -1.023438 3.859375 -0.625 3.546875 -0.34375 C 3.242188 -0.0625 2.785156 0.078125 2.171875 0.078125 Z M 2.171875 0.078125 "/></g></g></g><g clip-path="url(#a5c1190bac)"><path fill="#0cbe46" d="M 580.46875 246.4375 L 637.691406 246.4375 L 637.691406 292.503906 L 580.46875 292.503906 Z M 580.46875 246.4375 " fill-opacity="1" fill-rule="nonzero"/></g><g fill="#000000" fill-opacity="1"><g transform="translate(604.655577, 272.348121)"><g><path d="M 3.421875 0 L 2.8125 0 L 2.8125 -1.3125 L 0.25 -1.3125 L 0.25 -1.828125 L 2.671875 -5.484375 L 3.421875 -5.484375 L 3.421875 -1.828125 L 4.375 -1.828125 L 4.375 -1.3125 L 3.421875 -1.3125 Z M 1 -1.90625 L 1.046875 -1.828125 L 2.8125 -1.828125 L 2.8125 -4.578125 L 2.734375 -4.59375 Z M 1 -1.90625 "/></g></g><g transform="translate(609.300451, 272.348121)"><g><path d="M 0.328125 -0.25 C 0.328125 -0.550781 0.359375 -0.796875 0.421875 -0.984375 C 0.492188 -1.171875 0.609375 -1.34375 0.765625 -1.5 C 0.921875 -1.65625 1.175781 -1.863281 1.53125 -2.125 L 2.140625 -2.5625 C 2.359375 -2.71875 2.535156 -2.863281 2.671875 -3 C 2.816406 -3.144531 2.925781 -3.296875 3 -3.453125 C 3.082031 -3.617188 3.125 -3.800781 3.125 -4 C 3.125 -4.320312 3.035156 -4.566406 2.859375 -4.734375 C 2.691406 -4.898438 2.425781 -4.984375 2.0625 -4.984375 C 1.769531 -4.984375 1.507812 -4.914062 1.28125 -4.78125 C 1.0625 -4.644531 0.882812 -4.453125 0.75 -4.203125 L 0.671875 -4.1875 L 0.28125 -4.59375 C 0.46875 -4.894531 0.710938 -5.128906 1.015625 -5.296875 C 1.316406 -5.472656 1.664062 -5.5625 2.0625 -5.5625 C 2.457031 -5.5625 2.78125 -5.492188 3.03125 -5.359375 C 3.289062 -5.222656 3.476562 -5.035156 3.59375 -4.796875 C 3.71875 -4.566406 3.78125 -4.300781 3.78125 -4 C 3.78125 -3.75 3.726562 -3.519531 3.625 -3.3125 C 3.53125 -3.101562 3.390625 -2.90625 3.203125 -2.71875 C 3.015625 -2.53125 2.78125 -2.332031 2.5 -2.125 L 1.890625 -1.671875 C 1.660156 -1.503906 1.484375 -1.363281 1.359375 -1.25 C 1.234375 -1.132812 1.140625 -1.019531 1.078125 -0.90625 C 1.023438 -0.789062 1 -0.664062 1 -0.53125 L 3.78125 -0.53125 L 3.78125 0 L 0.328125 0 Z M 0.328125 -0.25 "/></g></g></g><g clip-path="url(#3701e91af9)"><path fill="#0cbe46" d="M 580.46875 580.570312 L 637.691406 580.570312 L 637.691406 626.636719 L 580.46875 626.636719 Z M 580.46875 580.570312 " fill-opacity="1" fill-rule="nonzero"/></g><g fill="#000000" fill-opacity="1"><g transform="translate(604.445639, 606.482752)"><g><path d="M 3.421875 0 L 2.8125 0 L 2.8125 -1.3125 L 0.25 -1.3125 L 0.25 -1.828125 L 2.671875 -5.484375 L 3.421875 -5.484375 L 3.421875 -1.828125 L 4.375 -1.828125 L 4.375 -1.3125 L 3.421875 -1.3125 Z M 1 -1.90625 L 1.046875 -1.828125 L 2.8125 -1.828125 L 2.8125 -4.578125 L 2.734375 -4.59375 Z M 1 -1.90625 "/></g></g><g transform="translate(609.090513, 606.482752)"><g><path d="M 2.3125 0.078125 C 1.914062 0.078125 1.570312 0.015625 1.28125 -0.109375 C 1 -0.242188 0.785156 -0.425781 0.640625 -0.65625 C 0.492188 -0.894531 0.421875 -1.179688 0.421875 -1.515625 C 0.421875 -1.859375 0.503906 -2.144531 0.671875 -2.375 C 0.847656 -2.613281 1.109375 -2.796875 1.453125 -2.921875 L 1.453125 -3 C 1.210938 -3.144531 1.023438 -3.3125 0.890625 -3.5 C 0.765625 -3.6875 0.703125 -3.910156 0.703125 -4.171875 C 0.703125 -4.453125 0.765625 -4.695312 0.890625 -4.90625 C 1.023438 -5.113281 1.210938 -5.273438 1.453125 -5.390625 C 1.703125 -5.503906 1.988281 -5.5625 2.3125 -5.5625 C 2.632812 -5.5625 2.914062 -5.503906 3.15625 -5.390625 C 3.40625 -5.273438 3.59375 -5.113281 3.71875 -4.90625 C 3.851562 -4.695312 3.921875 -4.453125 3.921875 -4.171875 C 3.921875 -3.910156 3.859375 -3.6875 3.734375 -3.5 C 3.609375 -3.3125 3.425781 -3.144531 3.1875 -3 L 3.1875 -2.921875 C 3.519531 -2.796875 3.769531 -2.613281 3.9375 -2.375 C 4.113281 -2.144531 4.203125 -1.859375 4.203125 -1.515625 C 4.203125 -1.179688 4.128906 -0.894531 3.984375 -0.65625 C 3.835938 -0.425781 3.625 -0.242188 3.34375 -0.109375 C 3.0625 0.015625 2.71875 0.078125 2.3125 0.078125 Z M 2.3125 -3.171875 C 2.507812 -3.171875 2.679688 -3.207031 2.828125 -3.28125 C 2.972656 -3.351562 3.085938 -3.457031 3.171875 -3.59375 C 3.253906 -3.738281 3.296875 -3.90625 3.296875 -4.09375 C 3.296875 -4.28125 3.253906 -4.441406 3.171875 -4.578125 C 3.085938 -4.722656 2.972656 -4.832031 2.828125 -4.90625 C 2.679688 -4.976562 2.507812 -5.015625 2.3125 -5.015625 C 2.007812 -5.015625 1.769531 -4.929688 1.59375 -4.765625 C 1.414062 -4.609375 1.328125 -4.382812 1.328125 -4.09375 C 1.328125 -3.8125 1.414062 -3.585938 1.59375 -3.421875 C 1.769531 -3.253906 2.007812 -3.171875 2.3125 -3.171875 Z M 2.3125 -0.484375 C 2.707031 -0.484375 3.007812 -0.578125 3.21875 -0.765625 C 3.425781 -0.953125 3.53125 -1.210938 3.53125 -1.546875 C 3.53125 -1.878906 3.425781 -2.140625 3.21875 -2.328125 C 3.007812 -2.515625 2.707031 -2.609375 2.3125 -2.609375 C 1.914062 -2.609375 1.613281 -2.515625 1.40625 -2.328125 C 1.195312 -2.140625 1.09375 -1.878906 1.09375 -1.546875 C 1.09375 -1.210938 1.195312 -0.953125 1.40625 -0.765625 C 1.613281 -0.578125 1.914062 -0.484375 2.3125 -0.484375 Z M 2.3125 -0.484375 "/></g></g></g><g clip-path="url(#dca0a37556)"><path fill="#0cbe46" d="M 580.46875 636.234375 L 637.691406 636.234375 L 637.691406 682.300781 L 580.46875 682.300781 Z M 580.46875 636.234375 " fill-opacity="1" fill-rule="nonzero"/></g><g fill="#000000" fill-opacity="1"><g transform="translate(604.295684, 662.146213)"><g><path d="M 3.421875 0 L 2.8125 0 L 2.8125 -1.3125 L 0.25 -1.3125 L 0.25 -1.828125 L 2.671875 -5.484375 L 3.421875 -5.484375 L 3.421875 -1.828125 L 4.375 -1.828125 L 4.375 -1.3125 L 3.421875 -1.3125 Z M 1 -1.90625 L 1.046875 -1.828125 L 2.8125 -1.828125 L 2.8125 -4.578125 L 2.734375 -4.59375 Z M 1 -1.90625 "/></g></g><g transform="translate(608.940557, 662.146213)"><g><path d="M 2.3125 0.078125 C 1.84375 0.078125 1.457031 -0.0234375 1.15625 -0.234375 C 0.863281 -0.453125 0.675781 -0.753906 0.59375 -1.140625 L 1.078125 -1.359375 L 1.15625 -1.34375 C 1.238281 -1.0625 1.367188 -0.847656 1.546875 -0.703125 C 1.734375 -0.566406 1.988281 -0.5 2.3125 -0.5 C 2.769531 -0.5 3.117188 -0.6875 3.359375 -1.0625 C 3.597656 -1.445312 3.71875 -2.035156 3.71875 -2.828125 L 3.640625 -2.859375 C 3.484375 -2.546875 3.285156 -2.3125 3.046875 -2.15625 C 2.816406 -2 2.523438 -1.921875 2.171875 -1.921875 C 1.828125 -1.921875 1.523438 -1.992188 1.265625 -2.140625 C 1.015625 -2.296875 0.820312 -2.507812 0.6875 -2.78125 C 0.550781 -3.050781 0.484375 -3.367188 0.484375 -3.734375 C 0.484375 -4.097656 0.554688 -4.414062 0.703125 -4.6875 C 0.859375 -4.96875 1.070312 -5.179688 1.34375 -5.328125 C 1.625 -5.484375 1.945312 -5.5625 2.3125 -5.5625 C 2.957031 -5.5625 3.460938 -5.34375 3.828125 -4.90625 C 4.191406 -4.46875 4.375 -3.765625 4.375 -2.796875 C 4.375 -2.148438 4.285156 -1.609375 4.109375 -1.171875 C 3.929688 -0.742188 3.691406 -0.425781 3.390625 -0.21875 C 3.085938 -0.0195312 2.726562 0.078125 2.3125 0.078125 Z M 2.3125 -2.484375 C 2.5625 -2.484375 2.773438 -2.53125 2.953125 -2.625 C 3.140625 -2.726562 3.28125 -2.875 3.375 -3.0625 C 3.476562 -3.25 3.53125 -3.472656 3.53125 -3.734375 C 3.53125 -3.992188 3.476562 -4.21875 3.375 -4.40625 C 3.28125 -4.59375 3.140625 -4.734375 2.953125 -4.828125 C 2.773438 -4.929688 2.5625 -4.984375 2.3125 -4.984375 C 1.945312 -4.984375 1.660156 -4.875 1.453125 -4.65625 C 1.253906 -4.445312 1.15625 -4.140625 1.15625 -3.734375 C 1.15625 -3.328125 1.253906 -3.015625 1.453125 -2.796875 C 1.660156 -2.585938 1.945312 -2.484375 2.3125 -2.484375 Z M 2.3125 -2.484375 "/></g></g></g><g clip-path="url(#43fd1c14f7)"><path fill="#0cbe46" d="M 580.46875 691.898438 L 637.691406 691.898438 L 637.691406 737.964844 L 580.46875 737.964844 Z M 580.46875 691.898438 " fill-opacity="1" fill-rule="nonzero"/></g><g fill="#000000" fill-opacity="1"><g transform="translate(604.123235, 717.809746)"><g><path d="M 2.25 0.078125 C 1.738281 0.078125 1.328125 -0.0351562 1.015625 -0.265625 C 0.710938 -0.492188 0.519531 -0.816406 0.4375 -1.234375 L 0.90625 -1.453125 L 1 -1.4375 C 1.0625 -1.21875 1.140625 -1.039062 1.234375 -0.90625 C 1.335938 -0.769531 1.472656 -0.664062 1.640625 -0.59375 C 1.804688 -0.53125 2.007812 -0.5 2.25 -0.5 C 2.625 -0.5 2.910156 -0.609375 3.109375 -0.828125 C 3.316406 -1.054688 3.421875 -1.378906 3.421875 -1.796875 C 3.421875 -2.222656 3.320312 -2.546875 3.125 -2.765625 C 2.925781 -2.992188 2.644531 -3.109375 2.28125 -3.109375 C 2.007812 -3.109375 1.789062 -3.050781 1.625 -2.9375 C 1.457031 -2.832031 1.304688 -2.664062 1.171875 -2.4375 L 0.65625 -2.484375 L 0.765625 -5.484375 L 3.828125 -5.484375 L 3.828125 -4.9375 L 1.328125 -4.9375 L 1.265625 -3.109375 L 1.34375 -3.09375 C 1.46875 -3.28125 1.625 -3.421875 1.8125 -3.515625 C 2 -3.609375 2.222656 -3.65625 2.484375 -3.65625 C 2.804688 -3.65625 3.085938 -3.582031 3.328125 -3.4375 C 3.578125 -3.289062 3.769531 -3.078125 3.90625 -2.796875 C 4.039062 -2.523438 4.109375 -2.191406 4.109375 -1.796875 C 4.109375 -1.410156 4.03125 -1.070312 3.875 -0.78125 C 3.71875 -0.5 3.5 -0.285156 3.21875 -0.140625 C 2.945312 0.00390625 2.625 0.078125 2.25 0.078125 Z M 2.25 0.078125 "/></g></g><g transform="translate(608.659391, 717.809746)"><g><path d="M 2.6875 0.078125 C 2.289062 0.078125 1.929688 -0.015625 1.609375 -0.203125 C 1.285156 -0.398438 1.03125 -0.707031 0.84375 -1.125 C 0.65625 -1.550781 0.5625 -2.085938 0.5625 -2.734375 C 0.5625 -3.390625 0.65625 -3.925781 0.84375 -4.34375 C 1.03125 -4.757812 1.285156 -5.066406 1.609375 -5.265625 C 1.929688 -5.460938 2.289062 -5.5625 2.6875 -5.5625 C 3.09375 -5.5625 3.453125 -5.460938 3.765625 -5.265625 C 4.085938 -5.066406 4.34375 -4.757812 4.53125 -4.34375 C 4.726562 -3.925781 4.828125 -3.390625 4.828125 -2.734375 C 4.828125 -2.085938 4.726562 -1.550781 4.53125 -1.125 C 4.34375 -0.707031 4.085938 -0.398438 3.765625 -0.203125 C 3.453125 -0.015625 3.09375 0.078125 2.6875 0.078125 Z M 2.6875 -0.515625 C 3.164062 -0.515625 3.523438 -0.6875 3.765625 -1.03125 C 4.015625 -1.375 4.140625 -1.941406 4.140625 -2.734375 C 4.140625 -3.523438 4.015625 -4.09375 3.765625 -4.4375 C 3.523438 -4.78125 3.164062 -4.953125 2.6875 -4.953125 C 2.375 -4.953125 2.109375 -4.878906 1.890625 -4.734375 C 1.679688 -4.597656 1.519531 -4.363281 1.40625 -4.03125 C 1.289062 -3.707031 1.234375 -3.273438 1.234375 -2.734375 C 1.234375 -2.203125 1.289062 -1.769531 1.40625 -1.4375 C 1.519531 -1.113281 1.679688 -0.878906 1.890625 -0.734375 C 2.109375 -0.585938 2.375 -0.515625 2.6875 -0.515625 Z M 2.6875 -0.515625 "/></g></g></g><g clip-path="url(#b9ab89816a)"><path stroke-linecap="butt" transform="matrix(0.479858, 0, 0, 0.479858, 536.008755, 66.988193)" fill-opacity="1" fill="#ffffff" fill-rule="nonzero" stroke-linejoin="miter" d="M -0.00196466 0.00018468 L 767.998993 0.00018468 L 767.998993 192.000424 L -0.00196466 192.000424 Z M -0.00196466 0.00018468 " stroke="#0cbe46" stroke-width="8" stroke-opacity="1" stroke-miterlimit="4"/></g><g clip-path="url(#4c62b924ec)"><path fill="#0cbe46" d="M 550.367188 90.019531 L 576.136719 90.019531 L 576.136719 136.128906 L 550.367188 136.128906 Z M 550.367188 90.019531 " fill-opacity="1" fill-rule="nonzero"/></g><g fill="#000000" fill-opacity="1"><g transform="translate(558.982158, 115.933665)"><g><path d="M 2.171875 0.078125 C 1.640625 0.078125 1.21875 -0.0390625 0.90625 -0.28125 C 0.59375 -0.519531 0.390625 -0.851562 0.296875 -1.28125 L 0.78125 -1.5 L 0.859375 -1.484375 C 0.953125 -1.148438 1.097656 -0.898438 1.296875 -0.734375 C 1.492188 -0.578125 1.785156 -0.5 2.171875 -0.5 C 2.554688 -0.5 2.847656 -0.585938 3.046875 -0.765625 C 3.253906 -0.941406 3.359375 -1.203125 3.359375 -1.546875 C 3.359375 -1.890625 3.253906 -2.148438 3.046875 -2.328125 C 2.835938 -2.503906 2.515625 -2.59375 2.078125 -2.59375 L 1.484375 -2.59375 L 1.484375 -3.125 L 2.015625 -3.125 C 2.359375 -3.125 2.628906 -3.207031 2.828125 -3.375 C 3.035156 -3.550781 3.140625 -3.796875 3.140625 -4.109375 C 3.140625 -4.398438 3.050781 -4.617188 2.875 -4.765625 C 2.695312 -4.921875 2.453125 -5 2.140625 -5 C 1.585938 -5 1.191406 -4.773438 0.953125 -4.328125 L 0.875 -4.3125 L 0.515625 -4.71875 C 0.660156 -4.96875 0.867188 -5.171875 1.140625 -5.328125 C 1.421875 -5.484375 1.753906 -5.5625 2.140625 -5.5625 C 2.484375 -5.5625 2.773438 -5.503906 3.015625 -5.390625 C 3.265625 -5.285156 3.453125 -5.128906 3.578125 -4.921875 C 3.710938 -4.710938 3.78125 -4.46875 3.78125 -4.1875 C 3.78125 -3.914062 3.703125 -3.675781 3.546875 -3.46875 C 3.390625 -3.269531 3.179688 -3.113281 2.921875 -3 L 2.921875 -2.921875 C 3.285156 -2.828125 3.554688 -2.660156 3.734375 -2.421875 C 3.921875 -2.191406 4.015625 -1.898438 4.015625 -1.546875 C 4.015625 -1.023438 3.859375 -0.625 3.546875 -0.34375 C 3.242188 -0.0625 2.785156 0.078125 2.171875 0.078125 Z M 2.171875 0.078125 "/></g></g><g transform="translate(563.435838, 115.933665)"><g><path d="M 0.390625 0 L 0.390625 -0.53125 L 1.890625 -0.53125 L 1.890625 -4.71875 L 1.796875 -4.75 C 1.554688 -4.625 1.34375 -4.53125 1.15625 -4.46875 C 0.976562 -4.40625 0.742188 -4.34375 0.453125 -4.28125 L 0.453125 -4.875 C 0.742188 -4.9375 1.023438 -5.015625 1.296875 -5.109375 C 1.578125 -5.210938 1.828125 -5.335938 2.046875 -5.484375 L 2.515625 -5.484375 L 2.515625 -0.53125 L 3.84375 -0.53125 L 3.84375 0 Z M 0.390625 0 "/></g></g></g><g clip-path="url(#b9680237fb)"><path fill="#0cbe46" d="M 756.539062 90.019531 L 782.308594 90.019531 L 782.308594 136.128906 L 756.539062 136.128906 Z M 756.539062 90.019531 " fill-opacity="1" fill-rule="nonzero"/></g><g fill="#000000" fill-opacity="1"><g transform="translate(765.303119, 115.933665)"><g><path d="M 2.171875 0.078125 C 1.640625 0.078125 1.21875 -0.0390625 0.90625 -0.28125 C 0.59375 -0.519531 0.390625 -0.851562 0.296875 -1.28125 L 0.78125 -1.5 L 0.859375 -1.484375 C 0.953125 -1.148438 1.097656 -0.898438 1.296875 -0.734375 C 1.492188 -0.578125 1.785156 -0.5 2.171875 -0.5 C 2.554688 -0.5 2.847656 -0.585938 3.046875 -0.765625 C 3.253906 -0.941406 3.359375 -1.203125 3.359375 -1.546875 C 3.359375 -1.890625 3.253906 -2.148438 3.046875 -2.328125 C 2.835938 -2.503906 2.515625 -2.59375 2.078125 -2.59375 L 1.484375 -2.59375 L 1.484375 -3.125 L 2.015625 -3.125 C 2.359375 -3.125 2.628906 -3.207031 2.828125 -3.375 C 3.035156 -3.550781 3.140625 -3.796875 3.140625 -4.109375 C 3.140625 -4.398438 3.050781 -4.617188 2.875 -4.765625 C 2.695312 -4.921875 2.453125 -5 2.140625 -5 C 1.585938 -5 1.191406 -4.773438 0.953125 -4.328125 L 0.875 -4.3125 L 0.515625 -4.71875 C 0.660156 -4.96875 0.867188 -5.171875 1.140625 -5.328125 C 1.421875 -5.484375 1.753906 -5.5625 2.140625 -5.5625 C 2.484375 -5.5625 2.773438 -5.503906 3.015625 -5.390625 C 3.265625 -5.285156 3.453125 -5.128906 3.578125 -4.921875 C 3.710938 -4.710938 3.78125 -4.46875 3.78125 -4.1875 C 3.78125 -3.914062 3.703125 -3.675781 3.546875 -3.46875 C 3.390625 -3.269531 3.179688 -3.113281 2.921875 -3 L 2.921875 -2.921875 C 3.285156 -2.828125 3.554688 -2.660156 3.734375 -2.421875 C 3.921875 -2.191406 4.015625 -1.898438 4.015625 -1.546875 C 4.015625 -1.023438 3.859375 -0.625 3.546875 -0.34375 C 3.242188 -0.0625 2.785156 0.078125 2.171875 0.078125 Z M 2.171875 0.078125 "/></g></g><g transform="translate(769.756799, 115.933665)"><g><path d="M 1.484375 0 L 0.859375 0 L 2.890625 -4.84375 L 2.875 -4.9375 L 0.203125 -4.9375 L 0.203125 -5.484375 L 3.546875 -5.484375 L 3.546875 -4.890625 Z M 1.484375 0 "/></g></g></g><g clip-path="url(#c00093a907)"><path fill="#0cbe46" d="M 722.175781 90.019531 L 747.949219 90.019531 L 747.949219 136.128906 L 722.175781 136.128906 Z M 722.175781 90.019531 " fill-opacity="1" fill-rule="nonzero"/></g><g fill="#000000" fill-opacity="1"><g transform="translate(730.36396, 115.933665)"><g><path d="M 2.171875 0.078125 C 1.640625 0.078125 1.21875 -0.0390625 0.90625 -0.28125 C 0.59375 -0.519531 0.390625 -0.851562 0.296875 -1.28125 L 0.78125 -1.5 L 0.859375 -1.484375 C 0.953125 -1.148438 1.097656 -0.898438 1.296875 -0.734375 C 1.492188 -0.578125 1.785156 -0.5 2.171875 -0.5 C 2.554688 -0.5 2.847656 -0.585938 3.046875 -0.765625 C 3.253906 -0.941406 3.359375 -1.203125 3.359375 -1.546875 C 3.359375 -1.890625 3.253906 -2.148438 3.046875 -2.328125 C 2.835938 -2.503906 2.515625 -2.59375 2.078125 -2.59375 L 1.484375 -2.59375 L 1.484375 -3.125 L 2.015625 -3.125 C 2.359375 -3.125 2.628906 -3.207031 2.828125 -3.375 C 3.035156 -3.550781 3.140625 -3.796875 3.140625 -4.109375 C 3.140625 -4.398438 3.050781 -4.617188 2.875 -4.765625 C 2.695312 -4.921875 2.453125 -5 2.140625 -5 C 1.585938 -5 1.191406 -4.773438 0.953125 -4.328125 L 0.875 -4.3125 L 0.515625 -4.71875 C 0.660156 -4.96875 0.867188 -5.171875 1.140625 -5.328125 C 1.421875 -5.484375 1.753906 -5.5625 2.140625 -5.5625 C 2.484375 -5.5625 2.773438 -5.503906 3.015625 -5.390625 C 3.265625 -5.285156 3.453125 -5.128906 3.578125 -4.921875 C 3.710938 -4.710938 3.78125 -4.46875 3.78125 -4.1875 C 3.78125 -3.914062 3.703125 -3.675781 3.546875 -3.46875 C 3.390625 -3.269531 3.179688 -3.113281 2.921875 -3 L 2.921875 -2.921875 C 3.285156 -2.828125 3.554688 -2.660156 3.734375 -2.421875 C 3.921875 -2.191406 4.015625 -1.898438 4.015625 -1.546875 C 4.015625 -1.023438 3.859375 -0.625 3.546875 -0.34375 C 3.242188 -0.0625 2.785156 0.078125 2.171875 0.078125 Z M 2.171875 0.078125 "/></g></g><g transform="translate(734.81764, 115.933665)"><g><path d="M 2.609375 0.078125 C 2.222656 0.078125 1.875 -0.015625 1.5625 -0.203125 C 1.257812 -0.390625 1.015625 -0.691406 0.828125 -1.109375 C 0.648438 -1.523438 0.5625 -2.066406 0.5625 -2.734375 C 0.5625 -3.378906 0.648438 -3.910156 0.828125 -4.328125 C 1.015625 -4.753906 1.265625 -5.066406 1.578125 -5.265625 C 1.898438 -5.460938 2.265625 -5.5625 2.671875 -5.5625 C 3.378906 -5.5625 3.894531 -5.347656 4.21875 -4.921875 L 3.90625 -4.484375 L 3.8125 -4.484375 C 3.539062 -4.816406 3.160156 -4.984375 2.671875 -4.984375 C 2.203125 -4.984375 1.84375 -4.800781 1.59375 -4.4375 C 1.34375 -4.082031 1.21875 -3.507812 1.21875 -2.71875 L 1.296875 -2.703125 C 1.441406 -3.015625 1.632812 -3.242188 1.875 -3.390625 C 2.113281 -3.546875 2.410156 -3.625 2.765625 -3.625 C 3.109375 -3.625 3.40625 -3.550781 3.65625 -3.40625 C 3.914062 -3.257812 4.113281 -3.046875 4.25 -2.765625 C 4.382812 -2.492188 4.453125 -2.164062 4.453125 -1.78125 C 4.453125 -1.40625 4.375 -1.078125 4.21875 -0.796875 C 4.070312 -0.515625 3.859375 -0.296875 3.578125 -0.140625 C 3.304688 0.00390625 2.984375 0.078125 2.609375 0.078125 Z M 2.609375 -0.5 C 2.972656 -0.5 3.253906 -0.609375 3.453125 -0.828125 C 3.660156 -1.046875 3.765625 -1.363281 3.765625 -1.78125 C 3.765625 -2.195312 3.660156 -2.515625 3.453125 -2.734375 C 3.253906 -2.953125 2.972656 -3.0625 2.609375 -3.0625 C 2.367188 -3.0625 2.15625 -3.007812 1.96875 -2.90625 C 1.789062 -2.8125 1.648438 -2.664062 1.546875 -2.46875 C 1.453125 -2.28125 1.40625 -2.050781 1.40625 -1.78125 C 1.40625 -1.507812 1.453125 -1.28125 1.546875 -1.09375 C 1.648438 -0.90625 1.789062 -0.757812 1.96875 -0.65625 C 2.15625 -0.550781 2.367188 -0.5 2.609375 -0.5 Z M 2.609375 -0.5 "/></g></g></g><g clip-path="url(#a61898a476)"><path fill="#0cbe46" d="M 687.816406 90.019531 L 713.585938 90.019531 L 713.585938 136.128906 L 687.816406 136.128906 Z M 687.816406 90.019531 " fill-opacity="1" fill-rule="nonzero"/></g><g fill="#000000" fill-opacity="1"><g transform="translate(696.204545, 115.933665)"><g><path d="M 2.171875 0.078125 C 1.640625 0.078125 1.21875 -0.0390625 0.90625 -0.28125 C 0.59375 -0.519531 0.390625 -0.851562 0.296875 -1.28125 L 0.78125 -1.5 L 0.859375 -1.484375 C 0.953125 -1.148438 1.097656 -0.898438 1.296875 -0.734375 C 1.492188 -0.578125 1.785156 -0.5 2.171875 -0.5 C 2.554688 -0.5 2.847656 -0.585938 3.046875 -0.765625 C 3.253906 -0.941406 3.359375 -1.203125 3.359375 -1.546875 C 3.359375 -1.890625 3.253906 -2.148438 3.046875 -2.328125 C 2.835938 -2.503906 2.515625 -2.59375 2.078125 -2.59375 L 1.484375 -2.59375 L 1.484375 -3.125 L 2.015625 -3.125 C 2.359375 -3.125 2.628906 -3.207031 2.828125 -3.375 C 3.035156 -3.550781 3.140625 -3.796875 3.140625 -4.109375 C 3.140625 -4.398438 3.050781 -4.617188 2.875 -4.765625 C 2.695312 -4.921875 2.453125 -5 2.140625 -5 C 1.585938 -5 1.191406 -4.773438 0.953125 -4.328125 L 0.875 -4.3125 L 0.515625 -4.71875 C 0.660156 -4.96875 0.867188 -5.171875 1.140625 -5.328125 C 1.421875 -5.484375 1.753906 -5.5625 2.140625 -5.5625 C 2.484375 -5.5625 2.773438 -5.503906 3.015625 -5.390625 C 3.265625 -5.285156 3.453125 -5.128906 3.578125 -4.921875 C 3.710938 -4.710938 3.78125 -4.46875 3.78125 -4.1875 C 3.78125 -3.914062 3.703125 -3.675781 3.546875 -3.46875 C 3.390625 -3.269531 3.179688 -3.113281 2.921875 -3 L 2.921875 -2.921875 C 3.285156 -2.828125 3.554688 -2.660156 3.734375 -2.421875 C 3.921875 -2.191406 4.015625 -1.898438 4.015625 -1.546875 C 4.015625 -1.023438 3.859375 -0.625 3.546875 -0.34375 C 3.242188 -0.0625 2.785156 0.078125 2.171875 0.078125 Z M 2.171875 0.078125 "/></g></g><g transform="translate(700.658226, 115.933665)"><g><path d="M 2.25 0.078125 C 1.738281 0.078125 1.328125 -0.0351562 1.015625 -0.265625 C 0.710938 -0.492188 0.519531 -0.816406 0.4375 -1.234375 L 0.90625 -1.453125 L 1 -1.4375 C 1.0625 -1.21875 1.140625 -1.039062 1.234375 -0.90625 C 1.335938 -0.769531 1.472656 -0.664062 1.640625 -0.59375 C 1.804688 -0.53125 2.007812 -0.5 2.25 -0.5 C 2.625 -0.5 2.910156 -0.609375 3.109375 -0.828125 C 3.316406 -1.054688 3.421875 -1.378906 3.421875 -1.796875 C 3.421875 -2.222656 3.320312 -2.546875 3.125 -2.765625 C 2.925781 -2.992188 2.644531 -3.109375 2.28125 -3.109375 C 2.007812 -3.109375 1.789062 -3.050781 1.625 -2.9375 C 1.457031 -2.832031 1.304688 -2.664062 1.171875 -2.4375 L 0.65625 -2.484375 L 0.765625 -5.484375 L 3.828125 -5.484375 L 3.828125 -4.9375 L 1.328125 -4.9375 L 1.265625 -3.109375 L 1.34375 -3.09375 C 1.46875 -3.28125 1.625 -3.421875 1.8125 -3.515625 C 2 -3.609375 2.222656 -3.65625 2.484375 -3.65625 C 2.804688 -3.65625 3.085938 -3.582031 3.328125 -3.4375 C 3.578125 -3.289062 3.769531 -3.078125 3.90625 -2.796875 C 4.039062 -2.523438 4.109375 -2.191406 4.109375 -1.796875 C 4.109375 -1.410156 4.03125 -1.070312 3.875 -0.78125 C 3.71875 -0.5 3.5 -0.285156 3.21875 -0.140625 C 2.945312 0.00390625 2.625 0.078125 2.25 0.078125 Z M 2.25 0.078125 "/></g></g></g><g clip-path="url(#e2829db2aa)"><path fill="#0cbe46" d="M 653.453125 90.019531 L 679.222656 90.019531 L 679.222656 136.128906 L 653.453125 136.128906 Z M 653.453125 90.019531 " fill-opacity="1" fill-rule="nonzero"/></g><g fill="#000000" fill-opacity="1"><g transform="translate(661.782685, 115.933665)"><g><path d="M 2.171875 0.078125 C 1.640625 0.078125 1.21875 -0.0390625 0.90625 -0.28125 C 0.59375 -0.519531 0.390625 -0.851562 0.296875 -1.28125 L 0.78125 -1.5 L 0.859375 -1.484375 C 0.953125 -1.148438 1.097656 -0.898438 1.296875 -0.734375 C 1.492188 -0.578125 1.785156 -0.5 2.171875 -0.5 C 2.554688 -0.5 2.847656 -0.585938 3.046875 -0.765625 C 3.253906 -0.941406 3.359375 -1.203125 3.359375 -1.546875 C 3.359375 -1.890625 3.253906 -2.148438 3.046875 -2.328125 C 2.835938 -2.503906 2.515625 -2.59375 2.078125 -2.59375 L 1.484375 -2.59375 L 1.484375 -3.125 L 2.015625 -3.125 C 2.359375 -3.125 2.628906 -3.207031 2.828125 -3.375 C 3.035156 -3.550781 3.140625 -3.796875 3.140625 -4.109375 C 3.140625 -4.398438 3.050781 -4.617188 2.875 -4.765625 C 2.695312 -4.921875 2.453125 -5 2.140625 -5 C 1.585938 -5 1.191406 -4.773438 0.953125 -4.328125 L 0.875 -4.3125 L 0.515625 -4.71875 C 0.660156 -4.96875 0.867188 -5.171875 1.140625 -5.328125 C 1.421875 -5.484375 1.753906 -5.5625 2.140625 -5.5625 C 2.484375 -5.5625 2.773438 -5.503906 3.015625 -5.390625 C 3.265625 -5.285156 3.453125 -5.128906 3.578125 -4.921875 C 3.710938 -4.710938 3.78125 -4.46875 3.78125 -4.1875 C 3.78125 -3.914062 3.703125 -3.675781 3.546875 -3.46875 C 3.390625 -3.269531 3.179688 -3.113281 2.921875 -3 L 2.921875 -2.921875 C 3.285156 -2.828125 3.554688 -2.660156 3.734375 -2.421875 C 3.921875 -2.191406 4.015625 -1.898438 4.015625 -1.546875 C 4.015625 -1.023438 3.859375 -0.625 3.546875 -0.34375 C 3.242188 -0.0625 2.785156 0.078125 2.171875 0.078125 Z M 2.171875 0.078125 "/></g></g><g transform="translate(666.236365, 115.933665)"><g><path d="M 3.421875 0 L 2.8125 0 L 2.8125 -1.3125 L 0.25 -1.3125 L 0.25 -1.828125 L 2.671875 -5.484375 L 3.421875 -5.484375 L 3.421875 -1.828125 L 4.375 -1.828125 L 4.375 -1.3125 L 3.421875 -1.3125 Z M 1 -1.90625 L 1.046875 -1.828125 L 2.8125 -1.828125 L 2.8125 -4.578125 L 2.734375 -4.59375 Z M 1 -1.90625 "/></g></g></g><g clip-path="url(#2e7062dd5c)"><path fill="#0cbe46" d="M 619.089844 90.019531 L 644.863281 90.019531 L 644.863281 136.128906 L 619.089844 136.128906 Z M 619.089844 90.019531 " fill-opacity="1" fill-rule="nonzero"/></g><g fill="#000000" fill-opacity="1"><g transform="translate(627.518326, 115.933665)"><g><path d="M 2.171875 0.078125 C 1.640625 0.078125 1.21875 -0.0390625 0.90625 -0.28125 C 0.59375 -0.519531 0.390625 -0.851562 0.296875 -1.28125 L 0.78125 -1.5 L 0.859375 -1.484375 C 0.953125 -1.148438 1.097656 -0.898438 1.296875 -0.734375 C 1.492188 -0.578125 1.785156 -0.5 2.171875 -0.5 C 2.554688 -0.5 2.847656 -0.585938 3.046875 -0.765625 C 3.253906 -0.941406 3.359375 -1.203125 3.359375 -1.546875 C 3.359375 -1.890625 3.253906 -2.148438 3.046875 -2.328125 C 2.835938 -2.503906 2.515625 -2.59375 2.078125 -2.59375 L 1.484375 -2.59375 L 1.484375 -3.125 L 2.015625 -3.125 C 2.359375 -3.125 2.628906 -3.207031 2.828125 -3.375 C 3.035156 -3.550781 3.140625 -3.796875 3.140625 -4.109375 C 3.140625 -4.398438 3.050781 -4.617188 2.875 -4.765625 C 2.695312 -4.921875 2.453125 -5 2.140625 -5 C 1.585938 -5 1.191406 -4.773438 0.953125 -4.328125 L 0.875 -4.3125 L 0.515625 -4.71875 C 0.660156 -4.96875 0.867188 -5.171875 1.140625 -5.328125 C 1.421875 -5.484375 1.753906 -5.5625 2.140625 -5.5625 C 2.484375 -5.5625 2.773438 -5.503906 3.015625 -5.390625 C 3.265625 -5.285156 3.453125 -5.128906 3.578125 -4.921875 C 3.710938 -4.710938 3.78125 -4.46875 3.78125 -4.1875 C 3.78125 -3.914062 3.703125 -3.675781 3.546875 -3.46875 C 3.390625 -3.269531 3.179688 -3.113281 2.921875 -3 L 2.921875 -2.921875 C 3.285156 -2.828125 3.554688 -2.660156 3.734375 -2.421875 C 3.921875 -2.191406 4.015625 -1.898438 4.015625 -1.546875 C 4.015625 -1.023438 3.859375 -0.625 3.546875 -0.34375 C 3.242188 -0.0625 2.785156 0.078125 2.171875 0.078125 Z M 2.171875 0.078125 "/></g></g><g transform="translate(631.972006, 115.933665)"><g><path d="M 2.171875 0.078125 C 1.640625 0.078125 1.21875 -0.0390625 0.90625 -0.28125 C 0.59375 -0.519531 0.390625 -0.851562 0.296875 -1.28125 L 0.78125 -1.5 L 0.859375 -1.484375 C 0.953125 -1.148438 1.097656 -0.898438 1.296875 -0.734375 C 1.492188 -0.578125 1.785156 -0.5 2.171875 -0.5 C 2.554688 -0.5 2.847656 -0.585938 3.046875 -0.765625 C 3.253906 -0.941406 3.359375 -1.203125 3.359375 -1.546875 C 3.359375 -1.890625 3.253906 -2.148438 3.046875 -2.328125 C 2.835938 -2.503906 2.515625 -2.59375 2.078125 -2.59375 L 1.484375 -2.59375 L 1.484375 -3.125 L 2.015625 -3.125 C 2.359375 -3.125 2.628906 -3.207031 2.828125 -3.375 C 3.035156 -3.550781 3.140625 -3.796875 3.140625 -4.109375 C 3.140625 -4.398438 3.050781 -4.617188 2.875 -4.765625 C 2.695312 -4.921875 2.453125 -5 2.140625 -5 C 1.585938 -5 1.191406 -4.773438 0.953125 -4.328125 L 0.875 -4.3125 L 0.515625 -4.71875 C 0.660156 -4.96875 0.867188 -5.171875 1.140625 -5.328125 C 1.421875 -5.484375 1.753906 -5.5625 2.140625 -5.5625 C 2.484375 -5.5625 2.773438 -5.503906 3.015625 -5.390625 C 3.265625 -5.285156 3.453125 -5.128906 3.578125 -4.921875 C 3.710938 -4.710938 3.78125 -4.46875 3.78125 -4.1875 C 3.78125 -3.914062 3.703125 -3.675781 3.546875 -3.46875 C 3.390625 -3.269531 3.179688 -3.113281 2.921875 -3 L 2.921875 -2.921875 C 3.285156 -2.828125 3.554688 -2.660156 3.734375 -2.421875 C 3.921875 -2.191406 4.015625 -1.898438 4.015625 -1.546875 C 4.015625 -1.023438 3.859375 -0.625 3.546875 -0.34375 C 3.242188 -0.0625 2.785156 0.078125 2.171875 0.078125 Z M 2.171875 0.078125 "/></g></g></g><g clip-path="url(#25f293eb2a)"><path fill="#0cbe46" d="M 584.730469 90.019531 L 610.5 90.019531 L 610.5 136.128906 L 584.730469 136.128906 Z M 584.730469 90.019531 " fill-opacity="1" fill-rule="nonzero"/></g><g fill="#000000" fill-opacity="1"><g transform="translate(593.276436, 115.933665)"><g><path d="M 2.171875 0.078125 C 1.640625 0.078125 1.21875 -0.0390625 0.90625 -0.28125 C 0.59375 -0.519531 0.390625 -0.851562 0.296875 -1.28125 L 0.78125 -1.5 L 0.859375 -1.484375 C 0.953125 -1.148438 1.097656 -0.898438 1.296875 -0.734375 C 1.492188 -0.578125 1.785156 -0.5 2.171875 -0.5 C 2.554688 -0.5 2.847656 -0.585938 3.046875 -0.765625 C 3.253906 -0.941406 3.359375 -1.203125 3.359375 -1.546875 C 3.359375 -1.890625 3.253906 -2.148438 3.046875 -2.328125 C 2.835938 -2.503906 2.515625 -2.59375 2.078125 -2.59375 L 1.484375 -2.59375 L 1.484375 -3.125 L 2.015625 -3.125 C 2.359375 -3.125 2.628906 -3.207031 2.828125 -3.375 C 3.035156 -3.550781 3.140625 -3.796875 3.140625 -4.109375 C 3.140625 -4.398438 3.050781 -4.617188 2.875 -4.765625 C 2.695312 -4.921875 2.453125 -5 2.140625 -5 C 1.585938 -5 1.191406 -4.773438 0.953125 -4.328125 L 0.875 -4.3125 L 0.515625 -4.71875 C 0.660156 -4.96875 0.867188 -5.171875 1.140625 -5.328125 C 1.421875 -5.484375 1.753906 -5.5625 2.140625 -5.5625 C 2.484375 -5.5625 2.773438 -5.503906 3.015625 -5.390625 C 3.265625 -5.285156 3.453125 -5.128906 3.578125 -4.921875 C 3.710938 -4.710938 3.78125 -4.46875 3.78125 -4.1875 C 3.78125 -3.914062 3.703125 -3.675781 3.546875 -3.46875 C 3.390625 -3.269531 3.179688 -3.113281 2.921875 -3 L 2.921875 -2.921875 C 3.285156 -2.828125 3.554688 -2.660156 3.734375 -2.421875 C 3.921875 -2.191406 4.015625 -1.898438 4.015625 -1.546875 C 4.015625 -1.023438 3.859375 -0.625 3.546875 -0.34375 C 3.242188 -0.0625 2.785156 0.078125 2.171875 0.078125 Z M 2.171875 0.078125 "/></g></g><g transform="translate(597.730116, 115.933665)"><g><path d="M 0.328125 -0.25 C 0.328125 -0.550781 0.359375 -0.796875 0.421875 -0.984375 C 0.492188 -1.171875 0.609375 -1.34375 0.765625 -1.5 C 0.921875 -1.65625 1.175781 -1.863281 1.53125 -2.125 L 2.140625 -2.5625 C 2.359375 -2.71875 2.535156 -2.863281 2.671875 -3 C 2.816406 -3.144531 2.925781 -3.296875 3 -3.453125 C 3.082031 -3.617188 3.125 -3.800781 3.125 -4 C 3.125 -4.320312 3.035156 -4.566406 2.859375 -4.734375 C 2.691406 -4.898438 2.425781 -4.984375 2.0625 -4.984375 C 1.769531 -4.984375 1.507812 -4.914062 1.28125 -4.78125 C 1.0625 -4.644531 0.882812 -4.453125 0.75 -4.203125 L 0.671875 -4.1875 L 0.28125 -4.59375 C 0.46875 -4.894531 0.710938 -5.128906 1.015625 -5.296875 C 1.316406 -5.472656 1.664062 -5.5625 2.0625 -5.5625 C 2.457031 -5.5625 2.78125 -5.492188 3.03125 -5.359375 C 3.289062 -5.222656 3.476562 -5.035156 3.59375 -4.796875 C 3.71875 -4.566406 3.78125 -4.300781 3.78125 -4 C 3.78125 -3.75 3.726562 -3.519531 3.625 -3.3125 C 3.53125 -3.101562 3.390625 -2.90625 3.203125 -2.71875 C 3.015625 -2.53125 2.78125 -2.332031 2.5 -2.125 L 1.890625 -1.671875 C 1.660156 -1.503906 1.484375 -1.363281 1.359375 -1.25 C 1.234375 -1.132812 1.140625 -1.019531 1.078125 -0.90625 C 1.023438 -0.789062 1 -0.664062 1 -0.53125 L 3.78125 -0.53125 L 3.78125 0 L 0.328125 0 Z M 0.328125 -0.25 "/></g></g></g><g clip-path="url(#232fd4cd46)"><path fill="#0cbe46" d="M 790.898438 90.019531 L 816.671875 90.019531 L 816.671875 136.128906 L 790.898438 136.128906 Z M 790.898438 90.019531 " fill-opacity="1" fill-rule="nonzero"/></g><g fill="#000000" fill-opacity="1"><g transform="translate(799.237576, 115.933665)"><g><path d="M 2.171875 0.078125 C 1.640625 0.078125 1.21875 -0.0390625 0.90625 -0.28125 C 0.59375 -0.519531 0.390625 -0.851562 0.296875 -1.28125 L 0.78125 -1.5 L 0.859375 -1.484375 C 0.953125 -1.148438 1.097656 -0.898438 1.296875 -0.734375 C 1.492188 -0.578125 1.785156 -0.5 2.171875 -0.5 C 2.554688 -0.5 2.847656 -0.585938 3.046875 -0.765625 C 3.253906 -0.941406 3.359375 -1.203125 3.359375 -1.546875 C 3.359375 -1.890625 3.253906 -2.148438 3.046875 -2.328125 C 2.835938 -2.503906 2.515625 -2.59375 2.078125 -2.59375 L 1.484375 -2.59375 L 1.484375 -3.125 L 2.015625 -3.125 C 2.359375 -3.125 2.628906 -3.207031 2.828125 -3.375 C 3.035156 -3.550781 3.140625 -3.796875 3.140625 -4.109375 C 3.140625 -4.398438 3.050781 -4.617188 2.875 -4.765625 C 2.695312 -4.921875 2.453125 -5 2.140625 -5 C 1.585938 -5 1.191406 -4.773438 0.953125 -4.328125 L 0.875 -4.3125 L 0.515625 -4.71875 C 0.660156 -4.96875 0.867188 -5.171875 1.140625 -5.328125 C 1.421875 -5.484375 1.753906 -5.5625 2.140625 -5.5625 C 2.484375 -5.5625 2.773438 -5.503906 3.015625 -5.390625 C 3.265625 -5.285156 3.453125 -5.128906 3.578125 -4.921875 C 3.710938 -4.710938 3.78125 -4.46875 3.78125 -4.1875 C 3.78125 -3.914062 3.703125 -3.675781 3.546875 -3.46875 C 3.390625 -3.269531 3.179688 -3.113281 2.921875 -3 L 2.921875 -2.921875 C 3.285156 -2.828125 3.554688 -2.660156 3.734375 -2.421875 C 3.921875 -2.191406 4.015625 -1.898438 4.015625 -1.546875 C 4.015625 -1.023438 3.859375 -0.625 3.546875 -0.34375 C 3.242188 -0.0625 2.785156 0.078125 2.171875 0.078125 Z M 2.171875 0.078125 "/></g></g><g transform="translate(803.691256, 115.933665)"><g><path d="M 2.3125 0.078125 C 1.914062 0.078125 1.570312 0.015625 1.28125 -0.109375 C 1 -0.242188 0.785156 -0.425781 0.640625 -0.65625 C 0.492188 -0.894531 0.421875 -1.179688 0.421875 -1.515625 C 0.421875 -1.859375 0.503906 -2.144531 0.671875 -2.375 C 0.847656 -2.613281 1.109375 -2.796875 1.453125 -2.921875 L 1.453125 -3 C 1.210938 -3.144531 1.023438 -3.3125 0.890625 -3.5 C 0.765625 -3.6875 0.703125 -3.910156 0.703125 -4.171875 C 0.703125 -4.453125 0.765625 -4.695312 0.890625 -4.90625 C 1.023438 -5.113281 1.210938 -5.273438 1.453125 -5.390625 C 1.703125 -5.503906 1.988281 -5.5625 2.3125 -5.5625 C 2.632812 -5.5625 2.914062 -5.503906 3.15625 -5.390625 C 3.40625 -5.273438 3.59375 -5.113281 3.71875 -4.90625 C 3.851562 -4.695312 3.921875 -4.453125 3.921875 -4.171875 C 3.921875 -3.910156 3.859375 -3.6875 3.734375 -3.5 C 3.609375 -3.3125 3.425781 -3.144531 3.1875 -3 L 3.1875 -2.921875 C 3.519531 -2.796875 3.769531 -2.613281 3.9375 -2.375 C 4.113281 -2.144531 4.203125 -1.859375 4.203125 -1.515625 C 4.203125 -1.179688 4.128906 -0.894531 3.984375 -0.65625 C 3.835938 -0.425781 3.625 -0.242188 3.34375 -0.109375 C 3.0625 0.015625 2.71875 0.078125 2.3125 0.078125 Z M 2.3125 -3.171875 C 2.507812 -3.171875 2.679688 -3.207031 2.828125 -3.28125 C 2.972656 -3.351562 3.085938 -3.457031 3.171875 -3.59375 C 3.253906 -3.738281 3.296875 -3.90625 3.296875 -4.09375 C 3.296875 -4.28125 3.253906 -4.441406 3.171875 -4.578125 C 3.085938 -4.722656 2.972656 -4.832031 2.828125 -4.90625 C 2.679688 -4.976562 2.507812 -5.015625 2.3125 -5.015625 C 2.007812 -5.015625 1.769531 -4.929688 1.59375 -4.765625 C 1.414062 -4.609375 1.328125 -4.382812 1.328125 -4.09375 C 1.328125 -3.8125 1.414062 -3.585938 1.59375 -3.421875 C 1.769531 -3.253906 2.007812 -3.171875 2.3125 -3.171875 Z M 2.3125 -0.484375 C 2.707031 -0.484375 3.007812 -0.578125 3.21875 -0.765625 C 3.425781 -0.953125 3.53125 -1.210938 3.53125 -1.546875 C 3.53125 -1.878906 3.425781 -2.140625 3.21875 -2.328125 C 3.007812 -2.515625 2.707031 -2.609375 2.3125 -2.609375 C 1.914062 -2.609375 1.613281 -2.515625 1.40625 -2.328125 C 1.195312 -2.140625 1.09375 -1.878906 1.09375 -1.546875 C 1.09375 -1.210938 1.195312 -0.953125 1.40625 -0.765625 C 1.613281 -0.578125 1.914062 -0.484375 2.3125 -0.484375 Z M 2.3125 -0.484375 "/></g></g></g><g clip-path="url(#ff26cdf761)"><path fill="#0cbe46" d="M 825.261719 90.019531 L 851.035156 90.019531 L 851.035156 136.128906 L 825.261719 136.128906 Z M 825.261719 90.019531 " fill-opacity="1" fill-rule="nonzero"/></g><g fill="#000000" fill-opacity="1"><g transform="translate(833.44945, 115.933665)"><g><path d="M 2.171875 0.078125 C 1.640625 0.078125 1.21875 -0.0390625 0.90625 -0.28125 C 0.59375 -0.519531 0.390625 -0.851562 0.296875 -1.28125 L 0.78125 -1.5 L 0.859375 -1.484375 C 0.953125 -1.148438 1.097656 -0.898438 1.296875 -0.734375 C 1.492188 -0.578125 1.785156 -0.5 2.171875 -0.5 C 2.554688 -0.5 2.847656 -0.585938 3.046875 -0.765625 C 3.253906 -0.941406 3.359375 -1.203125 3.359375 -1.546875 C 3.359375 -1.890625 3.253906 -2.148438 3.046875 -2.328125 C 2.835938 -2.503906 2.515625 -2.59375 2.078125 -2.59375 L 1.484375 -2.59375 L 1.484375 -3.125 L 2.015625 -3.125 C 2.359375 -3.125 2.628906 -3.207031 2.828125 -3.375 C 3.035156 -3.550781 3.140625 -3.796875 3.140625 -4.109375 C 3.140625 -4.398438 3.050781 -4.617188 2.875 -4.765625 C 2.695312 -4.921875 2.453125 -5 2.140625 -5 C 1.585938 -5 1.191406 -4.773438 0.953125 -4.328125 L 0.875 -4.3125 L 0.515625 -4.71875 C 0.660156 -4.96875 0.867188 -5.171875 1.140625 -5.328125 C 1.421875 -5.484375 1.753906 -5.5625 2.140625 -5.5625 C 2.484375 -5.5625 2.773438 -5.503906 3.015625 -5.390625 C 3.265625 -5.285156 3.453125 -5.128906 3.578125 -4.921875 C 3.710938 -4.710938 3.78125 -4.46875 3.78125 -4.1875 C 3.78125 -3.914062 3.703125 -3.675781 3.546875 -3.46875 C 3.390625 -3.269531 3.179688 -3.113281 2.921875 -3 L 2.921875 -2.921875 C 3.285156 -2.828125 3.554688 -2.660156 3.734375 -2.421875 C 3.921875 -2.191406 4.015625 -1.898438 4.015625 -1.546875 C 4.015625 -1.023438 3.859375 -0.625 3.546875 -0.34375 C 3.242188 -0.0625 2.785156 0.078125 2.171875 0.078125 Z M 2.171875 0.078125 "/></g></g><g transform="translate(837.903131, 115.933665)"><g><path d="M 2.3125 0.078125 C 1.84375 0.078125 1.457031 -0.0234375 1.15625 -0.234375 C 0.863281 -0.453125 0.675781 -0.753906 0.59375 -1.140625 L 1.078125 -1.359375 L 1.15625 -1.34375 C 1.238281 -1.0625 1.367188 -0.847656 1.546875 -0.703125 C 1.734375 -0.566406 1.988281 -0.5 2.3125 -0.5 C 2.769531 -0.5 3.117188 -0.6875 3.359375 -1.0625 C 3.597656 -1.445312 3.71875 -2.035156 3.71875 -2.828125 L 3.640625 -2.859375 C 3.484375 -2.546875 3.285156 -2.3125 3.046875 -2.15625 C 2.816406 -2 2.523438 -1.921875 2.171875 -1.921875 C 1.828125 -1.921875 1.523438 -1.992188 1.265625 -2.140625 C 1.015625 -2.296875 0.820312 -2.507812 0.6875 -2.78125 C 0.550781 -3.050781 0.484375 -3.367188 0.484375 -3.734375 C 0.484375 -4.097656 0.554688 -4.414062 0.703125 -4.6875 C 0.859375 -4.96875 1.070312 -5.179688 1.34375 -5.328125 C 1.625 -5.484375 1.945312 -5.5625 2.3125 -5.5625 C 2.957031 -5.5625 3.460938 -5.34375 3.828125 -4.90625 C 4.191406 -4.46875 4.375 -3.765625 4.375 -2.796875 C 4.375 -2.148438 4.285156 -1.609375 4.109375 -1.171875 C 3.929688 -0.742188 3.691406 -0.425781 3.390625 -0.21875 C 3.085938 -0.0195312 2.726562 0.078125 2.3125 0.078125 Z M 2.3125 -2.484375 C 2.5625 -2.484375 2.773438 -2.53125 2.953125 -2.625 C 3.140625 -2.726562 3.28125 -2.875 3.375 -3.0625 C 3.476562 -3.25 3.53125 -3.472656 3.53125 -3.734375 C 3.53125 -3.992188 3.476562 -4.21875 3.375 -4.40625 C 3.28125 -4.59375 3.140625 -4.734375 2.953125 -4.828125 C 2.773438 -4.929688 2.5625 -4.984375 2.3125 -4.984375 C 1.945312 -4.984375 1.660156 -4.875 1.453125 -4.65625 C 1.253906 -4.445312 1.15625 -4.140625 1.15625 -3.734375 C 1.15625 -3.328125 1.253906 -3.015625 1.453125 -2.796875 C 1.660156 -2.585938 1.945312 -2.484375 2.3125 -2.484375 Z M 2.3125 -2.484375 "/></g></g></g><g clip-path="url(#bb2644ad9b)"><path fill="#0cbe46" d="M 859.625 90.019531 L 885.394531 90.019531 L 885.394531 136.128906 L 859.625 136.128906 Z M 859.625 90.019531 " fill-opacity="1" fill-rule="nonzero"/></g><g fill="#000000" fill-opacity="1"><g transform="translate(867.488876, 115.933665)"><g><path d="M 3.421875 0 L 2.8125 0 L 2.8125 -1.3125 L 0.25 -1.3125 L 0.25 -1.828125 L 2.671875 -5.484375 L 3.421875 -5.484375 L 3.421875 -1.828125 L 4.375 -1.828125 L 4.375 -1.3125 L 3.421875 -1.3125 Z M 1 -1.90625 L 1.046875 -1.828125 L 2.8125 -1.828125 L 2.8125 -4.578125 L 2.734375 -4.59375 Z M 1 -1.90625 "/></g></g><g transform="translate(872.13375, 115.933665)"><g><path d="M 2.6875 0.078125 C 2.289062 0.078125 1.929688 -0.015625 1.609375 -0.203125 C 1.285156 -0.398438 1.03125 -0.707031 0.84375 -1.125 C 0.65625 -1.550781 0.5625 -2.085938 0.5625 -2.734375 C 0.5625 -3.390625 0.65625 -3.925781 0.84375 -4.34375 C 1.03125 -4.757812 1.285156 -5.066406 1.609375 -5.265625 C 1.929688 -5.460938 2.289062 -5.5625 2.6875 -5.5625 C 3.09375 -5.5625 3.453125 -5.460938 3.765625 -5.265625 C 4.085938 -5.066406 4.34375 -4.757812 4.53125 -4.34375 C 4.726562 -3.925781 4.828125 -3.390625 4.828125 -2.734375 C 4.828125 -2.085938 4.726562 -1.550781 4.53125 -1.125 C 4.34375 -0.707031 4.085938 -0.398438 3.765625 -0.203125 C 3.453125 -0.015625 3.09375 0.078125 2.6875 0.078125 Z M 2.6875 -0.515625 C 3.164062 -0.515625 3.523438 -0.6875 3.765625 -1.03125 C 4.015625 -1.375 4.140625 -1.941406 4.140625 -2.734375 C 4.140625 -3.523438 4.015625 -4.09375 3.765625 -4.4375 C 3.523438 -4.78125 3.164062 -4.953125 2.6875 -4.953125 C 2.375 -4.953125 2.109375 -4.878906 1.890625 -4.734375 C 1.679688 -4.597656 1.519531 -4.363281 1.40625 -4.03125 C 1.289062 -3.707031 1.234375 -3.273438 1.234375 -2.734375 C 1.234375 -2.203125 1.289062 -1.769531 1.40625 -1.4375 C 1.519531 -1.113281 1.679688 -0.878906 1.890625 -0.734375 C 2.109375 -0.585938 2.375 -0.515625 2.6875 -0.515625 Z M 2.6875 -0.515625 "/></g></g></g><g clip-path="url(#0b28ee8d71)"><path fill="#ffffff" d="M 895.394531 174.476562 L 895.394531 750.523438 L 780.898438 750.523438 L 780.898438 174.476562 Z M 895.394531 174.476562 " fill-opacity="1" fill-rule="nonzero"/></g><g clip-path="url(#4336ff1576)"><path stroke-linecap="butt" transform="matrix(0, 0.479858, -0.479858, 0, 895.393209, 174.482781)" fill="none" stroke-linejoin="miter" d="M 0.00332219 -0.00275514 L 1199.968247 -0.00275514 L 1199.968247 238.593332 L 0.00332219 238.593332 Z M 0.00332219 -0.00275514 " stroke="#0cbe46" stroke-width="8" stroke-opacity="1" stroke-miterlimit="4"/></g><g clip-path="url(#ef55dfb7e6)"><path fill="#0cbe46" d="M 809.523438 190.617188 L 866.746094 190.617188 L 866.746094 236.683594 L 809.523438 236.683594 Z M 809.523438 190.617188 " fill-opacity="1" fill-rule="nonzero"/></g><g fill="#000000" fill-opacity="1"><g transform="translate(833.831866, 216.531072)"><g><path d="M 2.25 0.078125 C 1.738281 0.078125 1.328125 -0.0351562 1.015625 -0.265625 C 0.710938 -0.492188 0.519531 -0.816406 0.4375 -1.234375 L 0.90625 -1.453125 L 1 -1.4375 C 1.0625 -1.21875 1.140625 -1.039062 1.234375 -0.90625 C 1.335938 -0.769531 1.472656 -0.664062 1.640625 -0.59375 C 1.804688 -0.53125 2.007812 -0.5 2.25 -0.5 C 2.625 -0.5 2.910156 -0.609375 3.109375 -0.828125 C 3.316406 -1.054688 3.421875 -1.378906 3.421875 -1.796875 C 3.421875 -2.222656 3.320312 -2.546875 3.125 -2.765625 C 2.925781 -2.992188 2.644531 -3.109375 2.28125 -3.109375 C 2.007812 -3.109375 1.789062 -3.050781 1.625 -2.9375 C 1.457031 -2.832031 1.304688 -2.664062 1.171875 -2.4375 L 0.65625 -2.484375 L 0.765625 -5.484375 L 3.828125 -5.484375 L 3.828125 -4.9375 L 1.328125 -4.9375 L 1.265625 -3.109375 L 1.34375 -3.09375 C 1.46875 -3.28125 1.625 -3.421875 1.8125 -3.515625 C 2 -3.609375 2.222656 -3.65625 2.484375 -3.65625 C 2.804688 -3.65625 3.085938 -3.582031 3.328125 -3.4375 C 3.578125 -3.289062 3.769531 -3.078125 3.90625 -2.796875 C 4.039062 -2.523438 4.109375 -2.191406 4.109375 -1.796875 C 4.109375 -1.410156 4.03125 -1.070312 3.875 -0.78125 C 3.71875 -0.5 3.5 -0.285156 3.21875 -0.140625 C 2.945312 0.00390625 2.625 0.078125 2.25 0.078125 Z M 2.25 0.078125 "/></g></g><g transform="translate(838.368022, 216.531072)"><g><path d="M 0.390625 0 L 0.390625 -0.53125 L 1.890625 -0.53125 L 1.890625 -4.71875 L 1.796875 -4.75 C 1.554688 -4.625 1.34375 -4.53125 1.15625 -4.46875 C 0.976562 -4.40625 0.742188 -4.34375 0.453125 -4.28125 L 0.453125 -4.875 C 0.742188 -4.9375 1.023438 -5.015625 1.296875 -5.109375 C 1.578125 -5.210938 1.828125 -5.335938 2.046875 -5.484375 L 2.515625 -5.484375 L 2.515625 -0.53125 L 3.84375 -0.53125 L 3.84375 0 Z M 0.390625 0 "/></g></g></g><g clip-path="url(#131fd28289)"><path fill="#0cbe46" d="M 809.523438 524.90625 L 866.746094 524.90625 L 866.746094 570.972656 L 809.523438 570.972656 Z M 809.523438 524.90625 " fill-opacity="1" fill-rule="nonzero"/></g><g fill="#000000" fill-opacity="1"><g transform="translate(833.981822, 550.819219)"><g><path d="M 2.25 0.078125 C 1.738281 0.078125 1.328125 -0.0351562 1.015625 -0.265625 C 0.710938 -0.492188 0.519531 -0.816406 0.4375 -1.234375 L 0.90625 -1.453125 L 1 -1.4375 C 1.0625 -1.21875 1.140625 -1.039062 1.234375 -0.90625 C 1.335938 -0.769531 1.472656 -0.664062 1.640625 -0.59375 C 1.804688 -0.53125 2.007812 -0.5 2.25 -0.5 C 2.625 -0.5 2.910156 -0.609375 3.109375 -0.828125 C 3.316406 -1.054688 3.421875 -1.378906 3.421875 -1.796875 C 3.421875 -2.222656 3.320312 -2.546875 3.125 -2.765625 C 2.925781 -2.992188 2.644531 -3.109375 2.28125 -3.109375 C 2.007812 -3.109375 1.789062 -3.050781 1.625 -2.9375 C 1.457031 -2.832031 1.304688 -2.664062 1.171875 -2.4375 L 0.65625 -2.484375 L 0.765625 -5.484375 L 3.828125 -5.484375 L 3.828125 -4.9375 L 1.328125 -4.9375 L 1.265625 -3.109375 L 1.34375 -3.09375 C 1.46875 -3.28125 1.625 -3.421875 1.8125 -3.515625 C 2 -3.609375 2.222656 -3.65625 2.484375 -3.65625 C 2.804688 -3.65625 3.085938 -3.582031 3.328125 -3.4375 C 3.578125 -3.289062 3.769531 -3.078125 3.90625 -2.796875 C 4.039062 -2.523438 4.109375 -2.191406 4.109375 -1.796875 C 4.109375 -1.410156 4.03125 -1.070312 3.875 -0.78125 C 3.71875 -0.5 3.5 -0.285156 3.21875 -0.140625 C 2.945312 0.00390625 2.625 0.078125 2.25 0.078125 Z M 2.25 0.078125 "/></g></g><g transform="translate(838.517977, 550.819219)"><g><path d="M 1.484375 0 L 0.859375 0 L 2.890625 -4.84375 L 2.875 -4.9375 L 0.203125 -4.9375 L 0.203125 -5.484375 L 3.546875 -5.484375 L 3.546875 -4.890625 Z M 1.484375 0 "/></g></g></g><g clip-path="url(#406b58b0b0)"><path fill="#0cbe46" d="M 809.523438 469.242188 L 866.746094 469.242188 L 866.746094 515.308594 L 809.523438 515.308594 Z M 809.523438 469.242188 " fill-opacity="1" fill-rule="nonzero"/></g><g fill="#000000" fill-opacity="1"><g transform="translate(833.404493, 495.15571)"><g><path d="M 2.25 0.078125 C 1.738281 0.078125 1.328125 -0.0351562 1.015625 -0.265625 C 0.710938 -0.492188 0.519531 -0.816406 0.4375 -1.234375 L 0.90625 -1.453125 L 1 -1.4375 C 1.0625 -1.21875 1.140625 -1.039062 1.234375 -0.90625 C 1.335938 -0.769531 1.472656 -0.664062 1.640625 -0.59375 C 1.804688 -0.53125 2.007812 -0.5 2.25 -0.5 C 2.625 -0.5 2.910156 -0.609375 3.109375 -0.828125 C 3.316406 -1.054688 3.421875 -1.378906 3.421875 -1.796875 C 3.421875 -2.222656 3.320312 -2.546875 3.125 -2.765625 C 2.925781 -2.992188 2.644531 -3.109375 2.28125 -3.109375 C 2.007812 -3.109375 1.789062 -3.050781 1.625 -2.9375 C 1.457031 -2.832031 1.304688 -2.664062 1.171875 -2.4375 L 0.65625 -2.484375 L 0.765625 -5.484375 L 3.828125 -5.484375 L 3.828125 -4.9375 L 1.328125 -4.9375 L 1.265625 -3.109375 L 1.34375 -3.09375 C 1.46875 -3.28125 1.625 -3.421875 1.8125 -3.515625 C 2 -3.609375 2.222656 -3.65625 2.484375 -3.65625 C 2.804688 -3.65625 3.085938 -3.582031 3.328125 -3.4375 C 3.578125 -3.289062 3.769531 -3.078125 3.90625 -2.796875 C 4.039062 -2.523438 4.109375 -2.191406 4.109375 -1.796875 C 4.109375 -1.410156 4.03125 -1.070312 3.875 -0.78125 C 3.71875 -0.5 3.5 -0.285156 3.21875 -0.140625 C 2.945312 0.00390625 2.625 0.078125 2.25 0.078125 Z M 2.25 0.078125 "/></g></g><g transform="translate(837.940649, 495.15571)"><g><path d="M 2.609375 0.078125 C 2.222656 0.078125 1.875 -0.015625 1.5625 -0.203125 C 1.257812 -0.390625 1.015625 -0.691406 0.828125 -1.109375 C 0.648438 -1.523438 0.5625 -2.066406 0.5625 -2.734375 C 0.5625 -3.378906 0.648438 -3.910156 0.828125 -4.328125 C 1.015625 -4.753906 1.265625 -5.066406 1.578125 -5.265625 C 1.898438 -5.460938 2.265625 -5.5625 2.671875 -5.5625 C 3.378906 -5.5625 3.894531 -5.347656 4.21875 -4.921875 L 3.90625 -4.484375 L 3.8125 -4.484375 C 3.539062 -4.816406 3.160156 -4.984375 2.671875 -4.984375 C 2.203125 -4.984375 1.84375 -4.800781 1.59375 -4.4375 C 1.34375 -4.082031 1.21875 -3.507812 1.21875 -2.71875 L 1.296875 -2.703125 C 1.441406 -3.015625 1.632812 -3.242188 1.875 -3.390625 C 2.113281 -3.546875 2.410156 -3.625 2.765625 -3.625 C 3.109375 -3.625 3.40625 -3.550781 3.65625 -3.40625 C 3.914062 -3.257812 4.113281 -3.046875 4.25 -2.765625 C 4.382812 -2.492188 4.453125 -2.164062 4.453125 -1.78125 C 4.453125 -1.40625 4.375 -1.078125 4.21875 -0.796875 C 4.070312 -0.515625 3.859375 -0.296875 3.578125 -0.140625 C 3.304688 0.00390625 2.984375 0.078125 2.609375 0.078125 Z M 2.609375 -0.5 C 2.972656 -0.5 3.253906 -0.609375 3.453125 -0.828125 C 3.660156 -1.046875 3.765625 -1.363281 3.765625 -1.78125 C 3.765625 -2.195312 3.660156 -2.515625 3.453125 -2.734375 C 3.253906 -2.953125 2.972656 -3.0625 2.609375 -3.0625 C 2.367188 -3.0625 2.15625 -3.007812 1.96875 -2.90625 C 1.789062 -2.8125 1.648438 -2.664062 1.546875 -2.46875 C 1.453125 -2.28125 1.40625 -2.050781 1.40625 -1.78125 C 1.40625 -1.507812 1.453125 -1.28125 1.546875 -1.09375 C 1.648438 -0.90625 1.789062 -0.757812 1.96875 -0.65625 C 2.15625 -0.550781 2.367188 -0.5 2.609375 -0.5 Z M 2.609375 -0.5 "/></g></g></g><g clip-path="url(#ce36c37754)"><path fill="#0cbe46" d="M 809.523438 413.578125 L 866.746094 413.578125 L 866.746094 459.644531 L 809.523438 459.644531 Z M 809.523438 413.578125 " fill-opacity="1" fill-rule="nonzero"/></g><g fill="#000000" fill-opacity="1"><g transform="translate(833.606933, 439.492176)"><g><path d="M 2.25 0.078125 C 1.738281 0.078125 1.328125 -0.0351562 1.015625 -0.265625 C 0.710938 -0.492188 0.519531 -0.816406 0.4375 -1.234375 L 0.90625 -1.453125 L 1 -1.4375 C 1.0625 -1.21875 1.140625 -1.039062 1.234375 -0.90625 C 1.335938 -0.769531 1.472656 -0.664062 1.640625 -0.59375 C 1.804688 -0.53125 2.007812 -0.5 2.25 -0.5 C 2.625 -0.5 2.910156 -0.609375 3.109375 -0.828125 C 3.316406 -1.054688 3.421875 -1.378906 3.421875 -1.796875 C 3.421875 -2.222656 3.320312 -2.546875 3.125 -2.765625 C 2.925781 -2.992188 2.644531 -3.109375 2.28125 -3.109375 C 2.007812 -3.109375 1.789062 -3.050781 1.625 -2.9375 C 1.457031 -2.832031 1.304688 -2.664062 1.171875 -2.4375 L 0.65625 -2.484375 L 0.765625 -5.484375 L 3.828125 -5.484375 L 3.828125 -4.9375 L 1.328125 -4.9375 L 1.265625 -3.109375 L 1.34375 -3.09375 C 1.46875 -3.28125 1.625 -3.421875 1.8125 -3.515625 C 2 -3.609375 2.222656 -3.65625 2.484375 -3.65625 C 2.804688 -3.65625 3.085938 -3.582031 3.328125 -3.4375 C 3.578125 -3.289062 3.769531 -3.078125 3.90625 -2.796875 C 4.039062 -2.523438 4.109375 -2.191406 4.109375 -1.796875 C 4.109375 -1.410156 4.03125 -1.070312 3.875 -0.78125 C 3.71875 -0.5 3.5 -0.285156 3.21875 -0.140625 C 2.945312 0.00390625 2.625 0.078125 2.25 0.078125 Z M 2.25 0.078125 "/></g></g><g transform="translate(838.143089, 439.492176)"><g><path d="M 2.25 0.078125 C 1.738281 0.078125 1.328125 -0.0351562 1.015625 -0.265625 C 0.710938 -0.492188 0.519531 -0.816406 0.4375 -1.234375 L 0.90625 -1.453125 L 1 -1.4375 C 1.0625 -1.21875 1.140625 -1.039062 1.234375 -0.90625 C 1.335938 -0.769531 1.472656 -0.664062 1.640625 -0.59375 C 1.804688 -0.53125 2.007812 -0.5 2.25 -0.5 C 2.625 -0.5 2.910156 -0.609375 3.109375 -0.828125 C 3.316406 -1.054688 3.421875 -1.378906 3.421875 -1.796875 C 3.421875 -2.222656 3.320312 -2.546875 3.125 -2.765625 C 2.925781 -2.992188 2.644531 -3.109375 2.28125 -3.109375 C 2.007812 -3.109375 1.789062 -3.050781 1.625 -2.9375 C 1.457031 -2.832031 1.304688 -2.664062 1.171875 -2.4375 L 0.65625 -2.484375 L 0.765625 -5.484375 L 3.828125 -5.484375 L 3.828125 -4.9375 L 1.328125 -4.9375 L 1.265625 -3.109375 L 1.34375 -3.09375 C 1.46875 -3.28125 1.625 -3.421875 1.8125 -3.515625 C 2 -3.609375 2.222656 -3.65625 2.484375 -3.65625 C 2.804688 -3.65625 3.085938 -3.582031 3.328125 -3.4375 C 3.578125 -3.289062 3.769531 -3.078125 3.90625 -2.796875 C 4.039062 -2.523438 4.109375 -2.191406 4.109375 -1.796875 C 4.109375 -1.410156 4.03125 -1.070312 3.875 -0.78125 C 3.71875 -0.5 3.5 -0.285156 3.21875 -0.140625 C 2.945312 0.00390625 2.625 0.078125 2.25 0.078125 Z M 2.25 0.078125 "/></g></g></g><g clip-path="url(#04078c1097)"><path fill="#0cbe46" d="M 809.523438 357.917969 L 866.746094 357.917969 L 866.746094 403.984375 L 809.523438 403.984375 Z M 809.523438 357.917969 " fill-opacity="1" fill-rule="nonzero"/></g><g fill="#000000" fill-opacity="1"><g transform="translate(833.554448, 383.828672)"><g><path d="M 2.25 0.078125 C 1.738281 0.078125 1.328125 -0.0351562 1.015625 -0.265625 C 0.710938 -0.492188 0.519531 -0.816406 0.4375 -1.234375 L 0.90625 -1.453125 L 1 -1.4375 C 1.0625 -1.21875 1.140625 -1.039062 1.234375 -0.90625 C 1.335938 -0.769531 1.472656 -0.664062 1.640625 -0.59375 C 1.804688 -0.53125 2.007812 -0.5 2.25 -0.5 C 2.625 -0.5 2.910156 -0.609375 3.109375 -0.828125 C 3.316406 -1.054688 3.421875 -1.378906 3.421875 -1.796875 C 3.421875 -2.222656 3.320312 -2.546875 3.125 -2.765625 C 2.925781 -2.992188 2.644531 -3.109375 2.28125 -3.109375 C 2.007812 -3.109375 1.789062 -3.050781 1.625 -2.9375 C 1.457031 -2.832031 1.304688 -2.664062 1.171875 -2.4375 L 0.65625 -2.484375 L 0.765625 -5.484375 L 3.828125 -5.484375 L 3.828125 -4.9375 L 1.328125 -4.9375 L 1.265625 -3.109375 L 1.34375 -3.09375 C 1.46875 -3.28125 1.625 -3.421875 1.8125 -3.515625 C 2 -3.609375 2.222656 -3.65625 2.484375 -3.65625 C 2.804688 -3.65625 3.085938 -3.582031 3.328125 -3.4375 C 3.578125 -3.289062 3.769531 -3.078125 3.90625 -2.796875 C 4.039062 -2.523438 4.109375 -2.191406 4.109375 -1.796875 C 4.109375 -1.410156 4.03125 -1.070312 3.875 -0.78125 C 3.71875 -0.5 3.5 -0.285156 3.21875 -0.140625 C 2.945312 0.00390625 2.625 0.078125 2.25 0.078125 Z M 2.25 0.078125 "/></g></g><g transform="translate(838.090604, 383.828672)"><g><path d="M 3.421875 0 L 2.8125 0 L 2.8125 -1.3125 L 0.25 -1.3125 L 0.25 -1.828125 L 2.671875 -5.484375 L 3.421875 -5.484375 L 3.421875 -1.828125 L 4.375 -1.828125 L 4.375 -1.3125 L 3.421875 -1.3125 Z M 1 -1.90625 L 1.046875 -1.828125 L 2.8125 -1.828125 L 2.8125 -4.578125 L 2.734375 -4.59375 Z M 1 -1.90625 "/></g></g></g><g clip-path="url(#af1a7beba0)"><path fill="#0cbe46" d="M 809.523438 302.253906 L 866.746094 302.253906 L 866.746094 348.320312 L 809.523438 348.320312 Z M 809.523438 302.253906 " fill-opacity="1" fill-rule="nonzero"/></g><g fill="#000000" fill-opacity="1"><g transform="translate(833.651919, 328.165196)"><g><path d="M 2.25 0.078125 C 1.738281 0.078125 1.328125 -0.0351562 1.015625 -0.265625 C 0.710938 -0.492188 0.519531 -0.816406 0.4375 -1.234375 L 0.90625 -1.453125 L 1 -1.4375 C 1.0625 -1.21875 1.140625 -1.039062 1.234375 -0.90625 C 1.335938 -0.769531 1.472656 -0.664062 1.640625 -0.59375 C 1.804688 -0.53125 2.007812 -0.5 2.25 -0.5 C 2.625 -0.5 2.910156 -0.609375 3.109375 -0.828125 C 3.316406 -1.054688 3.421875 -1.378906 3.421875 -1.796875 C 3.421875 -2.222656 3.320312 -2.546875 3.125 -2.765625 C 2.925781 -2.992188 2.644531 -3.109375 2.28125 -3.109375 C 2.007812 -3.109375 1.789062 -3.050781 1.625 -2.9375 C 1.457031 -2.832031 1.304688 -2.664062 1.171875 -2.4375 L 0.65625 -2.484375 L 0.765625 -5.484375 L 3.828125 -5.484375 L 3.828125 -4.9375 L 1.328125 -4.9375 L 1.265625 -3.109375 L 1.34375 -3.09375 C 1.46875 -3.28125 1.625 -3.421875 1.8125 -3.515625 C 2 -3.609375 2.222656 -3.65625 2.484375 -3.65625 C 2.804688 -3.65625 3.085938 -3.582031 3.328125 -3.4375 C 3.578125 -3.289062 3.769531 -3.078125 3.90625 -2.796875 C 4.039062 -2.523438 4.109375 -2.191406 4.109375 -1.796875 C 4.109375 -1.410156 4.03125 -1.070312 3.875 -0.78125 C 3.71875 -0.5 3.5 -0.285156 3.21875 -0.140625 C 2.945312 0.00390625 2.625 0.078125 2.25 0.078125 Z M 2.25 0.078125 "/></g></g><g transform="translate(838.188075, 328.165196)"><g><path d="M 2.171875 0.078125 C 1.640625 0.078125 1.21875 -0.0390625 0.90625 -0.28125 C 0.59375 -0.519531 0.390625 -0.851562 0.296875 -1.28125 L 0.78125 -1.5 L 0.859375 -1.484375 C 0.953125 -1.148438 1.097656 -0.898438 1.296875 -0.734375 C 1.492188 -0.578125 1.785156 -0.5 2.171875 -0.5 C 2.554688 -0.5 2.847656 -0.585938 3.046875 -0.765625 C 3.253906 -0.941406 3.359375 -1.203125 3.359375 -1.546875 C 3.359375 -1.890625 3.253906 -2.148438 3.046875 -2.328125 C 2.835938 -2.503906 2.515625 -2.59375 2.078125 -2.59375 L 1.484375 -2.59375 L 1.484375 -3.125 L 2.015625 -3.125 C 2.359375 -3.125 2.628906 -3.207031 2.828125 -3.375 C 3.035156 -3.550781 3.140625 -3.796875 3.140625 -4.109375 C 3.140625 -4.398438 3.050781 -4.617188 2.875 -4.765625 C 2.695312 -4.921875 2.453125 -5 2.140625 -5 C 1.585938 -5 1.191406 -4.773438 0.953125 -4.328125 L 0.875 -4.3125 L 0.515625 -4.71875 C 0.660156 -4.96875 0.867188 -5.171875 1.140625 -5.328125 C 1.421875 -5.484375 1.753906 -5.5625 2.140625 -5.5625 C 2.484375 -5.5625 2.773438 -5.503906 3.015625 -5.390625 C 3.265625 -5.285156 3.453125 -5.128906 3.578125 -4.921875 C 3.710938 -4.710938 3.78125 -4.46875 3.78125 -4.1875 C 3.78125 -3.914062 3.703125 -3.675781 3.546875 -3.46875 C 3.390625 -3.269531 3.179688 -3.113281 2.921875 -3 L 2.921875 -2.921875 C 3.285156 -2.828125 3.554688 -2.660156 3.734375 -2.421875 C 3.921875 -2.191406 4.015625 -1.898438 4.015625 -1.546875 C 4.015625 -1.023438 3.859375 -0.625 3.546875 -0.34375 C 3.242188 -0.0625 2.785156 0.078125 2.171875 0.078125 Z M 2.171875 0.078125 "/></g></g></g><g clip-path="url(#f8f8736207)"><path fill="#0cbe46" d="M 809.523438 246.4375 L 866.746094 246.4375 L 866.746094 292.503906 L 809.523438 292.503906 Z M 809.523438 246.4375 " fill-opacity="1" fill-rule="nonzero"/></g><g fill="#000000" fill-opacity="1"><g transform="translate(833.771884, 272.348121)"><g><path d="M 2.25 0.078125 C 1.738281 0.078125 1.328125 -0.0351562 1.015625 -0.265625 C 0.710938 -0.492188 0.519531 -0.816406 0.4375 -1.234375 L 0.90625 -1.453125 L 1 -1.4375 C 1.0625 -1.21875 1.140625 -1.039062 1.234375 -0.90625 C 1.335938 -0.769531 1.472656 -0.664062 1.640625 -0.59375 C 1.804688 -0.53125 2.007812 -0.5 2.25 -0.5 C 2.625 -0.5 2.910156 -0.609375 3.109375 -0.828125 C 3.316406 -1.054688 3.421875 -1.378906 3.421875 -1.796875 C 3.421875 -2.222656 3.320312 -2.546875 3.125 -2.765625 C 2.925781 -2.992188 2.644531 -3.109375 2.28125 -3.109375 C 2.007812 -3.109375 1.789062 -3.050781 1.625 -2.9375 C 1.457031 -2.832031 1.304688 -2.664062 1.171875 -2.4375 L 0.65625 -2.484375 L 0.765625 -5.484375 L 3.828125 -5.484375 L 3.828125 -4.9375 L 1.328125 -4.9375 L 1.265625 -3.109375 L 1.34375 -3.09375 C 1.46875 -3.28125 1.625 -3.421875 1.8125 -3.515625 C 2 -3.609375 2.222656 -3.65625 2.484375 -3.65625 C 2.804688 -3.65625 3.085938 -3.582031 3.328125 -3.4375 C 3.578125 -3.289062 3.769531 -3.078125 3.90625 -2.796875 C 4.039062 -2.523438 4.109375 -2.191406 4.109375 -1.796875 C 4.109375 -1.410156 4.03125 -1.070312 3.875 -0.78125 C 3.71875 -0.5 3.5 -0.285156 3.21875 -0.140625 C 2.945312 0.00390625 2.625 0.078125 2.25 0.078125 Z M 2.25 0.078125 "/></g></g><g transform="translate(838.30804, 272.348121)"><g><path d="M 0.328125 -0.25 C 0.328125 -0.550781 0.359375 -0.796875 0.421875 -0.984375 C 0.492188 -1.171875 0.609375 -1.34375 0.765625 -1.5 C 0.921875 -1.65625 1.175781 -1.863281 1.53125 -2.125 L 2.140625 -2.5625 C 2.359375 -2.71875 2.535156 -2.863281 2.671875 -3 C 2.816406 -3.144531 2.925781 -3.296875 3 -3.453125 C 3.082031 -3.617188 3.125 -3.800781 3.125 -4 C 3.125 -4.320312 3.035156 -4.566406 2.859375 -4.734375 C 2.691406 -4.898438 2.425781 -4.984375 2.0625 -4.984375 C 1.769531 -4.984375 1.507812 -4.914062 1.28125 -4.78125 C 1.0625 -4.644531 0.882812 -4.453125 0.75 -4.203125 L 0.671875 -4.1875 L 0.28125 -4.59375 C 0.46875 -4.894531 0.710938 -5.128906 1.015625 -5.296875 C 1.316406 -5.472656 1.664062 -5.5625 2.0625 -5.5625 C 2.457031 -5.5625 2.78125 -5.492188 3.03125 -5.359375 C 3.289062 -5.222656 3.476562 -5.035156 3.59375 -4.796875 C 3.71875 -4.566406 3.78125 -4.300781 3.78125 -4 C 3.78125 -3.75 3.726562 -3.519531 3.625 -3.3125 C 3.53125 -3.101562 3.390625 -2.90625 3.203125 -2.71875 C 3.015625 -2.53125 2.78125 -2.332031 2.5 -2.125 L 1.890625 -1.671875 C 1.660156 -1.503906 1.484375 -1.363281 1.359375 -1.25 C 1.234375 -1.132812 1.140625 -1.019531 1.078125 -0.90625 C 1.023438 -0.789062 1 -0.664062 1 -0.53125 L 3.78125 -0.53125 L 3.78125 0 L 0.328125 0 Z M 0.328125 -0.25 "/></g></g></g><g clip-path="url(#7721929e10)"><path fill="#0cbe46" d="M 809.523438 580.570312 L 866.746094 580.570312 L 866.746094 626.636719 L 809.523438 626.636719 Z M 809.523438 580.570312 " fill-opacity="1" fill-rule="nonzero"/></g><g fill="#000000" fill-opacity="1"><g transform="translate(833.554448, 606.482752)"><g><path d="M 2.25 0.078125 C 1.738281 0.078125 1.328125 -0.0351562 1.015625 -0.265625 C 0.710938 -0.492188 0.519531 -0.816406 0.4375 -1.234375 L 0.90625 -1.453125 L 1 -1.4375 C 1.0625 -1.21875 1.140625 -1.039062 1.234375 -0.90625 C 1.335938 -0.769531 1.472656 -0.664062 1.640625 -0.59375 C 1.804688 -0.53125 2.007812 -0.5 2.25 -0.5 C 2.625 -0.5 2.910156 -0.609375 3.109375 -0.828125 C 3.316406 -1.054688 3.421875 -1.378906 3.421875 -1.796875 C 3.421875 -2.222656 3.320312 -2.546875 3.125 -2.765625 C 2.925781 -2.992188 2.644531 -3.109375 2.28125 -3.109375 C 2.007812 -3.109375 1.789062 -3.050781 1.625 -2.9375 C 1.457031 -2.832031 1.304688 -2.664062 1.171875 -2.4375 L 0.65625 -2.484375 L 0.765625 -5.484375 L 3.828125 -5.484375 L 3.828125 -4.9375 L 1.328125 -4.9375 L 1.265625 -3.109375 L 1.34375 -3.09375 C 1.46875 -3.28125 1.625 -3.421875 1.8125 -3.515625 C 2 -3.609375 2.222656 -3.65625 2.484375 -3.65625 C 2.804688 -3.65625 3.085938 -3.582031 3.328125 -3.4375 C 3.578125 -3.289062 3.769531 -3.078125 3.90625 -2.796875 C 4.039062 -2.523438 4.109375 -2.191406 4.109375 -1.796875 C 4.109375 -1.410156 4.03125 -1.070312 3.875 -0.78125 C 3.71875 -0.5 3.5 -0.285156 3.21875 -0.140625 C 2.945312 0.00390625 2.625 0.078125 2.25 0.078125 Z M 2.25 0.078125 "/></g></g><g transform="translate(838.090604, 606.482752)"><g><path d="M 2.3125 0.078125 C 1.914062 0.078125 1.570312 0.015625 1.28125 -0.109375 C 1 -0.242188 0.785156 -0.425781 0.640625 -0.65625 C 0.492188 -0.894531 0.421875 -1.179688 0.421875 -1.515625 C 0.421875 -1.859375 0.503906 -2.144531 0.671875 -2.375 C 0.847656 -2.613281 1.109375 -2.796875 1.453125 -2.921875 L 1.453125 -3 C 1.210938 -3.144531 1.023438 -3.3125 0.890625 -3.5 C 0.765625 -3.6875 0.703125 -3.910156 0.703125 -4.171875 C 0.703125 -4.453125 0.765625 -4.695312 0.890625 -4.90625 C 1.023438 -5.113281 1.210938 -5.273438 1.453125 -5.390625 C 1.703125 -5.503906 1.988281 -5.5625 2.3125 -5.5625 C 2.632812 -5.5625 2.914062 -5.503906 3.15625 -5.390625 C 3.40625 -5.273438 3.59375 -5.113281 3.71875 -4.90625 C 3.851562 -4.695312 3.921875 -4.453125 3.921875 -4.171875 C 3.921875 -3.910156 3.859375 -3.6875 3.734375 -3.5 C 3.609375 -3.3125 3.425781 -3.144531 3.1875 -3 L 3.1875 -2.921875 C 3.519531 -2.796875 3.769531 -2.613281 3.9375 -2.375 C 4.113281 -2.144531 4.203125 -1.859375 4.203125 -1.515625 C 4.203125 -1.179688 4.128906 -0.894531 3.984375 -0.65625 C 3.835938 -0.425781 3.625 -0.242188 3.34375 -0.109375 C 3.0625 0.015625 2.71875 0.078125 2.3125 0.078125 Z M 2.3125 -3.171875 C 2.507812 -3.171875 2.679688 -3.207031 2.828125 -3.28125 C 2.972656 -3.351562 3.085938 -3.457031 3.171875 -3.59375 C 3.253906 -3.738281 3.296875 -3.90625 3.296875 -4.09375 C 3.296875 -4.28125 3.253906 -4.441406 3.171875 -4.578125 C 3.085938 -4.722656 2.972656 -4.832031 2.828125 -4.90625 C 2.679688 -4.976562 2.507812 -5.015625 2.3125 -5.015625 C 2.007812 -5.015625 1.769531 -4.929688 1.59375 -4.765625 C 1.414062 -4.609375 1.328125 -4.382812 1.328125 -4.09375 C 1.328125 -3.8125 1.414062 -3.585938 1.59375 -3.421875 C 1.769531 -3.253906 2.007812 -3.171875 2.3125 -3.171875 Z M 2.3125 -0.484375 C 2.707031 -0.484375 3.007812 -0.578125 3.21875 -0.765625 C 3.425781 -0.953125 3.53125 -1.210938 3.53125 -1.546875 C 3.53125 -1.878906 3.425781 -2.140625 3.21875 -2.328125 C 3.007812 -2.515625 2.707031 -2.609375 2.3125 -2.609375 C 1.914062 -2.609375 1.613281 -2.515625 1.40625 -2.328125 C 1.195312 -2.140625 1.09375 -1.878906 1.09375 -1.546875 C 1.09375 -1.210938 1.195312 -0.953125 1.40625 -0.765625 C 1.613281 -0.578125 1.914062 -0.484375 2.3125 -0.484375 Z M 2.3125 -0.484375 "/></g></g></g><g clip-path="url(#a7a056d809)"><path fill="#0cbe46" d="M 809.523438 636.234375 L 866.746094 636.234375 L 866.746094 682.300781 L 809.523438 682.300781 Z M 809.523438 636.234375 " fill-opacity="1" fill-rule="nonzero"/></g><g fill="#000000" fill-opacity="1"><g transform="translate(833.411991, 662.146213)"><g><path d="M 2.25 0.078125 C 1.738281 0.078125 1.328125 -0.0351562 1.015625 -0.265625 C 0.710938 -0.492188 0.519531 -0.816406 0.4375 -1.234375 L 0.90625 -1.453125 L 1 -1.4375 C 1.0625 -1.21875 1.140625 -1.039062 1.234375 -0.90625 C 1.335938 -0.769531 1.472656 -0.664062 1.640625 -0.59375 C 1.804688 -0.53125 2.007812 -0.5 2.25 -0.5 C 2.625 -0.5 2.910156 -0.609375 3.109375 -0.828125 C 3.316406 -1.054688 3.421875 -1.378906 3.421875 -1.796875 C 3.421875 -2.222656 3.320312 -2.546875 3.125 -2.765625 C 2.925781 -2.992188 2.644531 -3.109375 2.28125 -3.109375 C 2.007812 -3.109375 1.789062 -3.050781 1.625 -2.9375 C 1.457031 -2.832031 1.304688 -2.664062 1.171875 -2.4375 L 0.65625 -2.484375 L 0.765625 -5.484375 L 3.828125 -5.484375 L 3.828125 -4.9375 L 1.328125 -4.9375 L 1.265625 -3.109375 L 1.34375 -3.09375 C 1.46875 -3.28125 1.625 -3.421875 1.8125 -3.515625 C 2 -3.609375 2.222656 -3.65625 2.484375 -3.65625 C 2.804688 -3.65625 3.085938 -3.582031 3.328125 -3.4375 C 3.578125 -3.289062 3.769531 -3.078125 3.90625 -2.796875 C 4.039062 -2.523438 4.109375 -2.191406 4.109375 -1.796875 C 4.109375 -1.410156 4.03125 -1.070312 3.875 -0.78125 C 3.71875 -0.5 3.5 -0.285156 3.21875 -0.140625 C 2.945312 0.00390625 2.625 0.078125 2.25 0.078125 Z M 2.25 0.078125 "/></g></g><g transform="translate(837.948146, 662.146213)"><g><path d="M 2.3125 0.078125 C 1.84375 0.078125 1.457031 -0.0234375 1.15625 -0.234375 C 0.863281 -0.453125 0.675781 -0.753906 0.59375 -1.140625 L 1.078125 -1.359375 L 1.15625 -1.34375 C 1.238281 -1.0625 1.367188 -0.847656 1.546875 -0.703125 C 1.734375 -0.566406 1.988281 -0.5 2.3125 -0.5 C 2.769531 -0.5 3.117188 -0.6875 3.359375 -1.0625 C 3.597656 -1.445312 3.71875 -2.035156 3.71875 -2.828125 L 3.640625 -2.859375 C 3.484375 -2.546875 3.285156 -2.3125 3.046875 -2.15625 C 2.816406 -2 2.523438 -1.921875 2.171875 -1.921875 C 1.828125 -1.921875 1.523438 -1.992188 1.265625 -2.140625 C 1.015625 -2.296875 0.820312 -2.507812 0.6875 -2.78125 C 0.550781 -3.050781 0.484375 -3.367188 0.484375 -3.734375 C 0.484375 -4.097656 0.554688 -4.414062 0.703125 -4.6875 C 0.859375 -4.96875 1.070312 -5.179688 1.34375 -5.328125 C 1.625 -5.484375 1.945312 -5.5625 2.3125 -5.5625 C 2.957031 -5.5625 3.460938 -5.34375 3.828125 -4.90625 C 4.191406 -4.46875 4.375 -3.765625 4.375 -2.796875 C 4.375 -2.148438 4.285156 -1.609375 4.109375 -1.171875 C 3.929688 -0.742188 3.691406 -0.425781 3.390625 -0.21875 C 3.085938 -0.0195312 2.726562 0.078125 2.3125 0.078125 Z M 2.3125 -2.484375 C 2.5625 -2.484375 2.773438 -2.53125 2.953125 -2.625 C 3.140625 -2.726562 3.28125 -2.875 3.375 -3.0625 C 3.476562 -3.25 3.53125 -3.472656 3.53125 -3.734375 C 3.53125 -3.992188 3.476562 -4.21875 3.375 -4.40625 C 3.28125 -4.59375 3.140625 -4.734375 2.953125 -4.828125 C 2.773438 -4.929688 2.5625 -4.984375 2.3125 -4.984375 C 1.945312 -4.984375 1.660156 -4.875 1.453125 -4.65625 C 1.253906 -4.445312 1.15625 -4.140625 1.15625 -3.734375 C 1.15625 -3.328125 1.253906 -3.015625 1.453125 -2.796875 C 1.660156 -2.585938 1.945312 -2.484375 2.3125 -2.484375 Z M 2.3125 -2.484375 "/></g></g></g><g clip-path="url(#e875ccdbb2)"><path fill="#0cbe46" d="M 809.523438 691.898438 L 866.746094 691.898438 L 866.746094 737.964844 L 809.523438 737.964844 Z M 809.523438 691.898438 " fill-opacity="1" fill-rule="nonzero"/></g><g fill="#000000" fill-opacity="1"><g transform="translate(832.977119, 717.809746)"><g><path d="M 2.609375 0.078125 C 2.222656 0.078125 1.875 -0.015625 1.5625 -0.203125 C 1.257812 -0.390625 1.015625 -0.691406 0.828125 -1.109375 C 0.648438 -1.523438 0.5625 -2.066406 0.5625 -2.734375 C 0.5625 -3.378906 0.648438 -3.910156 0.828125 -4.328125 C 1.015625 -4.753906 1.265625 -5.066406 1.578125 -5.265625 C 1.898438 -5.460938 2.265625 -5.5625 2.671875 -5.5625 C 3.378906 -5.5625 3.894531 -5.347656 4.21875 -4.921875 L 3.90625 -4.484375 L 3.8125 -4.484375 C 3.539062 -4.816406 3.160156 -4.984375 2.671875 -4.984375 C 2.203125 -4.984375 1.84375 -4.800781 1.59375 -4.4375 C 1.34375 -4.082031 1.21875 -3.507812 1.21875 -2.71875 L 1.296875 -2.703125 C 1.441406 -3.015625 1.632812 -3.242188 1.875 -3.390625 C 2.113281 -3.546875 2.410156 -3.625 2.765625 -3.625 C 3.109375 -3.625 3.40625 -3.550781 3.65625 -3.40625 C 3.914062 -3.257812 4.113281 -3.046875 4.25 -2.765625 C 4.382812 -2.492188 4.453125 -2.164062 4.453125 -1.78125 C 4.453125 -1.40625 4.375 -1.078125 4.21875 -0.796875 C 4.070312 -0.515625 3.859375 -0.296875 3.578125 -0.140625 C 3.304688 0.00390625 2.984375 0.078125 2.609375 0.078125 Z M 2.609375 -0.5 C 2.972656 -0.5 3.253906 -0.609375 3.453125 -0.828125 C 3.660156 -1.046875 3.765625 -1.363281 3.765625 -1.78125 C 3.765625 -2.195312 3.660156 -2.515625 3.453125 -2.734375 C 3.253906 -2.953125 2.972656 -3.0625 2.609375 -3.0625 C 2.367188 -3.0625 2.15625 -3.007812 1.96875 -2.90625 C 1.789062 -2.8125 1.648438 -2.664062 1.546875 -2.46875 C 1.453125 -2.28125 1.40625 -2.050781 1.40625 -1.78125 C 1.40625 -1.507812 1.453125 -1.28125 1.546875 -1.09375 C 1.648438 -0.90625 1.789062 -0.757812 1.96875 -0.65625 C 2.15625 -0.550781 2.367188 -0.5 2.609375 -0.5 Z M 2.609375 -0.5 "/></g></g><g transform="translate(837.914406, 717.809746)"><g><path d="M 2.6875 0.078125 C 2.289062 0.078125 1.929688 -0.015625 1.609375 -0.203125 C 1.285156 -0.398438 1.03125 -0.707031 0.84375 -1.125 C 0.65625 -1.550781 0.5625 -2.085938 0.5625 -2.734375 C 0.5625 -3.390625 0.65625 -3.925781 0.84375 -4.34375 C 1.03125 -4.757812 1.285156 -5.066406 1.609375 -5.265625 C 1.929688 -5.460938 2.289062 -5.5625 2.6875 -5.5625 C 3.09375 -5.5625 3.453125 -5.460938 3.765625 -5.265625 C 4.085938 -5.066406 4.34375 -4.757812 4.53125 -4.34375 C 4.726562 -3.925781 4.828125 -3.390625 4.828125 -2.734375 C 4.828125 -2.085938 4.726562 -1.550781 4.53125 -1.125 C 4.34375 -0.707031 4.085938 -0.398438 3.765625 -0.203125 C 3.453125 -0.015625 3.09375 0.078125 2.6875 0.078125 Z M 2.6875 -0.515625 C 3.164062 -0.515625 3.523438 -0.6875 3.765625 -1.03125 C 4.015625 -1.375 4.140625 -1.941406 4.140625 -2.734375 C 4.140625 -3.523438 4.015625 -4.09375 3.765625 -4.4375 C 3.523438 -4.78125 3.164062 -4.953125 2.6875 -4.953125 C 2.375 -4.953125 2.109375 -4.878906 1.890625 -4.734375 C 1.679688 -4.597656 1.519531 -4.363281 1.40625 -4.03125 C 1.289062 -3.707031 1.234375 -3.273438 1.234375 -2.734375 C 1.234375 -2.203125 1.289062 -1.769531 1.40625 -1.4375 C 1.519531 -1.113281 1.679688 -0.878906 1.890625 -0.734375 C 2.109375 -0.585938 2.375 -0.515625 2.6875 -0.515625 Z M 2.6875 -0.515625 "/></g></g></g><path stroke-linecap="butt" transform="matrix(0.479858, 0, 0, 0.479858, 513.739732, 112.094801)" fill="none" stroke-linejoin="miter" d="M -0.00302408 2.000357 L 46.405581 2.000357 " stroke="#0cbe46" stroke-width="4" stroke-opacity="1" stroke-miterlimit="4"/><path stroke-linecap="butt" transform="matrix(0.479858, 0, 0, 0.479858, 904.539681, 112.094801)" fill="none" stroke-linejoin="miter" d="M -0.00128833 2.000357 L 44.844354 2.000357 " stroke="#0cbe46" stroke-width="4" stroke-opacity="1" stroke-miterlimit="4"/><path stroke-linecap="butt" transform="matrix(0, 0.479858, -0.479858, 0, 610.050984, 750.305718)" fill="none" stroke-linejoin="miter" d="M -0.00214804 2.002968 L 24.003987 2.002968 " stroke="#0cbe46" stroke-width="4" stroke-opacity="1" stroke-miterlimit="4"/><path stroke-linecap="butt" transform="matrix(0, 0.479858, -0.479858, 0, 840.067044, 750.305718)" fill="none" stroke-linejoin="miter" d="M -0.00214804 2.003875 L 24.003987 2.003875 " stroke="#0cbe46" stroke-width="4" stroke-opacity="1" stroke-miterlimit="4"/></svg>