<svg xmlns="http://www.w3.org/2000/svg" xmlns:xlink="http://www.w3.org/1999/xlink" width="1920" zoomAndPan="magnify" viewBox="0 0 1440 809.999993" height="1080" preserveAspectRatio="xMidYMid meet" version="1.0"><defs><g/><clipPath id="63e8a574c2"><path d="M 512.148438 47.996094 L 927.703125 47.996094 L 927.703125 762.023438 L 512.148438 762.023438 Z M 512.148438 47.996094 " clip-rule="nonzero"/></clipPath><clipPath id="b3b5485516"><path d="M 551.496094 174.675781 L 665.988281 174.675781 L 665.988281 750.507812 L 551.496094 750.507812 Z M 551.496094 174.675781 " clip-rule="nonzero"/></clipPath><clipPath id="1b73dbb596"><path d="M 551.496094 174.683594 L 665.988281 174.683594 L 665.988281 750.5 L 551.496094 750.5 Z M 551.496094 174.683594 " clip-rule="nonzero"/></clipPath><clipPath id="d9fb40e61c"><path d="M 580.121094 190.820312 L 637.367188 190.820312 L 637.367188 236.886719 L 580.121094 236.886719 Z M 580.121094 190.820312 " clip-rule="nonzero"/></clipPath><clipPath id="74b1e2ba84"><path d="M 580.121094 525.109375 L 637.367188 525.109375 L 637.367188 571.175781 L 580.121094 571.175781 Z M 580.121094 525.109375 " clip-rule="nonzero"/></clipPath><clipPath id="632664548b"><path d="M 580.121094 469.445312 L 637.367188 469.445312 L 637.367188 515.511719 L 580.121094 515.511719 Z M 580.121094 469.445312 " clip-rule="nonzero"/></clipPath><clipPath id="a7cf789530"><path d="M 580.121094 413.78125 L 637.367188 413.78125 L 637.367188 459.847656 L 580.121094 459.847656 Z M 580.121094 413.78125 " clip-rule="nonzero"/></clipPath><clipPath id="24a85832cc"><path d="M 580.121094 358.117188 L 637.367188 358.117188 L 637.367188 404.183594 L 580.121094 404.183594 Z M 580.121094 358.117188 " clip-rule="nonzero"/></clipPath><clipPath id="894759e2e4"><path d="M 580.121094 302.457031 L 637.367188 302.457031 L 637.367188 348.523438 L 580.121094 348.523438 Z M 580.121094 302.457031 " clip-rule="nonzero"/></clipPath><clipPath id="c18377a47d"><path d="M 580.121094 246.636719 L 637.367188 246.636719 L 637.367188 292.703125 L 580.121094 292.703125 Z M 580.121094 246.636719 " clip-rule="nonzero"/></clipPath><clipPath id="eddcd0ec43"><path d="M 580.121094 580.773438 L 637.367188 580.773438 L 637.367188 626.839844 L 580.121094 626.839844 Z M 580.121094 580.773438 " clip-rule="nonzero"/></clipPath><clipPath id="0b5164cf97"><path d="M 580.121094 636.4375 L 637.367188 636.4375 L 637.367188 682.503906 L 580.121094 682.503906 Z M 580.121094 636.4375 " clip-rule="nonzero"/></clipPath><clipPath id="0064841ae4"><path d="M 580.121094 692.101562 L 637.367188 692.101562 L 637.367188 738.167969 L 580.121094 738.167969 Z M 580.121094 692.101562 " clip-rule="nonzero"/></clipPath><clipPath id="4703567aa4"><path d="M 535.660156 67.191406 L 904.191406 67.191406 L 904.191406 159.324219 L 535.660156 159.324219 Z M 535.660156 67.191406 " clip-rule="nonzero"/></clipPath><clipPath id="6675f86a84"><path d="M 550.019531 90.222656 L 575.789062 90.222656 L 575.789062 136.289062 L 550.019531 136.289062 Z M 550.019531 90.222656 " clip-rule="nonzero"/></clipPath><clipPath id="af623bc694"><path d="M 756.191406 90.222656 L 781.960938 90.222656 L 781.960938 136.289062 L 756.191406 136.289062 Z M 756.191406 90.222656 " clip-rule="nonzero"/></clipPath><clipPath id="4409689017"><path d="M 721.828125 90.222656 L 747.601562 90.222656 L 747.601562 136.289062 L 721.828125 136.289062 Z M 721.828125 90.222656 " clip-rule="nonzero"/></clipPath><clipPath id="3587ef35f6"><path d="M 687.464844 90.222656 L 713.238281 90.222656 L 713.238281 136.289062 L 687.464844 136.289062 Z M 687.464844 90.222656 " clip-rule="nonzero"/></clipPath><clipPath id="1660424aef"><path d="M 653.105469 90.222656 L 678.875 90.222656 L 678.875 136.289062 L 653.105469 136.289062 Z M 653.105469 90.222656 " clip-rule="nonzero"/></clipPath><clipPath id="d2f1623912"><path d="M 618.742188 90.222656 L 644.515625 90.222656 L 644.515625 136.289062 L 618.742188 136.289062 Z M 618.742188 90.222656 " clip-rule="nonzero"/></clipPath><clipPath id="1b8e550ff1"><path d="M 584.382812 90.222656 L 610.152344 90.222656 L 610.152344 136.289062 L 584.382812 136.289062 Z M 584.382812 90.222656 " clip-rule="nonzero"/></clipPath><clipPath id="02af296237"><path d="M 790.550781 90.222656 L 816.324219 90.222656 L 816.324219 136.289062 L 790.550781 136.289062 Z M 790.550781 90.222656 " clip-rule="nonzero"/></clipPath><clipPath id="c5d2a8b870"><path d="M 824.914062 90.222656 L 850.683594 90.222656 L 850.683594 136.289062 L 824.914062 136.289062 Z M 824.914062 90.222656 " clip-rule="nonzero"/></clipPath><clipPath id="05bbd9ebd0"><path d="M 859.277344 90.222656 L 885.046875 90.222656 L 885.046875 136.289062 L 859.277344 136.289062 Z M 859.277344 90.222656 " clip-rule="nonzero"/></clipPath><clipPath id="7027906690"><path d="M 780.550781 174.675781 L 895.046875 174.675781 L 895.046875 750.507812 L 780.550781 750.507812 Z M 780.550781 174.675781 " clip-rule="nonzero"/></clipPath><clipPath id="349fe5c9a5"><path d="M 780.554688 174.683594 L 895.046875 174.683594 L 895.046875 750.5 L 780.554688 750.5 Z M 780.554688 174.683594 " clip-rule="nonzero"/></clipPath><clipPath id="0e52ac4143"><path d="M 809.175781 190.820312 L 866.421875 190.820312 L 866.421875 236.886719 L 809.175781 236.886719 Z M 809.175781 190.820312 " clip-rule="nonzero"/></clipPath><clipPath id="bef67a17fc"><path d="M 809.175781 525.109375 L 866.421875 525.109375 L 866.421875 571.175781 L 809.175781 571.175781 Z M 809.175781 525.109375 " clip-rule="nonzero"/></clipPath><clipPath id="03ede39221"><path d="M 809.175781 469.445312 L 866.421875 469.445312 L 866.421875 515.511719 L 809.175781 515.511719 Z M 809.175781 469.445312 " clip-rule="nonzero"/></clipPath><clipPath id="8a6f495490"><path d="M 809.175781 413.78125 L 866.421875 413.78125 L 866.421875 459.847656 L 809.175781 459.847656 Z M 809.175781 413.78125 " clip-rule="nonzero"/></clipPath><clipPath id="a3473cd009"><path d="M 809.175781 358.117188 L 866.421875 358.117188 L 866.421875 404.183594 L 809.175781 404.183594 Z M 809.175781 358.117188 " clip-rule="nonzero"/></clipPath><clipPath id="544c1049e4"><path d="M 809.175781 302.457031 L 866.421875 302.457031 L 866.421875 348.523438 L 809.175781 348.523438 Z M 809.175781 302.457031 " clip-rule="nonzero"/></clipPath><clipPath id="d13e21026a"><path d="M 809.175781 246.636719 L 866.421875 246.636719 L 866.421875 292.703125 L 809.175781 292.703125 Z M 809.175781 246.636719 " clip-rule="nonzero"/></clipPath><clipPath id="88d451cdf2"><path d="M 809.175781 580.773438 L 866.421875 580.773438 L 866.421875 626.839844 L 809.175781 626.839844 Z M 809.175781 580.773438 " clip-rule="nonzero"/></clipPath><clipPath id="2ebab41325"><path d="M 809.175781 636.4375 L 866.421875 636.4375 L 866.421875 682.503906 L 809.175781 682.503906 Z M 809.175781 636.4375 " clip-rule="nonzero"/></clipPath><clipPath id="57bc119569"><path d="M 809.175781 692.101562 L 866.421875 692.101562 L 866.421875 738.167969 L 809.175781 738.167969 Z M 809.175781 692.101562 " clip-rule="nonzero"/></clipPath></defs><g clip-path="url(#63e8a574c2)"><path fill="#d9d9d9" d="M 927.703125 47.996094 L 927.703125 762.640625 L 512.148438 762.640625 L 512.148438 47.996094 Z M 927.703125 47.996094 " fill-opacity="1" fill-rule="nonzero"/><path stroke-linecap="butt" transform="matrix(0, 0.479858, -0.479858, 0, 927.704672, 47.996415)" fill="none" stroke-linejoin="miter" d="M -0.000669855 0.00322294 L 1487.997116 0.00322294 L 1487.997116 865.998707 L -0.000669855 865.998707 Z M -0.000669855 0.00322294 " stroke="#0cbe46" stroke-width="8" stroke-opacity="1" stroke-miterlimit="4"/></g><g clip-path="url(#b3b5485516)"><path fill="#ffffff" d="M 665.988281 174.675781 L 665.988281 750.726562 L 551.496094 750.726562 L 551.496094 174.675781 Z M 665.988281 174.675781 " fill-opacity="1" fill-rule="nonzero"/></g><g clip-path="url(#1b73dbb596)"><path stroke-linecap="butt" transform="matrix(0, 0.479858, -0.479858, 0, 665.988909, 174.685281)" fill="none" stroke-linejoin="miter" d="M -0.00351575 0.00130761 L 1199.96955 0.00130761 L 1199.96955 238.597394 L -0.00351575 238.597394 Z M -0.00351575 0.00130761 " stroke="#0cbe46" stroke-width="8" stroke-opacity="1" stroke-miterlimit="4"/></g><g clip-path="url(#d9fb40e61c)"><path fill="#0cbe46" d="M 580.121094 190.820312 L 637.34375 190.820312 L 637.34375 236.886719 L 580.121094 236.886719 Z M 580.121094 190.820312 " fill-opacity="1" fill-rule="nonzero"/></g><g fill="#000000" fill-opacity="1"><g transform="translate(604.802503, 216.733689)"><g><path d="M 1.484375 0 L 0.859375 0 L 2.890625 -4.84375 L 2.875 -4.9375 L 0.203125 -4.9375 L 0.203125 -5.484375 L 3.546875 -5.484375 L 3.546875 -4.890625 Z M 1.484375 0 "/></g></g><g transform="translate(608.588881, 216.733689)"><g><path d="M 0.390625 0 L 0.390625 -0.53125 L 1.890625 -0.53125 L 1.890625 -4.71875 L 1.796875 -4.75 C 1.554688 -4.625 1.34375 -4.53125 1.15625 -4.46875 C 0.976562 -4.40625 0.742188 -4.34375 0.453125 -4.28125 L 0.453125 -4.875 C 0.742188 -4.9375 1.023438 -5.015625 1.296875 -5.109375 C 1.578125 -5.210938 1.828125 -5.335938 2.046875 -5.484375 L 2.515625 -5.484375 L 2.515625 -0.53125 L 3.84375 -0.53125 L 3.84375 0 Z M 0.390625 0 "/></g></g></g><g clip-path="url(#74b1e2ba84)"><path fill="#0cbe46" d="M 580.121094 525.109375 L 637.34375 525.109375 L 637.34375 571.175781 L 580.121094 571.175781 Z M 580.121094 525.109375 " fill-opacity="1" fill-rule="nonzero"/></g><g fill="#000000" fill-opacity="1"><g transform="translate(604.952458, 551.021827)"><g><path d="M 1.484375 0 L 0.859375 0 L 2.890625 -4.84375 L 2.875 -4.9375 L 0.203125 -4.9375 L 0.203125 -5.484375 L 3.546875 -5.484375 L 3.546875 -4.890625 Z M 1.484375 0 "/></g></g><g transform="translate(608.738836, 551.021827)"><g><path d="M 1.484375 0 L 0.859375 0 L 2.890625 -4.84375 L 2.875 -4.9375 L 0.203125 -4.9375 L 0.203125 -5.484375 L 3.546875 -5.484375 L 3.546875 -4.890625 Z M 1.484375 0 "/></g></g></g><g clip-path="url(#632664548b)"><path fill="#0cbe46" d="M 580.121094 469.445312 L 637.34375 469.445312 L 637.34375 515.511719 L 580.121094 515.511719 Z M 580.121094 469.445312 " fill-opacity="1" fill-rule="nonzero"/></g><g fill="#000000" fill-opacity="1"><g transform="translate(604.375129, 495.358294)"><g><path d="M 1.484375 0 L 0.859375 0 L 2.890625 -4.84375 L 2.875 -4.9375 L 0.203125 -4.9375 L 0.203125 -5.484375 L 3.546875 -5.484375 L 3.546875 -4.890625 Z M 1.484375 0 "/></g></g><g transform="translate(608.161507, 495.358294)"><g><path d="M 2.609375 0.078125 C 2.222656 0.078125 1.875 -0.015625 1.5625 -0.203125 C 1.257812 -0.390625 1.015625 -0.691406 0.828125 -1.109375 C 0.648438 -1.523438 0.5625 -2.066406 0.5625 -2.734375 C 0.5625 -3.378906 0.648438 -3.910156 0.828125 -4.328125 C 1.015625 -4.753906 1.265625 -5.066406 1.578125 -5.265625 C 1.898438 -5.460938 2.265625 -5.5625 2.671875 -5.5625 C 3.378906 -5.5625 3.894531 -5.347656 4.21875 -4.921875 L 3.90625 -4.484375 L 3.8125 -4.484375 C 3.539062 -4.816406 3.160156 -4.984375 2.671875 -4.984375 C 2.203125 -4.984375 1.84375 -4.800781 1.59375 -4.4375 C 1.34375 -4.082031 1.21875 -3.507812 1.21875 -2.71875 L 1.296875 -2.703125 C 1.441406 -3.015625 1.632812 -3.242188 1.875 -3.390625 C 2.113281 -3.546875 2.410156 -3.625 2.765625 -3.625 C 3.109375 -3.625 3.40625 -3.550781 3.65625 -3.40625 C 3.914062 -3.257812 4.113281 -3.046875 4.25 -2.765625 C 4.382812 -2.492188 4.453125 -2.164062 4.453125 -1.78125 C 4.453125 -1.40625 4.375 -1.078125 4.21875 -0.796875 C 4.070312 -0.515625 3.859375 -0.296875 3.578125 -0.140625 C 3.304688 0.00390625 2.984375 0.078125 2.609375 0.078125 Z M 2.609375 -0.5 C 2.972656 -0.5 3.253906 -0.609375 3.453125 -0.828125 C 3.660156 -1.046875 3.765625 -1.363281 3.765625 -1.78125 C 3.765625 -2.195312 3.660156 -2.515625 3.453125 -2.734375 C 3.253906 -2.953125 2.972656 -3.0625 2.609375 -3.0625 C 2.367188 -3.0625 2.15625 -3.007812 1.96875 -2.90625 C 1.789062 -2.8125 1.648438 -2.664062 1.546875 -2.46875 C 1.453125 -2.28125 1.40625 -2.050781 1.40625 -1.78125 C 1.40625 -1.507812 1.453125 -1.28125 1.546875 -1.09375 C 1.648438 -0.90625 1.789062 -0.757812 1.96875 -0.65625 C 2.15625 -0.550781 2.367188 -0.5 2.609375 -0.5 Z M 2.609375 -0.5 "/></g></g></g><g clip-path="url(#a7cf789530)"><path fill="#0cbe46" d="M 580.121094 413.78125 L 637.34375 413.78125 L 637.34375 459.847656 L 580.121094 459.847656 Z M 580.121094 413.78125 " fill-opacity="1" fill-rule="nonzero"/></g><g fill="#000000" fill-opacity="1"><g transform="translate(604.577569, 439.694784)"><g><path d="M 1.484375 0 L 0.859375 0 L 2.890625 -4.84375 L 2.875 -4.9375 L 0.203125 -4.9375 L 0.203125 -5.484375 L 3.546875 -5.484375 L 3.546875 -4.890625 Z M 1.484375 0 "/></g></g><g transform="translate(608.363947, 439.694784)"><g><path d="M 2.25 0.078125 C 1.738281 0.078125 1.328125 -0.0351562 1.015625 -0.265625 C 0.710938 -0.492188 0.519531 -0.816406 0.4375 -1.234375 L 0.90625 -1.453125 L 1 -1.4375 C 1.0625 -1.21875 1.140625 -1.039062 1.234375 -0.90625 C 1.335938 -0.769531 1.472656 -0.664062 1.640625 -0.59375 C 1.804688 -0.53125 2.007812 -0.5 2.25 -0.5 C 2.625 -0.5 2.910156 -0.609375 3.109375 -0.828125 C 3.316406 -1.054688 3.421875 -1.378906 3.421875 -1.796875 C 3.421875 -2.222656 3.320312 -2.546875 3.125 -2.765625 C 2.925781 -2.992188 2.644531 -3.109375 2.28125 -3.109375 C 2.007812 -3.109375 1.789062 -3.050781 1.625 -2.9375 C 1.457031 -2.832031 1.304688 -2.664062 1.171875 -2.4375 L 0.65625 -2.484375 L 0.765625 -5.484375 L 3.828125 -5.484375 L 3.828125 -4.9375 L 1.328125 -4.9375 L 1.265625 -3.109375 L 1.34375 -3.09375 C 1.46875 -3.28125 1.625 -3.421875 1.8125 -3.515625 C 2 -3.609375 2.222656 -3.65625 2.484375 -3.65625 C 2.804688 -3.65625 3.085938 -3.582031 3.328125 -3.4375 C 3.578125 -3.289062 3.769531 -3.078125 3.90625 -2.796875 C 4.039062 -2.523438 4.109375 -2.191406 4.109375 -1.796875 C 4.109375 -1.410156 4.03125 -1.070312 3.875 -0.78125 C 3.71875 -0.5 3.5 -0.285156 3.21875 -0.140625 C 2.945312 0.00390625 2.625 0.078125 2.25 0.078125 Z M 2.25 0.078125 "/></g></g></g><g clip-path="url(#24a85832cc)"><path fill="#0cbe46" d="M 580.121094 358.117188 L 637.34375 358.117188 L 637.34375 404.183594 L 580.121094 404.183594 Z M 580.121094 358.117188 " fill-opacity="1" fill-rule="nonzero"/></g><g fill="#000000" fill-opacity="1"><g transform="translate(604.525085, 384.031287)"><g><path d="M 1.484375 0 L 0.859375 0 L 2.890625 -4.84375 L 2.875 -4.9375 L 0.203125 -4.9375 L 0.203125 -5.484375 L 3.546875 -5.484375 L 3.546875 -4.890625 Z M 1.484375 0 "/></g></g><g transform="translate(608.311463, 384.031287)"><g><path d="M 3.421875 0 L 2.8125 0 L 2.8125 -1.3125 L 0.25 -1.3125 L 0.25 -1.828125 L 2.671875 -5.484375 L 3.421875 -5.484375 L 3.421875 -1.828125 L 4.375 -1.828125 L 4.375 -1.3125 L 3.421875 -1.3125 Z M 1 -1.90625 L 1.046875 -1.828125 L 2.8125 -1.828125 L 2.8125 -4.578125 L 2.734375 -4.59375 Z M 1 -1.90625 "/></g></g></g><g clip-path="url(#894759e2e4)"><path fill="#0cbe46" d="M 580.121094 302.457031 L 637.34375 302.457031 L 637.34375 348.523438 L 580.121094 348.523438 Z M 580.121094 302.457031 " fill-opacity="1" fill-rule="nonzero"/></g><g fill="#000000" fill-opacity="1"><g transform="translate(604.622556, 328.367756)"><g><path d="M 1.484375 0 L 0.859375 0 L 2.890625 -4.84375 L 2.875 -4.9375 L 0.203125 -4.9375 L 0.203125 -5.484375 L 3.546875 -5.484375 L 3.546875 -4.890625 Z M 1.484375 0 "/></g></g><g transform="translate(608.408934, 328.367756)"><g><path d="M 2.171875 0.078125 C 1.640625 0.078125 1.21875 -0.0390625 0.90625 -0.28125 C 0.59375 -0.519531 0.390625 -0.851562 0.296875 -1.28125 L 0.78125 -1.5 L 0.859375 -1.484375 C 0.953125 -1.148438 1.097656 -0.898438 1.296875 -0.734375 C 1.492188 -0.578125 1.785156 -0.5 2.171875 -0.5 C 2.554688 -0.5 2.847656 -0.585938 3.046875 -0.765625 C 3.253906 -0.941406 3.359375 -1.203125 3.359375 -1.546875 C 3.359375 -1.890625 3.253906 -2.148438 3.046875 -2.328125 C 2.835938 -2.503906 2.515625 -2.59375 2.078125 -2.59375 L 1.484375 -2.59375 L 1.484375 -3.125 L 2.015625 -3.125 C 2.359375 -3.125 2.628906 -3.207031 2.828125 -3.375 C 3.035156 -3.550781 3.140625 -3.796875 3.140625 -4.109375 C 3.140625 -4.398438 3.050781 -4.617188 2.875 -4.765625 C 2.695312 -4.921875 2.453125 -5 2.140625 -5 C 1.585938 -5 1.191406 -4.773438 0.953125 -4.328125 L 0.875 -4.3125 L 0.515625 -4.71875 C 0.660156 -4.96875 0.867188 -5.171875 1.140625 -5.328125 C 1.421875 -5.484375 1.753906 -5.5625 2.140625 -5.5625 C 2.484375 -5.5625 2.773438 -5.503906 3.015625 -5.390625 C 3.265625 -5.285156 3.453125 -5.128906 3.578125 -4.921875 C 3.710938 -4.710938 3.78125 -4.46875 3.78125 -4.1875 C 3.78125 -3.914062 3.703125 -3.675781 3.546875 -3.46875 C 3.390625 -3.269531 3.179688 -3.113281 2.921875 -3 L 2.921875 -2.921875 C 3.285156 -2.828125 3.554688 -2.660156 3.734375 -2.421875 C 3.921875 -2.191406 4.015625 -1.898438 4.015625 -1.546875 C 4.015625 -1.023438 3.859375 -0.625 3.546875 -0.34375 C 3.242188 -0.0625 2.785156 0.078125 2.171875 0.078125 Z M 2.171875 0.078125 "/></g></g></g><g clip-path="url(#c18377a47d)"><path fill="#0cbe46" d="M 580.121094 246.636719 L 637.34375 246.636719 L 637.34375 292.703125 L 580.121094 292.703125 Z M 580.121094 246.636719 " fill-opacity="1" fill-rule="nonzero"/></g><g fill="#000000" fill-opacity="1"><g transform="translate(604.74252, 272.550736)"><g><path d="M 1.484375 0 L 0.859375 0 L 2.890625 -4.84375 L 2.875 -4.9375 L 0.203125 -4.9375 L 0.203125 -5.484375 L 3.546875 -5.484375 L 3.546875 -4.890625 Z M 1.484375 0 "/></g></g><g transform="translate(608.528898, 272.550736)"><g><path d="M 0.328125 -0.25 C 0.328125 -0.550781 0.359375 -0.796875 0.421875 -0.984375 C 0.492188 -1.171875 0.609375 -1.34375 0.765625 -1.5 C 0.921875 -1.65625 1.175781 -1.863281 1.53125 -2.125 L 2.140625 -2.5625 C 2.359375 -2.71875 2.535156 -2.863281 2.671875 -3 C 2.816406 -3.144531 2.925781 -3.296875 3 -3.453125 C 3.082031 -3.617188 3.125 -3.800781 3.125 -4 C 3.125 -4.320312 3.035156 -4.566406 2.859375 -4.734375 C 2.691406 -4.898438 2.425781 -4.984375 2.0625 -4.984375 C 1.769531 -4.984375 1.507812 -4.914062 1.28125 -4.78125 C 1.0625 -4.644531 0.882812 -4.453125 0.75 -4.203125 L 0.671875 -4.1875 L 0.28125 -4.59375 C 0.46875 -4.894531 0.710938 -5.128906 1.015625 -5.296875 C 1.316406 -5.472656 1.664062 -5.5625 2.0625 -5.5625 C 2.457031 -5.5625 2.78125 -5.492188 3.03125 -5.359375 C 3.289062 -5.222656 3.476562 -5.035156 3.59375 -4.796875 C 3.71875 -4.566406 3.78125 -4.300781 3.78125 -4 C 3.78125 -3.75 3.726562 -3.519531 3.625 -3.3125 C 3.53125 -3.101562 3.390625 -2.90625 3.203125 -2.71875 C 3.015625 -2.53125 2.78125 -2.332031 2.5 -2.125 L 1.890625 -1.671875 C 1.660156 -1.503906 1.484375 -1.363281 1.359375 -1.25 C 1.234375 -1.132812 1.140625 -1.019531 1.078125 -0.90625 C 1.023438 -0.789062 1 -0.664062 1 -0.53125 L 3.78125 -0.53125 L 3.78125 0 L 0.328125 0 Z M 0.328125 -0.25 "/></g></g></g><g clip-path="url(#eddcd0ec43)"><path fill="#0cbe46" d="M 580.121094 580.773438 L 637.34375 580.773438 L 637.34375 626.839844 L 580.121094 626.839844 Z M 580.121094 580.773438 " fill-opacity="1" fill-rule="nonzero"/></g><g fill="#000000" fill-opacity="1"><g transform="translate(604.525085, 606.685312)"><g><path d="M 1.484375 0 L 0.859375 0 L 2.890625 -4.84375 L 2.875 -4.9375 L 0.203125 -4.9375 L 0.203125 -5.484375 L 3.546875 -5.484375 L 3.546875 -4.890625 Z M 1.484375 0 "/></g></g><g transform="translate(608.311463, 606.685312)"><g><path d="M 2.3125 0.078125 C 1.914062 0.078125 1.570312 0.015625 1.28125 -0.109375 C 1 -0.242188 0.785156 -0.425781 0.640625 -0.65625 C 0.492188 -0.894531 0.421875 -1.179688 0.421875 -1.515625 C 0.421875 -1.859375 0.503906 -2.144531 0.671875 -2.375 C 0.847656 -2.613281 1.109375 -2.796875 1.453125 -2.921875 L 1.453125 -3 C 1.210938 -3.144531 1.023438 -3.3125 0.890625 -3.5 C 0.765625 -3.6875 0.703125 -3.910156 0.703125 -4.171875 C 0.703125 -4.453125 0.765625 -4.695312 0.890625 -4.90625 C 1.023438 -5.113281 1.210938 -5.273438 1.453125 -5.390625 C 1.703125 -5.503906 1.988281 -5.5625 2.3125 -5.5625 C 2.632812 -5.5625 2.914062 -5.503906 3.15625 -5.390625 C 3.40625 -5.273438 3.59375 -5.113281 3.71875 -4.90625 C 3.851562 -4.695312 3.921875 -4.453125 3.921875 -4.171875 C 3.921875 -3.910156 3.859375 -3.6875 3.734375 -3.5 C 3.609375 -3.3125 3.425781 -3.144531 3.1875 -3 L 3.1875 -2.921875 C 3.519531 -2.796875 3.769531 -2.613281 3.9375 -2.375 C 4.113281 -2.144531 4.203125 -1.859375 4.203125 -1.515625 C 4.203125 -1.179688 4.128906 -0.894531 3.984375 -0.65625 C 3.835938 -0.425781 3.625 -0.242188 3.34375 -0.109375 C 3.0625 0.015625 2.71875 0.078125 2.3125 0.078125 Z M 2.3125 -3.171875 C 2.507812 -3.171875 2.679688 -3.207031 2.828125 -3.28125 C 2.972656 -3.351562 3.085938 -3.457031 3.171875 -3.59375 C 3.253906 -3.738281 3.296875 -3.90625 3.296875 -4.09375 C 3.296875 -4.28125 3.253906 -4.441406 3.171875 -4.578125 C 3.085938 -4.722656 2.972656 -4.832031 2.828125 -4.90625 C 2.679688 -4.976562 2.507812 -5.015625 2.3125 -5.015625 C 2.007812 -5.015625 1.769531 -4.929688 1.59375 -4.765625 C 1.414062 -4.609375 1.328125 -4.382812 1.328125 -4.09375 C 1.328125 -3.8125 1.414062 -3.585938 1.59375 -3.421875 C 1.769531 -3.253906 2.007812 -3.171875 2.3125 -3.171875 Z M 2.3125 -0.484375 C 2.707031 -0.484375 3.007812 -0.578125 3.21875 -0.765625 C 3.425781 -0.953125 3.53125 -1.210938 3.53125 -1.546875 C 3.53125 -1.878906 3.425781 -2.140625 3.21875 -2.328125 C 3.007812 -2.515625 2.707031 -2.609375 2.3125 -2.609375 C 1.914062 -2.609375 1.613281 -2.515625 1.40625 -2.328125 C 1.195312 -2.140625 1.09375 -1.878906 1.09375 -1.546875 C 1.09375 -1.210938 1.195312 -0.953125 1.40625 -0.765625 C 1.613281 -0.578125 1.914062 -0.484375 2.3125 -0.484375 Z M 2.3125 -0.484375 "/></g></g></g><g clip-path="url(#0b5164cf97)"><path fill="#0cbe46" d="M 580.121094 636.4375 L 637.34375 636.4375 L 637.34375 682.503906 L 580.121094 682.503906 Z M 580.121094 636.4375 " fill-opacity="1" fill-rule="nonzero"/></g><g fill="#000000" fill-opacity="1"><g transform="translate(604.382627, 662.348821)"><g><path d="M 1.484375 0 L 0.859375 0 L 2.890625 -4.84375 L 2.875 -4.9375 L 0.203125 -4.9375 L 0.203125 -5.484375 L 3.546875 -5.484375 L 3.546875 -4.890625 Z M 1.484375 0 "/></g></g><g transform="translate(608.169005, 662.348821)"><g><path d="M 2.3125 0.078125 C 1.84375 0.078125 1.457031 -0.0234375 1.15625 -0.234375 C 0.863281 -0.453125 0.675781 -0.753906 0.59375 -1.140625 L 1.078125 -1.359375 L 1.15625 -1.34375 C 1.238281 -1.0625 1.367188 -0.847656 1.546875 -0.703125 C 1.734375 -0.566406 1.988281 -0.5 2.3125 -0.5 C 2.769531 -0.5 3.117188 -0.6875 3.359375 -1.0625 C 3.597656 -1.445312 3.71875 -2.035156 3.71875 -2.828125 L 3.640625 -2.859375 C 3.484375 -2.546875 3.285156 -2.3125 3.046875 -2.15625 C 2.816406 -2 2.523438 -1.921875 2.171875 -1.921875 C 1.828125 -1.921875 1.523438 -1.992188 1.265625 -2.140625 C 1.015625 -2.296875 0.820312 -2.507812 0.6875 -2.78125 C 0.550781 -3.050781 0.484375 -3.367188 0.484375 -3.734375 C 0.484375 -4.097656 0.554688 -4.414062 0.703125 -4.6875 C 0.859375 -4.96875 1.070312 -5.179688 1.34375 -5.328125 C 1.625 -5.484375 1.945312 -5.5625 2.3125 -5.5625 C 2.957031 -5.5625 3.460938 -5.34375 3.828125 -4.90625 C 4.191406 -4.46875 4.375 -3.765625 4.375 -2.796875 C 4.375 -2.148438 4.285156 -1.609375 4.109375 -1.171875 C 3.929688 -0.742188 3.691406 -0.425781 3.390625 -0.21875 C 3.085938 -0.0195312 2.726562 0.078125 2.3125 0.078125 Z M 2.3125 -2.484375 C 2.5625 -2.484375 2.773438 -2.53125 2.953125 -2.625 C 3.140625 -2.726562 3.28125 -2.875 3.375 -3.0625 C 3.476562 -3.25 3.53125 -3.472656 3.53125 -3.734375 C 3.53125 -3.992188 3.476562 -4.21875 3.375 -4.40625 C 3.28125 -4.59375 3.140625 -4.734375 2.953125 -4.828125 C 2.773438 -4.929688 2.5625 -4.984375 2.3125 -4.984375 C 1.945312 -4.984375 1.660156 -4.875 1.453125 -4.65625 C 1.253906 -4.445312 1.15625 -4.140625 1.15625 -3.734375 C 1.15625 -3.328125 1.253906 -3.015625 1.453125 -2.796875 C 1.660156 -2.585938 1.945312 -2.484375 2.3125 -2.484375 Z M 2.3125 -2.484375 "/></g></g></g><g clip-path="url(#0064841ae4)"><path fill="#0cbe46" d="M 580.121094 692.101562 L 637.34375 692.101562 L 637.34375 738.167969 L 580.121094 738.167969 Z M 580.121094 692.101562 " fill-opacity="1" fill-rule="nonzero"/></g><g fill="#000000" fill-opacity="1"><g transform="translate(603.722823, 718.012354)"><g><path d="M 2.3125 0.078125 C 1.914062 0.078125 1.570312 0.015625 1.28125 -0.109375 C 1 -0.242188 0.785156 -0.425781 0.640625 -0.65625 C 0.492188 -0.894531 0.421875 -1.179688 0.421875 -1.515625 C 0.421875 -1.859375 0.503906 -2.144531 0.671875 -2.375 C 0.847656 -2.613281 1.109375 -2.796875 1.453125 -2.921875 L 1.453125 -3 C 1.210938 -3.144531 1.023438 -3.3125 0.890625 -3.5 C 0.765625 -3.6875 0.703125 -3.910156 0.703125 -4.171875 C 0.703125 -4.453125 0.765625 -4.695312 0.890625 -4.90625 C 1.023438 -5.113281 1.210938 -5.273438 1.453125 -5.390625 C 1.703125 -5.503906 1.988281 -5.5625 2.3125 -5.5625 C 2.632812 -5.5625 2.914062 -5.503906 3.15625 -5.390625 C 3.40625 -5.273438 3.59375 -5.113281 3.71875 -4.90625 C 3.851562 -4.695312 3.921875 -4.453125 3.921875 -4.171875 C 3.921875 -3.910156 3.859375 -3.6875 3.734375 -3.5 C 3.609375 -3.3125 3.425781 -3.144531 3.1875 -3 L 3.1875 -2.921875 C 3.519531 -2.796875 3.769531 -2.613281 3.9375 -2.375 C 4.113281 -2.144531 4.203125 -1.859375 4.203125 -1.515625 C 4.203125 -1.179688 4.128906 -0.894531 3.984375 -0.65625 C 3.835938 -0.425781 3.625 -0.242188 3.34375 -0.109375 C 3.0625 0.015625 2.71875 0.078125 2.3125 0.078125 Z M 2.3125 -3.171875 C 2.507812 -3.171875 2.679688 -3.207031 2.828125 -3.28125 C 2.972656 -3.351562 3.085938 -3.457031 3.171875 -3.59375 C 3.253906 -3.738281 3.296875 -3.90625 3.296875 -4.09375 C 3.296875 -4.28125 3.253906 -4.441406 3.171875 -4.578125 C 3.085938 -4.722656 2.972656 -4.832031 2.828125 -4.90625 C 2.679688 -4.976562 2.507812 -5.015625 2.3125 -5.015625 C 2.007812 -5.015625 1.769531 -4.929688 1.59375 -4.765625 C 1.414062 -4.609375 1.328125 -4.382812 1.328125 -4.09375 C 1.328125 -3.8125 1.414062 -3.585938 1.59375 -3.421875 C 1.769531 -3.253906 2.007812 -3.171875 2.3125 -3.171875 Z M 2.3125 -0.484375 C 2.707031 -0.484375 3.007812 -0.578125 3.21875 -0.765625 C 3.425781 -0.953125 3.53125 -1.210938 3.53125 -1.546875 C 3.53125 -1.878906 3.425781 -2.140625 3.21875 -2.328125 C 3.007812 -2.515625 2.707031 -2.609375 2.3125 -2.609375 C 1.914062 -2.609375 1.613281 -2.515625 1.40625 -2.328125 C 1.195312 -2.140625 1.09375 -1.878906 1.09375 -1.546875 C 1.09375 -1.210938 1.195312 -0.953125 1.40625 -0.765625 C 1.613281 -0.578125 1.914062 -0.484375 2.3125 -0.484375 Z M 2.3125 -0.484375 "/></g></g><g transform="translate(608.360198, 718.012354)"><g><path d="M 2.6875 0.078125 C 2.289062 0.078125 1.929688 -0.015625 1.609375 -0.203125 C 1.285156 -0.398438 1.03125 -0.707031 0.84375 -1.125 C 0.65625 -1.550781 0.5625 -2.085938 0.5625 -2.734375 C 0.5625 -3.390625 0.65625 -3.925781 0.84375 -4.34375 C 1.03125 -4.757812 1.285156 -5.066406 1.609375 -5.265625 C 1.929688 -5.460938 2.289062 -5.5625 2.6875 -5.5625 C 3.09375 -5.5625 3.453125 -5.460938 3.765625 -5.265625 C 4.085938 -5.066406 4.34375 -4.757812 4.53125 -4.34375 C 4.726562 -3.925781 4.828125 -3.390625 4.828125 -2.734375 C 4.828125 -2.085938 4.726562 -1.550781 4.53125 -1.125 C 4.34375 -0.707031 4.085938 -0.398438 3.765625 -0.203125 C 3.453125 -0.015625 3.09375 0.078125 2.6875 0.078125 Z M 2.6875 -0.515625 C 3.164062 -0.515625 3.523438 -0.6875 3.765625 -1.03125 C 4.015625 -1.375 4.140625 -1.941406 4.140625 -2.734375 C 4.140625 -3.523438 4.015625 -4.09375 3.765625 -4.4375 C 3.523438 -4.78125 3.164062 -4.953125 2.6875 -4.953125 C 2.375 -4.953125 2.109375 -4.878906 1.890625 -4.734375 C 1.679688 -4.597656 1.519531 -4.363281 1.40625 -4.03125 C 1.289062 -3.707031 1.234375 -3.273438 1.234375 -2.734375 C 1.234375 -2.203125 1.289062 -1.769531 1.40625 -1.4375 C 1.519531 -1.113281 1.679688 -0.878906 1.890625 -0.734375 C 2.109375 -0.585938 2.375 -0.515625 2.6875 -0.515625 Z M 2.6875 -0.515625 "/></g></g></g><g clip-path="url(#4703567aa4)"><path stroke-linecap="butt" transform="matrix(0.479858, 0, 0, 0.479858, 535.660875, 67.190796)" fill-opacity="1" fill="#ffffff" fill-rule="nonzero" stroke-linejoin="miter" d="M -0.00149841 0.00127211 L 767.99946 0.00127211 L 767.99946 192.001512 L -0.00149841 192.001512 Z M -0.00149841 0.00127211 " stroke="#0cbe46" stroke-width="8" stroke-opacity="1" stroke-miterlimit="4"/></g><g clip-path="url(#6675f86a84)"><path fill="#0cbe46" d="M 550.019531 90.222656 L 575.789062 90.222656 L 575.789062 136.332031 L 550.019531 136.332031 Z M 550.019531 90.222656 " fill-opacity="1" fill-rule="nonzero"/></g><g fill="#000000" fill-opacity="1"><g transform="translate(558.386851, 116.136273)"><g><path d="M 2.609375 0.078125 C 2.222656 0.078125 1.875 -0.015625 1.5625 -0.203125 C 1.257812 -0.390625 1.015625 -0.691406 0.828125 -1.109375 C 0.648438 -1.523438 0.5625 -2.066406 0.5625 -2.734375 C 0.5625 -3.378906 0.648438 -3.910156 0.828125 -4.328125 C 1.015625 -4.753906 1.265625 -5.066406 1.578125 -5.265625 C 1.898438 -5.460938 2.265625 -5.5625 2.671875 -5.5625 C 3.378906 -5.5625 3.894531 -5.347656 4.21875 -4.921875 L 3.90625 -4.484375 L 3.8125 -4.484375 C 3.539062 -4.816406 3.160156 -4.984375 2.671875 -4.984375 C 2.203125 -4.984375 1.84375 -4.800781 1.59375 -4.4375 C 1.34375 -4.082031 1.21875 -3.507812 1.21875 -2.71875 L 1.296875 -2.703125 C 1.441406 -3.015625 1.632812 -3.242188 1.875 -3.390625 C 2.113281 -3.546875 2.410156 -3.625 2.765625 -3.625 C 3.109375 -3.625 3.40625 -3.550781 3.65625 -3.40625 C 3.914062 -3.257812 4.113281 -3.046875 4.25 -2.765625 C 4.382812 -2.492188 4.453125 -2.164062 4.453125 -1.78125 C 4.453125 -1.40625 4.375 -1.078125 4.21875 -0.796875 C 4.070312 -0.515625 3.859375 -0.296875 3.578125 -0.140625 C 3.304688 0.00390625 2.984375 0.078125 2.609375 0.078125 Z M 2.609375 -0.5 C 2.972656 -0.5 3.253906 -0.609375 3.453125 -0.828125 C 3.660156 -1.046875 3.765625 -1.363281 3.765625 -1.78125 C 3.765625 -2.195312 3.660156 -2.515625 3.453125 -2.734375 C 3.253906 -2.953125 2.972656 -3.0625 2.609375 -3.0625 C 2.367188 -3.0625 2.15625 -3.007812 1.96875 -2.90625 C 1.789062 -2.8125 1.648438 -2.664062 1.546875 -2.46875 C 1.453125 -2.28125 1.40625 -2.050781 1.40625 -1.78125 C 1.40625 -1.507812 1.453125 -1.28125 1.546875 -1.09375 C 1.648438 -0.90625 1.789062 -0.757812 1.96875 -0.65625 C 2.15625 -0.550781 2.367188 -0.5 2.609375 -0.5 Z M 2.609375 -0.5 "/></g></g><g transform="translate(563.324138, 116.136273)"><g><path d="M 0.390625 0 L 0.390625 -0.53125 L 1.890625 -0.53125 L 1.890625 -4.71875 L 1.796875 -4.75 C 1.554688 -4.625 1.34375 -4.53125 1.15625 -4.46875 C 0.976562 -4.40625 0.742188 -4.34375 0.453125 -4.28125 L 0.453125 -4.875 C 0.742188 -4.9375 1.023438 -5.015625 1.296875 -5.109375 C 1.578125 -5.210938 1.828125 -5.335938 2.046875 -5.484375 L 2.515625 -5.484375 L 2.515625 -0.53125 L 3.84375 -0.53125 L 3.84375 0 Z M 0.390625 0 "/></g></g></g><g clip-path="url(#af623bc694)"><path fill="#0cbe46" d="M 756.191406 90.222656 L 781.960938 90.222656 L 781.960938 136.332031 L 756.191406 136.332031 Z M 756.191406 90.222656 " fill-opacity="1" fill-rule="nonzero"/></g><g fill="#000000" fill-opacity="1"><g transform="translate(764.707884, 116.136273)"><g><path d="M 2.609375 0.078125 C 2.222656 0.078125 1.875 -0.015625 1.5625 -0.203125 C 1.257812 -0.390625 1.015625 -0.691406 0.828125 -1.109375 C 0.648438 -1.523438 0.5625 -2.066406 0.5625 -2.734375 C 0.5625 -3.378906 0.648438 -3.910156 0.828125 -4.328125 C 1.015625 -4.753906 1.265625 -5.066406 1.578125 -5.265625 C 1.898438 -5.460938 2.265625 -5.5625 2.671875 -5.5625 C 3.378906 -5.5625 3.894531 -5.347656 4.21875 -4.921875 L 3.90625 -4.484375 L 3.8125 -4.484375 C 3.539062 -4.816406 3.160156 -4.984375 2.671875 -4.984375 C 2.203125 -4.984375 1.84375 -4.800781 1.59375 -4.4375 C 1.34375 -4.082031 1.21875 -3.507812 1.21875 -2.71875 L 1.296875 -2.703125 C 1.441406 -3.015625 1.632812 -3.242188 1.875 -3.390625 C 2.113281 -3.546875 2.410156 -3.625 2.765625 -3.625 C 3.109375 -3.625 3.40625 -3.550781 3.65625 -3.40625 C 3.914062 -3.257812 4.113281 -3.046875 4.25 -2.765625 C 4.382812 -2.492188 4.453125 -2.164062 4.453125 -1.78125 C 4.453125 -1.40625 4.375 -1.078125 4.21875 -0.796875 C 4.070312 -0.515625 3.859375 -0.296875 3.578125 -0.140625 C 3.304688 0.00390625 2.984375 0.078125 2.609375 0.078125 Z M 2.609375 -0.5 C 2.972656 -0.5 3.253906 -0.609375 3.453125 -0.828125 C 3.660156 -1.046875 3.765625 -1.363281 3.765625 -1.78125 C 3.765625 -2.195312 3.660156 -2.515625 3.453125 -2.734375 C 3.253906 -2.953125 2.972656 -3.0625 2.609375 -3.0625 C 2.367188 -3.0625 2.15625 -3.007812 1.96875 -2.90625 C 1.789062 -2.8125 1.648438 -2.664062 1.546875 -2.46875 C 1.453125 -2.28125 1.40625 -2.050781 1.40625 -1.78125 C 1.40625 -1.507812 1.453125 -1.28125 1.546875 -1.09375 C 1.648438 -0.90625 1.789062 -0.757812 1.96875 -0.65625 C 2.15625 -0.550781 2.367188 -0.5 2.609375 -0.5 Z M 2.609375 -0.5 "/></g></g><g transform="translate(769.645171, 116.136273)"><g><path d="M 1.484375 0 L 0.859375 0 L 2.890625 -4.84375 L 2.875 -4.9375 L 0.203125 -4.9375 L 0.203125 -5.484375 L 3.546875 -5.484375 L 3.546875 -4.890625 Z M 1.484375 0 "/></g></g></g><g clip-path="url(#4409689017)"><path fill="#0cbe46" d="M 721.828125 90.222656 L 747.601562 90.222656 L 747.601562 136.332031 L 721.828125 136.332031 Z M 721.828125 90.222656 " fill-opacity="1" fill-rule="nonzero"/></g><g fill="#000000" fill-opacity="1"><g transform="translate(729.776199, 116.136273)"><g><path d="M 2.609375 0.078125 C 2.222656 0.078125 1.875 -0.015625 1.5625 -0.203125 C 1.257812 -0.390625 1.015625 -0.691406 0.828125 -1.109375 C 0.648438 -1.523438 0.5625 -2.066406 0.5625 -2.734375 C 0.5625 -3.378906 0.648438 -3.910156 0.828125 -4.328125 C 1.015625 -4.753906 1.265625 -5.066406 1.578125 -5.265625 C 1.898438 -5.460938 2.265625 -5.5625 2.671875 -5.5625 C 3.378906 -5.5625 3.894531 -5.347656 4.21875 -4.921875 L 3.90625 -4.484375 L 3.8125 -4.484375 C 3.539062 -4.816406 3.160156 -4.984375 2.671875 -4.984375 C 2.203125 -4.984375 1.84375 -4.800781 1.59375 -4.4375 C 1.34375 -4.082031 1.21875 -3.507812 1.21875 -2.71875 L 1.296875 -2.703125 C 1.441406 -3.015625 1.632812 -3.242188 1.875 -3.390625 C 2.113281 -3.546875 2.410156 -3.625 2.765625 -3.625 C 3.109375 -3.625 3.40625 -3.550781 3.65625 -3.40625 C 3.914062 -3.257812 4.113281 -3.046875 4.25 -2.765625 C 4.382812 -2.492188 4.453125 -2.164062 4.453125 -1.78125 C 4.453125 -1.40625 4.375 -1.078125 4.21875 -0.796875 C 4.070312 -0.515625 3.859375 -0.296875 3.578125 -0.140625 C 3.304688 0.00390625 2.984375 0.078125 2.609375 0.078125 Z M 2.609375 -0.5 C 2.972656 -0.5 3.253906 -0.609375 3.453125 -0.828125 C 3.660156 -1.046875 3.765625 -1.363281 3.765625 -1.78125 C 3.765625 -2.195312 3.660156 -2.515625 3.453125 -2.734375 C 3.253906 -2.953125 2.972656 -3.0625 2.609375 -3.0625 C 2.367188 -3.0625 2.15625 -3.007812 1.96875 -2.90625 C 1.789062 -2.8125 1.648438 -2.664062 1.546875 -2.46875 C 1.453125 -2.28125 1.40625 -2.050781 1.40625 -1.78125 C 1.40625 -1.507812 1.453125 -1.28125 1.546875 -1.09375 C 1.648438 -0.90625 1.789062 -0.757812 1.96875 -0.65625 C 2.15625 -0.550781 2.367188 -0.5 2.609375 -0.5 Z M 2.609375 -0.5 "/></g></g><g transform="translate(734.713486, 116.136273)"><g><path d="M 2.609375 0.078125 C 2.222656 0.078125 1.875 -0.015625 1.5625 -0.203125 C 1.257812 -0.390625 1.015625 -0.691406 0.828125 -1.109375 C 0.648438 -1.523438 0.5625 -2.066406 0.5625 -2.734375 C 0.5625 -3.378906 0.648438 -3.910156 0.828125 -4.328125 C 1.015625 -4.753906 1.265625 -5.066406 1.578125 -5.265625 C 1.898438 -5.460938 2.265625 -5.5625 2.671875 -5.5625 C 3.378906 -5.5625 3.894531 -5.347656 4.21875 -4.921875 L 3.90625 -4.484375 L 3.8125 -4.484375 C 3.539062 -4.816406 3.160156 -4.984375 2.671875 -4.984375 C 2.203125 -4.984375 1.84375 -4.800781 1.59375 -4.4375 C 1.34375 -4.082031 1.21875 -3.507812 1.21875 -2.71875 L 1.296875 -2.703125 C 1.441406 -3.015625 1.632812 -3.242188 1.875 -3.390625 C 2.113281 -3.546875 2.410156 -3.625 2.765625 -3.625 C 3.109375 -3.625 3.40625 -3.550781 3.65625 -3.40625 C 3.914062 -3.257812 4.113281 -3.046875 4.25 -2.765625 C 4.382812 -2.492188 4.453125 -2.164062 4.453125 -1.78125 C 4.453125 -1.40625 4.375 -1.078125 4.21875 -0.796875 C 4.070312 -0.515625 3.859375 -0.296875 3.578125 -0.140625 C 3.304688 0.00390625 2.984375 0.078125 2.609375 0.078125 Z M 2.609375 -0.5 C 2.972656 -0.5 3.253906 -0.609375 3.453125 -0.828125 C 3.660156 -1.046875 3.765625 -1.363281 3.765625 -1.78125 C 3.765625 -2.195312 3.660156 -2.515625 3.453125 -2.734375 C 3.253906 -2.953125 2.972656 -3.0625 2.609375 -3.0625 C 2.367188 -3.0625 2.15625 -3.007812 1.96875 -2.90625 C 1.789062 -2.8125 1.648438 -2.664062 1.546875 -2.46875 C 1.453125 -2.28125 1.40625 -2.050781 1.40625 -1.78125 C 1.40625 -1.507812 1.453125 -1.28125 1.546875 -1.09375 C 1.648438 -0.90625 1.789062 -0.757812 1.96875 -0.65625 C 2.15625 -0.550781 2.367188 -0.5 2.609375 -0.5 Z M 2.609375 -0.5 "/></g></g></g><g clip-path="url(#3587ef35f6)"><path fill="#0cbe46" d="M 687.464844 90.222656 L 713.238281 90.222656 L 713.238281 136.332031 L 687.464844 136.332031 Z M 687.464844 90.222656 " fill-opacity="1" fill-rule="nonzero"/></g><g fill="#000000" fill-opacity="1"><g transform="translate(695.609311, 116.136273)"><g><path d="M 2.609375 0.078125 C 2.222656 0.078125 1.875 -0.015625 1.5625 -0.203125 C 1.257812 -0.390625 1.015625 -0.691406 0.828125 -1.109375 C 0.648438 -1.523438 0.5625 -2.066406 0.5625 -2.734375 C 0.5625 -3.378906 0.648438 -3.910156 0.828125 -4.328125 C 1.015625 -4.753906 1.265625 -5.066406 1.578125 -5.265625 C 1.898438 -5.460938 2.265625 -5.5625 2.671875 -5.5625 C 3.378906 -5.5625 3.894531 -5.347656 4.21875 -4.921875 L 3.90625 -4.484375 L 3.8125 -4.484375 C 3.539062 -4.816406 3.160156 -4.984375 2.671875 -4.984375 C 2.203125 -4.984375 1.84375 -4.800781 1.59375 -4.4375 C 1.34375 -4.082031 1.21875 -3.507812 1.21875 -2.71875 L 1.296875 -2.703125 C 1.441406 -3.015625 1.632812 -3.242188 1.875 -3.390625 C 2.113281 -3.546875 2.410156 -3.625 2.765625 -3.625 C 3.109375 -3.625 3.40625 -3.550781 3.65625 -3.40625 C 3.914062 -3.257812 4.113281 -3.046875 4.25 -2.765625 C 4.382812 -2.492188 4.453125 -2.164062 4.453125 -1.78125 C 4.453125 -1.40625 4.375 -1.078125 4.21875 -0.796875 C 4.070312 -0.515625 3.859375 -0.296875 3.578125 -0.140625 C 3.304688 0.00390625 2.984375 0.078125 2.609375 0.078125 Z M 2.609375 -0.5 C 2.972656 -0.5 3.253906 -0.609375 3.453125 -0.828125 C 3.660156 -1.046875 3.765625 -1.363281 3.765625 -1.78125 C 3.765625 -2.195312 3.660156 -2.515625 3.453125 -2.734375 C 3.253906 -2.953125 2.972656 -3.0625 2.609375 -3.0625 C 2.367188 -3.0625 2.15625 -3.007812 1.96875 -2.90625 C 1.789062 -2.8125 1.648438 -2.664062 1.546875 -2.46875 C 1.453125 -2.28125 1.40625 -2.050781 1.40625 -1.78125 C 1.40625 -1.507812 1.453125 -1.28125 1.546875 -1.09375 C 1.648438 -0.90625 1.789062 -0.757812 1.96875 -0.65625 C 2.15625 -0.550781 2.367188 -0.5 2.609375 -0.5 Z M 2.609375 -0.5 "/></g></g><g transform="translate(700.546598, 116.136273)"><g><path d="M 2.25 0.078125 C 1.738281 0.078125 1.328125 -0.0351562 1.015625 -0.265625 C 0.710938 -0.492188 0.519531 -0.816406 0.4375 -1.234375 L 0.90625 -1.453125 L 1 -1.4375 C 1.0625 -1.21875 1.140625 -1.039062 1.234375 -0.90625 C 1.335938 -0.769531 1.472656 -0.664062 1.640625 -0.59375 C 1.804688 -0.53125 2.007812 -0.5 2.25 -0.5 C 2.625 -0.5 2.910156 -0.609375 3.109375 -0.828125 C 3.316406 -1.054688 3.421875 -1.378906 3.421875 -1.796875 C 3.421875 -2.222656 3.320312 -2.546875 3.125 -2.765625 C 2.925781 -2.992188 2.644531 -3.109375 2.28125 -3.109375 C 2.007812 -3.109375 1.789062 -3.050781 1.625 -2.9375 C 1.457031 -2.832031 1.304688 -2.664062 1.171875 -2.4375 L 0.65625 -2.484375 L 0.765625 -5.484375 L 3.828125 -5.484375 L 3.828125 -4.9375 L 1.328125 -4.9375 L 1.265625 -3.109375 L 1.34375 -3.09375 C 1.46875 -3.28125 1.625 -3.421875 1.8125 -3.515625 C 2 -3.609375 2.222656 -3.65625 2.484375 -3.65625 C 2.804688 -3.65625 3.085938 -3.582031 3.328125 -3.4375 C 3.578125 -3.289062 3.769531 -3.078125 3.90625 -2.796875 C 4.039062 -2.523438 4.109375 -2.191406 4.109375 -1.796875 C 4.109375 -1.410156 4.03125 -1.070312 3.875 -0.78125 C 3.71875 -0.5 3.5 -0.285156 3.21875 -0.140625 C 2.945312 0.00390625 2.625 0.078125 2.25 0.078125 Z M 2.25 0.078125 "/></g></g></g><g clip-path="url(#1660424aef)"><path fill="#0cbe46" d="M 653.105469 90.222656 L 678.875 90.222656 L 678.875 136.332031 L 653.105469 136.332031 Z M 653.105469 90.222656 " fill-opacity="1" fill-rule="nonzero"/></g><g fill="#000000" fill-opacity="1"><g transform="translate(661.194948, 116.136273)"><g><path d="M 2.609375 0.078125 C 2.222656 0.078125 1.875 -0.015625 1.5625 -0.203125 C 1.257812 -0.390625 1.015625 -0.691406 0.828125 -1.109375 C 0.648438 -1.523438 0.5625 -2.066406 0.5625 -2.734375 C 0.5625 -3.378906 0.648438 -3.910156 0.828125 -4.328125 C 1.015625 -4.753906 1.265625 -5.066406 1.578125 -5.265625 C 1.898438 -5.460938 2.265625 -5.5625 2.671875 -5.5625 C 3.378906 -5.5625 3.894531 -5.347656 4.21875 -4.921875 L 3.90625 -4.484375 L 3.8125 -4.484375 C 3.539062 -4.816406 3.160156 -4.984375 2.671875 -4.984375 C 2.203125 -4.984375 1.84375 -4.800781 1.59375 -4.4375 C 1.34375 -4.082031 1.21875 -3.507812 1.21875 -2.71875 L 1.296875 -2.703125 C 1.441406 -3.015625 1.632812 -3.242188 1.875 -3.390625 C 2.113281 -3.546875 2.410156 -3.625 2.765625 -3.625 C 3.109375 -3.625 3.40625 -3.550781 3.65625 -3.40625 C 3.914062 -3.257812 4.113281 -3.046875 4.25 -2.765625 C 4.382812 -2.492188 4.453125 -2.164062 4.453125 -1.78125 C 4.453125 -1.40625 4.375 -1.078125 4.21875 -0.796875 C 4.070312 -0.515625 3.859375 -0.296875 3.578125 -0.140625 C 3.304688 0.00390625 2.984375 0.078125 2.609375 0.078125 Z M 2.609375 -0.5 C 2.972656 -0.5 3.253906 -0.609375 3.453125 -0.828125 C 3.660156 -1.046875 3.765625 -1.363281 3.765625 -1.78125 C 3.765625 -2.195312 3.660156 -2.515625 3.453125 -2.734375 C 3.253906 -2.953125 2.972656 -3.0625 2.609375 -3.0625 C 2.367188 -3.0625 2.15625 -3.007812 1.96875 -2.90625 C 1.789062 -2.8125 1.648438 -2.664062 1.546875 -2.46875 C 1.453125 -2.28125 1.40625 -2.050781 1.40625 -1.78125 C 1.40625 -1.507812 1.453125 -1.28125 1.546875 -1.09375 C 1.648438 -0.90625 1.789062 -0.757812 1.96875 -0.65625 C 2.15625 -0.550781 2.367188 -0.5 2.609375 -0.5 Z M 2.609375 -0.5 "/></g></g><g transform="translate(666.132235, 116.136273)"><g><path d="M 3.421875 0 L 2.8125 0 L 2.8125 -1.3125 L 0.25 -1.3125 L 0.25 -1.828125 L 2.671875 -5.484375 L 3.421875 -5.484375 L 3.421875 -1.828125 L 4.375 -1.828125 L 4.375 -1.3125 L 3.421875 -1.3125 Z M 1 -1.90625 L 1.046875 -1.828125 L 2.8125 -1.828125 L 2.8125 -4.578125 L 2.734375 -4.59375 Z M 1 -1.90625 "/></g></g></g><g clip-path="url(#d2f1623912)"><path fill="#0cbe46" d="M 618.742188 90.222656 L 644.515625 90.222656 L 644.515625 136.332031 L 618.742188 136.332031 Z M 618.742188 90.222656 " fill-opacity="1" fill-rule="nonzero"/></g><g fill="#000000" fill-opacity="1"><g transform="translate(626.930565, 116.136273)"><g><path d="M 2.609375 0.078125 C 2.222656 0.078125 1.875 -0.015625 1.5625 -0.203125 C 1.257812 -0.390625 1.015625 -0.691406 0.828125 -1.109375 C 0.648438 -1.523438 0.5625 -2.066406 0.5625 -2.734375 C 0.5625 -3.378906 0.648438 -3.910156 0.828125 -4.328125 C 1.015625 -4.753906 1.265625 -5.066406 1.578125 -5.265625 C 1.898438 -5.460938 2.265625 -5.5625 2.671875 -5.5625 C 3.378906 -5.5625 3.894531 -5.347656 4.21875 -4.921875 L 3.90625 -4.484375 L 3.8125 -4.484375 C 3.539062 -4.816406 3.160156 -4.984375 2.671875 -4.984375 C 2.203125 -4.984375 1.84375 -4.800781 1.59375 -4.4375 C 1.34375 -4.082031 1.21875 -3.507812 1.21875 -2.71875 L 1.296875 -2.703125 C 1.441406 -3.015625 1.632812 -3.242188 1.875 -3.390625 C 2.113281 -3.546875 2.410156 -3.625 2.765625 -3.625 C 3.109375 -3.625 3.40625 -3.550781 3.65625 -3.40625 C 3.914062 -3.257812 4.113281 -3.046875 4.25 -2.765625 C 4.382812 -2.492188 4.453125 -2.164062 4.453125 -1.78125 C 4.453125 -1.40625 4.375 -1.078125 4.21875 -0.796875 C 4.070312 -0.515625 3.859375 -0.296875 3.578125 -0.140625 C 3.304688 0.00390625 2.984375 0.078125 2.609375 0.078125 Z M 2.609375 -0.5 C 2.972656 -0.5 3.253906 -0.609375 3.453125 -0.828125 C 3.660156 -1.046875 3.765625 -1.363281 3.765625 -1.78125 C 3.765625 -2.195312 3.660156 -2.515625 3.453125 -2.734375 C 3.253906 -2.953125 2.972656 -3.0625 2.609375 -3.0625 C 2.367188 -3.0625 2.15625 -3.007812 1.96875 -2.90625 C 1.789062 -2.8125 1.648438 -2.664062 1.546875 -2.46875 C 1.453125 -2.28125 1.40625 -2.050781 1.40625 -1.78125 C 1.40625 -1.507812 1.453125 -1.28125 1.546875 -1.09375 C 1.648438 -0.90625 1.789062 -0.757812 1.96875 -0.65625 C 2.15625 -0.550781 2.367188 -0.5 2.609375 -0.5 Z M 2.609375 -0.5 "/></g></g><g transform="translate(631.867852, 116.136273)"><g><path d="M 2.171875 0.078125 C 1.640625 0.078125 1.21875 -0.0390625 0.90625 -0.28125 C 0.59375 -0.519531 0.390625 -0.851562 0.296875 -1.28125 L 0.78125 -1.5 L 0.859375 -1.484375 C 0.953125 -1.148438 1.097656 -0.898438 1.296875 -0.734375 C 1.492188 -0.578125 1.785156 -0.5 2.171875 -0.5 C 2.554688 -0.5 2.847656 -0.585938 3.046875 -0.765625 C 3.253906 -0.941406 3.359375 -1.203125 3.359375 -1.546875 C 3.359375 -1.890625 3.253906 -2.148438 3.046875 -2.328125 C 2.835938 -2.503906 2.515625 -2.59375 2.078125 -2.59375 L 1.484375 -2.59375 L 1.484375 -3.125 L 2.015625 -3.125 C 2.359375 -3.125 2.628906 -3.207031 2.828125 -3.375 C 3.035156 -3.550781 3.140625 -3.796875 3.140625 -4.109375 C 3.140625 -4.398438 3.050781 -4.617188 2.875 -4.765625 C 2.695312 -4.921875 2.453125 -5 2.140625 -5 C 1.585938 -5 1.191406 -4.773438 0.953125 -4.328125 L 0.875 -4.3125 L 0.515625 -4.71875 C 0.660156 -4.96875 0.867188 -5.171875 1.140625 -5.328125 C 1.421875 -5.484375 1.753906 -5.5625 2.140625 -5.5625 C 2.484375 -5.5625 2.773438 -5.503906 3.015625 -5.390625 C 3.265625 -5.285156 3.453125 -5.128906 3.578125 -4.921875 C 3.710938 -4.710938 3.78125 -4.46875 3.78125 -4.1875 C 3.78125 -3.914062 3.703125 -3.675781 3.546875 -3.46875 C 3.390625 -3.269531 3.179688 -3.113281 2.921875 -3 L 2.921875 -2.921875 C 3.285156 -2.828125 3.554688 -2.660156 3.734375 -2.421875 C 3.921875 -2.191406 4.015625 -1.898438 4.015625 -1.546875 C 4.015625 -1.023438 3.859375 -0.625 3.546875 -0.34375 C 3.242188 -0.0625 2.785156 0.078125 2.171875 0.078125 Z M 2.171875 0.078125 "/></g></g></g><g clip-path="url(#1b8e550ff1)"><path fill="#0cbe46" d="M 584.382812 90.222656 L 610.152344 90.222656 L 610.152344 136.332031 L 584.382812 136.332031 Z M 584.382812 90.222656 " fill-opacity="1" fill-rule="nonzero"/></g><g fill="#000000" fill-opacity="1"><g transform="translate(592.688699, 116.136273)"><g><path d="M 2.609375 0.078125 C 2.222656 0.078125 1.875 -0.015625 1.5625 -0.203125 C 1.257812 -0.390625 1.015625 -0.691406 0.828125 -1.109375 C 0.648438 -1.523438 0.5625 -2.066406 0.5625 -2.734375 C 0.5625 -3.378906 0.648438 -3.910156 0.828125 -4.328125 C 1.015625 -4.753906 1.265625 -5.066406 1.578125 -5.265625 C 1.898438 -5.460938 2.265625 -5.5625 2.671875 -5.5625 C 3.378906 -5.5625 3.894531 -5.347656 4.21875 -4.921875 L 3.90625 -4.484375 L 3.8125 -4.484375 C 3.539062 -4.816406 3.160156 -4.984375 2.671875 -4.984375 C 2.203125 -4.984375 1.84375 -4.800781 1.59375 -4.4375 C 1.34375 -4.082031 1.21875 -3.507812 1.21875 -2.71875 L 1.296875 -2.703125 C 1.441406 -3.015625 1.632812 -3.242188 1.875 -3.390625 C 2.113281 -3.546875 2.410156 -3.625 2.765625 -3.625 C 3.109375 -3.625 3.40625 -3.550781 3.65625 -3.40625 C 3.914062 -3.257812 4.113281 -3.046875 4.25 -2.765625 C 4.382812 -2.492188 4.453125 -2.164062 4.453125 -1.78125 C 4.453125 -1.40625 4.375 -1.078125 4.21875 -0.796875 C 4.070312 -0.515625 3.859375 -0.296875 3.578125 -0.140625 C 3.304688 0.00390625 2.984375 0.078125 2.609375 0.078125 Z M 2.609375 -0.5 C 2.972656 -0.5 3.253906 -0.609375 3.453125 -0.828125 C 3.660156 -1.046875 3.765625 -1.363281 3.765625 -1.78125 C 3.765625 -2.195312 3.660156 -2.515625 3.453125 -2.734375 C 3.253906 -2.953125 2.972656 -3.0625 2.609375 -3.0625 C 2.367188 -3.0625 2.15625 -3.007812 1.96875 -2.90625 C 1.789062 -2.8125 1.648438 -2.664062 1.546875 -2.46875 C 1.453125 -2.28125 1.40625 -2.050781 1.40625 -1.78125 C 1.40625 -1.507812 1.453125 -1.28125 1.546875 -1.09375 C 1.648438 -0.90625 1.789062 -0.757812 1.96875 -0.65625 C 2.15625 -0.550781 2.367188 -0.5 2.609375 -0.5 Z M 2.609375 -0.5 "/></g></g><g transform="translate(597.625986, 116.136273)"><g><path d="M 0.328125 -0.25 C 0.328125 -0.550781 0.359375 -0.796875 0.421875 -0.984375 C 0.492188 -1.171875 0.609375 -1.34375 0.765625 -1.5 C 0.921875 -1.65625 1.175781 -1.863281 1.53125 -2.125 L 2.140625 -2.5625 C 2.359375 -2.71875 2.535156 -2.863281 2.671875 -3 C 2.816406 -3.144531 2.925781 -3.296875 3 -3.453125 C 3.082031 -3.617188 3.125 -3.800781 3.125 -4 C 3.125 -4.320312 3.035156 -4.566406 2.859375 -4.734375 C 2.691406 -4.898438 2.425781 -4.984375 2.0625 -4.984375 C 1.769531 -4.984375 1.507812 -4.914062 1.28125 -4.78125 C 1.0625 -4.644531 0.882812 -4.453125 0.75 -4.203125 L 0.671875 -4.1875 L 0.28125 -4.59375 C 0.46875 -4.894531 0.710938 -5.128906 1.015625 -5.296875 C 1.316406 -5.472656 1.664062 -5.5625 2.0625 -5.5625 C 2.457031 -5.5625 2.78125 -5.492188 3.03125 -5.359375 C 3.289062 -5.222656 3.476562 -5.035156 3.59375 -4.796875 C 3.71875 -4.566406 3.78125 -4.300781 3.78125 -4 C 3.78125 -3.75 3.726562 -3.519531 3.625 -3.3125 C 3.53125 -3.101562 3.390625 -2.90625 3.203125 -2.71875 C 3.015625 -2.53125 2.78125 -2.332031 2.5 -2.125 L 1.890625 -1.671875 C 1.660156 -1.503906 1.484375 -1.363281 1.359375 -1.25 C 1.234375 -1.132812 1.140625 -1.019531 1.078125 -0.90625 C 1.023438 -0.789062 1 -0.664062 1 -0.53125 L 3.78125 -0.53125 L 3.78125 0 L 0.328125 0 Z M 0.328125 -0.25 "/></g></g></g><g clip-path="url(#02af296237)"><path fill="#0cbe46" d="M 790.550781 90.222656 L 816.324219 90.222656 L 816.324219 136.332031 L 790.550781 136.332031 Z M 790.550781 90.222656 " fill-opacity="1" fill-rule="nonzero"/></g><g fill="#000000" fill-opacity="1"><g transform="translate(798.649839, 116.136273)"><g><path d="M 2.609375 0.078125 C 2.222656 0.078125 1.875 -0.015625 1.5625 -0.203125 C 1.257812 -0.390625 1.015625 -0.691406 0.828125 -1.109375 C 0.648438 -1.523438 0.5625 -2.066406 0.5625 -2.734375 C 0.5625 -3.378906 0.648438 -3.910156 0.828125 -4.328125 C 1.015625 -4.753906 1.265625 -5.066406 1.578125 -5.265625 C 1.898438 -5.460938 2.265625 -5.5625 2.671875 -5.5625 C 3.378906 -5.5625 3.894531 -5.347656 4.21875 -4.921875 L 3.90625 -4.484375 L 3.8125 -4.484375 C 3.539062 -4.816406 3.160156 -4.984375 2.671875 -4.984375 C 2.203125 -4.984375 1.84375 -4.800781 1.59375 -4.4375 C 1.34375 -4.082031 1.21875 -3.507812 1.21875 -2.71875 L 1.296875 -2.703125 C 1.441406 -3.015625 1.632812 -3.242188 1.875 -3.390625 C 2.113281 -3.546875 2.410156 -3.625 2.765625 -3.625 C 3.109375 -3.625 3.40625 -3.550781 3.65625 -3.40625 C 3.914062 -3.257812 4.113281 -3.046875 4.25 -2.765625 C 4.382812 -2.492188 4.453125 -2.164062 4.453125 -1.78125 C 4.453125 -1.40625 4.375 -1.078125 4.21875 -0.796875 C 4.070312 -0.515625 3.859375 -0.296875 3.578125 -0.140625 C 3.304688 0.00390625 2.984375 0.078125 2.609375 0.078125 Z M 2.609375 -0.5 C 2.972656 -0.5 3.253906 -0.609375 3.453125 -0.828125 C 3.660156 -1.046875 3.765625 -1.363281 3.765625 -1.78125 C 3.765625 -2.195312 3.660156 -2.515625 3.453125 -2.734375 C 3.253906 -2.953125 2.972656 -3.0625 2.609375 -3.0625 C 2.367188 -3.0625 2.15625 -3.007812 1.96875 -2.90625 C 1.789062 -2.8125 1.648438 -2.664062 1.546875 -2.46875 C 1.453125 -2.28125 1.40625 -2.050781 1.40625 -1.78125 C 1.40625 -1.507812 1.453125 -1.28125 1.546875 -1.09375 C 1.648438 -0.90625 1.789062 -0.757812 1.96875 -0.65625 C 2.15625 -0.550781 2.367188 -0.5 2.609375 -0.5 Z M 2.609375 -0.5 "/></g></g><g transform="translate(803.587126, 116.136273)"><g><path d="M 2.3125 0.078125 C 1.914062 0.078125 1.570312 0.015625 1.28125 -0.109375 C 1 -0.242188 0.785156 -0.425781 0.640625 -0.65625 C 0.492188 -0.894531 0.421875 -1.179688 0.421875 -1.515625 C 0.421875 -1.859375 0.503906 -2.144531 0.671875 -2.375 C 0.847656 -2.613281 1.109375 -2.796875 1.453125 -2.921875 L 1.453125 -3 C 1.210938 -3.144531 1.023438 -3.3125 0.890625 -3.5 C 0.765625 -3.6875 0.703125 -3.910156 0.703125 -4.171875 C 0.703125 -4.453125 0.765625 -4.695312 0.890625 -4.90625 C 1.023438 -5.113281 1.210938 -5.273438 1.453125 -5.390625 C 1.703125 -5.503906 1.988281 -5.5625 2.3125 -5.5625 C 2.632812 -5.5625 2.914062 -5.503906 3.15625 -5.390625 C 3.40625 -5.273438 3.59375 -5.113281 3.71875 -4.90625 C 3.851562 -4.695312 3.921875 -4.453125 3.921875 -4.171875 C 3.921875 -3.910156 3.859375 -3.6875 3.734375 -3.5 C 3.609375 -3.3125 3.425781 -3.144531 3.1875 -3 L 3.1875 -2.921875 C 3.519531 -2.796875 3.769531 -2.613281 3.9375 -2.375 C 4.113281 -2.144531 4.203125 -1.859375 4.203125 -1.515625 C 4.203125 -1.179688 4.128906 -0.894531 3.984375 -0.65625 C 3.835938 -0.425781 3.625 -0.242188 3.34375 -0.109375 C 3.0625 0.015625 2.71875 0.078125 2.3125 0.078125 Z M 2.3125 -3.171875 C 2.507812 -3.171875 2.679688 -3.207031 2.828125 -3.28125 C 2.972656 -3.351562 3.085938 -3.457031 3.171875 -3.59375 C 3.253906 -3.738281 3.296875 -3.90625 3.296875 -4.09375 C 3.296875 -4.28125 3.253906 -4.441406 3.171875 -4.578125 C 3.085938 -4.722656 2.972656 -4.832031 2.828125 -4.90625 C 2.679688 -4.976562 2.507812 -5.015625 2.3125 -5.015625 C 2.007812 -5.015625 1.769531 -4.929688 1.59375 -4.765625 C 1.414062 -4.609375 1.328125 -4.382812 1.328125 -4.09375 C 1.328125 -3.8125 1.414062 -3.585938 1.59375 -3.421875 C 1.769531 -3.253906 2.007812 -3.171875 2.3125 -3.171875 Z M 2.3125 -0.484375 C 2.707031 -0.484375 3.007812 -0.578125 3.21875 -0.765625 C 3.425781 -0.953125 3.53125 -1.210938 3.53125 -1.546875 C 3.53125 -1.878906 3.425781 -2.140625 3.21875 -2.328125 C 3.007812 -2.515625 2.707031 -2.609375 2.3125 -2.609375 C 1.914062 -2.609375 1.613281 -2.515625 1.40625 -2.328125 C 1.195312 -2.140625 1.09375 -1.878906 1.09375 -1.546875 C 1.09375 -1.210938 1.195312 -0.953125 1.40625 -0.765625 C 1.613281 -0.578125 1.914062 -0.484375 2.3125 -0.484375 Z M 2.3125 -0.484375 "/></g></g></g><g clip-path="url(#c5d2a8b870)"><path fill="#0cbe46" d="M 824.914062 90.222656 L 850.683594 90.222656 L 850.683594 136.332031 L 824.914062 136.332031 Z M 824.914062 90.222656 " fill-opacity="1" fill-rule="nonzero"/></g><g fill="#000000" fill-opacity="1"><g transform="translate(832.861714, 116.136273)"><g><path d="M 2.609375 0.078125 C 2.222656 0.078125 1.875 -0.015625 1.5625 -0.203125 C 1.257812 -0.390625 1.015625 -0.691406 0.828125 -1.109375 C 0.648438 -1.523438 0.5625 -2.066406 0.5625 -2.734375 C 0.5625 -3.378906 0.648438 -3.910156 0.828125 -4.328125 C 1.015625 -4.753906 1.265625 -5.066406 1.578125 -5.265625 C 1.898438 -5.460938 2.265625 -5.5625 2.671875 -5.5625 C 3.378906 -5.5625 3.894531 -5.347656 4.21875 -4.921875 L 3.90625 -4.484375 L 3.8125 -4.484375 C 3.539062 -4.816406 3.160156 -4.984375 2.671875 -4.984375 C 2.203125 -4.984375 1.84375 -4.800781 1.59375 -4.4375 C 1.34375 -4.082031 1.21875 -3.507812 1.21875 -2.71875 L 1.296875 -2.703125 C 1.441406 -3.015625 1.632812 -3.242188 1.875 -3.390625 C 2.113281 -3.546875 2.410156 -3.625 2.765625 -3.625 C 3.109375 -3.625 3.40625 -3.550781 3.65625 -3.40625 C 3.914062 -3.257812 4.113281 -3.046875 4.25 -2.765625 C 4.382812 -2.492188 4.453125 -2.164062 4.453125 -1.78125 C 4.453125 -1.40625 4.375 -1.078125 4.21875 -0.796875 C 4.070312 -0.515625 3.859375 -0.296875 3.578125 -0.140625 C 3.304688 0.00390625 2.984375 0.078125 2.609375 0.078125 Z M 2.609375 -0.5 C 2.972656 -0.5 3.253906 -0.609375 3.453125 -0.828125 C 3.660156 -1.046875 3.765625 -1.363281 3.765625 -1.78125 C 3.765625 -2.195312 3.660156 -2.515625 3.453125 -2.734375 C 3.253906 -2.953125 2.972656 -3.0625 2.609375 -3.0625 C 2.367188 -3.0625 2.15625 -3.007812 1.96875 -2.90625 C 1.789062 -2.8125 1.648438 -2.664062 1.546875 -2.46875 C 1.453125 -2.28125 1.40625 -2.050781 1.40625 -1.78125 C 1.40625 -1.507812 1.453125 -1.28125 1.546875 -1.09375 C 1.648438 -0.90625 1.789062 -0.757812 1.96875 -0.65625 C 2.15625 -0.550781 2.367188 -0.5 2.609375 -0.5 Z M 2.609375 -0.5 "/></g></g><g transform="translate(837.799, 116.136273)"><g><path d="M 2.3125 0.078125 C 1.84375 0.078125 1.457031 -0.0234375 1.15625 -0.234375 C 0.863281 -0.453125 0.675781 -0.753906 0.59375 -1.140625 L 1.078125 -1.359375 L 1.15625 -1.34375 C 1.238281 -1.0625 1.367188 -0.847656 1.546875 -0.703125 C 1.734375 -0.566406 1.988281 -0.5 2.3125 -0.5 C 2.769531 -0.5 3.117188 -0.6875 3.359375 -1.0625 C 3.597656 -1.445312 3.71875 -2.035156 3.71875 -2.828125 L 3.640625 -2.859375 C 3.484375 -2.546875 3.285156 -2.3125 3.046875 -2.15625 C 2.816406 -2 2.523438 -1.921875 2.171875 -1.921875 C 1.828125 -1.921875 1.523438 -1.992188 1.265625 -2.140625 C 1.015625 -2.296875 0.820312 -2.507812 0.6875 -2.78125 C 0.550781 -3.050781 0.484375 -3.367188 0.484375 -3.734375 C 0.484375 -4.097656 0.554688 -4.414062 0.703125 -4.6875 C 0.859375 -4.96875 1.070312 -5.179688 1.34375 -5.328125 C 1.625 -5.484375 1.945312 -5.5625 2.3125 -5.5625 C 2.957031 -5.5625 3.460938 -5.34375 3.828125 -4.90625 C 4.191406 -4.46875 4.375 -3.765625 4.375 -2.796875 C 4.375 -2.148438 4.285156 -1.609375 4.109375 -1.171875 C 3.929688 -0.742188 3.691406 -0.425781 3.390625 -0.21875 C 3.085938 -0.0195312 2.726562 0.078125 2.3125 0.078125 Z M 2.3125 -2.484375 C 2.5625 -2.484375 2.773438 -2.53125 2.953125 -2.625 C 3.140625 -2.726562 3.28125 -2.875 3.375 -3.0625 C 3.476562 -3.25 3.53125 -3.472656 3.53125 -3.734375 C 3.53125 -3.992188 3.476562 -4.21875 3.375 -4.40625 C 3.28125 -4.59375 3.140625 -4.734375 2.953125 -4.828125 C 2.773438 -4.929688 2.5625 -4.984375 2.3125 -4.984375 C 1.945312 -4.984375 1.660156 -4.875 1.453125 -4.65625 C 1.253906 -4.445312 1.15625 -4.140625 1.15625 -3.734375 C 1.15625 -3.328125 1.253906 -3.015625 1.453125 -2.796875 C 1.660156 -2.585938 1.945312 -2.484375 2.3125 -2.484375 Z M 2.3125 -2.484375 "/></g></g></g><g clip-path="url(#05bbd9ebd0)"><path fill="#0cbe46" d="M 859.277344 90.222656 L 885.046875 90.222656 L 885.046875 136.332031 L 859.277344 136.332031 Z M 859.277344 90.222656 " fill-opacity="1" fill-rule="nonzero"/></g><g fill="#000000" fill-opacity="1"><g transform="translate(867.568514, 116.136273)"><g><path d="M 1.484375 0 L 0.859375 0 L 2.890625 -4.84375 L 2.875 -4.9375 L 0.203125 -4.9375 L 0.203125 -5.484375 L 3.546875 -5.484375 L 3.546875 -4.890625 Z M 1.484375 0 "/></g></g><g transform="translate(871.354892, 116.136273)"><g><path d="M 2.6875 0.078125 C 2.289062 0.078125 1.929688 -0.015625 1.609375 -0.203125 C 1.285156 -0.398438 1.03125 -0.707031 0.84375 -1.125 C 0.65625 -1.550781 0.5625 -2.085938 0.5625 -2.734375 C 0.5625 -3.390625 0.65625 -3.925781 0.84375 -4.34375 C 1.03125 -4.757812 1.285156 -5.066406 1.609375 -5.265625 C 1.929688 -5.460938 2.289062 -5.5625 2.6875 -5.5625 C 3.09375 -5.5625 3.453125 -5.460938 3.765625 -5.265625 C 4.085938 -5.066406 4.34375 -4.757812 4.53125 -4.34375 C 4.726562 -3.925781 4.828125 -3.390625 4.828125 -2.734375 C 4.828125 -2.085938 4.726562 -1.550781 4.53125 -1.125 C 4.34375 -0.707031 4.085938 -0.398438 3.765625 -0.203125 C 3.453125 -0.015625 3.09375 0.078125 2.6875 0.078125 Z M 2.6875 -0.515625 C 3.164062 -0.515625 3.523438 -0.6875 3.765625 -1.03125 C 4.015625 -1.375 4.140625 -1.941406 4.140625 -2.734375 C 4.140625 -3.523438 4.015625 -4.09375 3.765625 -4.4375 C 3.523438 -4.78125 3.164062 -4.953125 2.6875 -4.953125 C 2.375 -4.953125 2.109375 -4.878906 1.890625 -4.734375 C 1.679688 -4.597656 1.519531 -4.363281 1.40625 -4.03125 C 1.289062 -3.707031 1.234375 -3.273438 1.234375 -2.734375 C 1.234375 -2.203125 1.289062 -1.769531 1.40625 -1.4375 C 1.519531 -1.113281 1.679688 -0.878906 1.890625 -0.734375 C 2.109375 -0.585938 2.375 -0.515625 2.6875 -0.515625 Z M 2.6875 -0.515625 "/></g></g></g><g clip-path="url(#7027906690)"><path fill="#ffffff" d="M 895.046875 174.675781 L 895.046875 750.726562 L 780.550781 750.726562 L 780.550781 174.675781 Z M 895.046875 174.675781 " fill-opacity="1" fill-rule="nonzero"/></g><g clip-path="url(#349fe5c9a5)"><path stroke-linecap="butt" transform="matrix(0, 0.479858, -0.479858, 0, 895.045281, 174.685281)" fill="none" stroke-linejoin="miter" d="M -0.00351575 -0.00332141 L 1199.96955 -0.00332141 L 1199.96955 238.592765 L -0.00351575 238.592765 Z M -0.00351575 -0.00332141 " stroke="#0cbe46" stroke-width="8" stroke-opacity="1" stroke-miterlimit="4"/></g><g clip-path="url(#0e52ac4143)"><path fill="#0cbe46" d="M 809.175781 190.820312 L 866.398438 190.820312 L 866.398438 236.886719 L 809.175781 236.886719 Z M 809.175781 190.820312 " fill-opacity="1" fill-rule="nonzero"/></g><g fill="#000000" fill-opacity="1"><g transform="translate(833.431574, 216.733689)"><g><path d="M 2.3125 0.078125 C 1.914062 0.078125 1.570312 0.015625 1.28125 -0.109375 C 1 -0.242188 0.785156 -0.425781 0.640625 -0.65625 C 0.492188 -0.894531 0.421875 -1.179688 0.421875 -1.515625 C 0.421875 -1.859375 0.503906 -2.144531 0.671875 -2.375 C 0.847656 -2.613281 1.109375 -2.796875 1.453125 -2.921875 L 1.453125 -3 C 1.210938 -3.144531 1.023438 -3.3125 0.890625 -3.5 C 0.765625 -3.6875 0.703125 -3.910156 0.703125 -4.171875 C 0.703125 -4.453125 0.765625 -4.695312 0.890625 -4.90625 C 1.023438 -5.113281 1.210938 -5.273438 1.453125 -5.390625 C 1.703125 -5.503906 1.988281 -5.5625 2.3125 -5.5625 C 2.632812 -5.5625 2.914062 -5.503906 3.15625 -5.390625 C 3.40625 -5.273438 3.59375 -5.113281 3.71875 -4.90625 C 3.851562 -4.695312 3.921875 -4.453125 3.921875 -4.171875 C 3.921875 -3.910156 3.859375 -3.6875 3.734375 -3.5 C 3.609375 -3.3125 3.425781 -3.144531 3.1875 -3 L 3.1875 -2.921875 C 3.519531 -2.796875 3.769531 -2.613281 3.9375 -2.375 C 4.113281 -2.144531 4.203125 -1.859375 4.203125 -1.515625 C 4.203125 -1.179688 4.128906 -0.894531 3.984375 -0.65625 C 3.835938 -0.425781 3.625 -0.242188 3.34375 -0.109375 C 3.0625 0.015625 2.71875 0.078125 2.3125 0.078125 Z M 2.3125 -3.171875 C 2.507812 -3.171875 2.679688 -3.207031 2.828125 -3.28125 C 2.972656 -3.351562 3.085938 -3.457031 3.171875 -3.59375 C 3.253906 -3.738281 3.296875 -3.90625 3.296875 -4.09375 C 3.296875 -4.28125 3.253906 -4.441406 3.171875 -4.578125 C 3.085938 -4.722656 2.972656 -4.832031 2.828125 -4.90625 C 2.679688 -4.976562 2.507812 -5.015625 2.3125 -5.015625 C 2.007812 -5.015625 1.769531 -4.929688 1.59375 -4.765625 C 1.414062 -4.609375 1.328125 -4.382812 1.328125 -4.09375 C 1.328125 -3.8125 1.414062 -3.585938 1.59375 -3.421875 C 1.769531 -3.253906 2.007812 -3.171875 2.3125 -3.171875 Z M 2.3125 -0.484375 C 2.707031 -0.484375 3.007812 -0.578125 3.21875 -0.765625 C 3.425781 -0.953125 3.53125 -1.210938 3.53125 -1.546875 C 3.53125 -1.878906 3.425781 -2.140625 3.21875 -2.328125 C 3.007812 -2.515625 2.707031 -2.609375 2.3125 -2.609375 C 1.914062 -2.609375 1.613281 -2.515625 1.40625 -2.328125 C 1.195312 -2.140625 1.09375 -1.878906 1.09375 -1.546875 C 1.09375 -1.210938 1.195312 -0.953125 1.40625 -0.765625 C 1.613281 -0.578125 1.914062 -0.484375 2.3125 -0.484375 Z M 2.3125 -0.484375 "/></g></g><g transform="translate(838.06895, 216.733689)"><g><path d="M 0.390625 0 L 0.390625 -0.53125 L 1.890625 -0.53125 L 1.890625 -4.71875 L 1.796875 -4.75 C 1.554688 -4.625 1.34375 -4.53125 1.15625 -4.46875 C 0.976562 -4.40625 0.742188 -4.34375 0.453125 -4.28125 L 0.453125 -4.875 C 0.742188 -4.9375 1.023438 -5.015625 1.296875 -5.109375 C 1.578125 -5.210938 1.828125 -5.335938 2.046875 -5.484375 L 2.515625 -5.484375 L 2.515625 -0.53125 L 3.84375 -0.53125 L 3.84375 0 Z M 0.390625 0 "/></g></g></g><g clip-path="url(#bef67a17fc)"><path fill="#0cbe46" d="M 809.175781 525.109375 L 866.398438 525.109375 L 866.398438 571.175781 L 809.175781 571.175781 Z M 809.175781 525.109375 " fill-opacity="1" fill-rule="nonzero"/></g><g fill="#000000" fill-opacity="1"><g transform="translate(833.581529, 551.021827)"><g><path d="M 2.3125 0.078125 C 1.914062 0.078125 1.570312 0.015625 1.28125 -0.109375 C 1 -0.242188 0.785156 -0.425781 0.640625 -0.65625 C 0.492188 -0.894531 0.421875 -1.179688 0.421875 -1.515625 C 0.421875 -1.859375 0.503906 -2.144531 0.671875 -2.375 C 0.847656 -2.613281 1.109375 -2.796875 1.453125 -2.921875 L 1.453125 -3 C 1.210938 -3.144531 1.023438 -3.3125 0.890625 -3.5 C 0.765625 -3.6875 0.703125 -3.910156 0.703125 -4.171875 C 0.703125 -4.453125 0.765625 -4.695312 0.890625 -4.90625 C 1.023438 -5.113281 1.210938 -5.273438 1.453125 -5.390625 C 1.703125 -5.503906 1.988281 -5.5625 2.3125 -5.5625 C 2.632812 -5.5625 2.914062 -5.503906 3.15625 -5.390625 C 3.40625 -5.273438 3.59375 -5.113281 3.71875 -4.90625 C 3.851562 -4.695312 3.921875 -4.453125 3.921875 -4.171875 C 3.921875 -3.910156 3.859375 -3.6875 3.734375 -3.5 C 3.609375 -3.3125 3.425781 -3.144531 3.1875 -3 L 3.1875 -2.921875 C 3.519531 -2.796875 3.769531 -2.613281 3.9375 -2.375 C 4.113281 -2.144531 4.203125 -1.859375 4.203125 -1.515625 C 4.203125 -1.179688 4.128906 -0.894531 3.984375 -0.65625 C 3.835938 -0.425781 3.625 -0.242188 3.34375 -0.109375 C 3.0625 0.015625 2.71875 0.078125 2.3125 0.078125 Z M 2.3125 -3.171875 C 2.507812 -3.171875 2.679688 -3.207031 2.828125 -3.28125 C 2.972656 -3.351562 3.085938 -3.457031 3.171875 -3.59375 C 3.253906 -3.738281 3.296875 -3.90625 3.296875 -4.09375 C 3.296875 -4.28125 3.253906 -4.441406 3.171875 -4.578125 C 3.085938 -4.722656 2.972656 -4.832031 2.828125 -4.90625 C 2.679688 -4.976562 2.507812 -5.015625 2.3125 -5.015625 C 2.007812 -5.015625 1.769531 -4.929688 1.59375 -4.765625 C 1.414062 -4.609375 1.328125 -4.382812 1.328125 -4.09375 C 1.328125 -3.8125 1.414062 -3.585938 1.59375 -3.421875 C 1.769531 -3.253906 2.007812 -3.171875 2.3125 -3.171875 Z M 2.3125 -0.484375 C 2.707031 -0.484375 3.007812 -0.578125 3.21875 -0.765625 C 3.425781 -0.953125 3.53125 -1.210938 3.53125 -1.546875 C 3.53125 -1.878906 3.425781 -2.140625 3.21875 -2.328125 C 3.007812 -2.515625 2.707031 -2.609375 2.3125 -2.609375 C 1.914062 -2.609375 1.613281 -2.515625 1.40625 -2.328125 C 1.195312 -2.140625 1.09375 -1.878906 1.09375 -1.546875 C 1.09375 -1.210938 1.195312 -0.953125 1.40625 -0.765625 C 1.613281 -0.578125 1.914062 -0.484375 2.3125 -0.484375 Z M 2.3125 -0.484375 "/></g></g><g transform="translate(838.218905, 551.021827)"><g><path d="M 1.484375 0 L 0.859375 0 L 2.890625 -4.84375 L 2.875 -4.9375 L 0.203125 -4.9375 L 0.203125 -5.484375 L 3.546875 -5.484375 L 3.546875 -4.890625 Z M 1.484375 0 "/></g></g></g><g clip-path="url(#03ede39221)"><path fill="#0cbe46" d="M 809.175781 469.445312 L 866.398438 469.445312 L 866.398438 515.511719 L 809.175781 515.511719 Z M 809.175781 469.445312 " fill-opacity="1" fill-rule="nonzero"/></g><g fill="#000000" fill-opacity="1"><g transform="translate(833.011698, 495.358294)"><g><path d="M 2.3125 0.078125 C 1.914062 0.078125 1.570312 0.015625 1.28125 -0.109375 C 1 -0.242188 0.785156 -0.425781 0.640625 -0.65625 C 0.492188 -0.894531 0.421875 -1.179688 0.421875 -1.515625 C 0.421875 -1.859375 0.503906 -2.144531 0.671875 -2.375 C 0.847656 -2.613281 1.109375 -2.796875 1.453125 -2.921875 L 1.453125 -3 C 1.210938 -3.144531 1.023438 -3.3125 0.890625 -3.5 C 0.765625 -3.6875 0.703125 -3.910156 0.703125 -4.171875 C 0.703125 -4.453125 0.765625 -4.695312 0.890625 -4.90625 C 1.023438 -5.113281 1.210938 -5.273438 1.453125 -5.390625 C 1.703125 -5.503906 1.988281 -5.5625 2.3125 -5.5625 C 2.632812 -5.5625 2.914062 -5.503906 3.15625 -5.390625 C 3.40625 -5.273438 3.59375 -5.113281 3.71875 -4.90625 C 3.851562 -4.695312 3.921875 -4.453125 3.921875 -4.171875 C 3.921875 -3.910156 3.859375 -3.6875 3.734375 -3.5 C 3.609375 -3.3125 3.425781 -3.144531 3.1875 -3 L 3.1875 -2.921875 C 3.519531 -2.796875 3.769531 -2.613281 3.9375 -2.375 C 4.113281 -2.144531 4.203125 -1.859375 4.203125 -1.515625 C 4.203125 -1.179688 4.128906 -0.894531 3.984375 -0.65625 C 3.835938 -0.425781 3.625 -0.242188 3.34375 -0.109375 C 3.0625 0.015625 2.71875 0.078125 2.3125 0.078125 Z M 2.3125 -3.171875 C 2.507812 -3.171875 2.679688 -3.207031 2.828125 -3.28125 C 2.972656 -3.351562 3.085938 -3.457031 3.171875 -3.59375 C 3.253906 -3.738281 3.296875 -3.90625 3.296875 -4.09375 C 3.296875 -4.28125 3.253906 -4.441406 3.171875 -4.578125 C 3.085938 -4.722656 2.972656 -4.832031 2.828125 -4.90625 C 2.679688 -4.976562 2.507812 -5.015625 2.3125 -5.015625 C 2.007812 -5.015625 1.769531 -4.929688 1.59375 -4.765625 C 1.414062 -4.609375 1.328125 -4.382812 1.328125 -4.09375 C 1.328125 -3.8125 1.414062 -3.585938 1.59375 -3.421875 C 1.769531 -3.253906 2.007812 -3.171875 2.3125 -3.171875 Z M 2.3125 -0.484375 C 2.707031 -0.484375 3.007812 -0.578125 3.21875 -0.765625 C 3.425781 -0.953125 3.53125 -1.210938 3.53125 -1.546875 C 3.53125 -1.878906 3.425781 -2.140625 3.21875 -2.328125 C 3.007812 -2.515625 2.707031 -2.609375 2.3125 -2.609375 C 1.914062 -2.609375 1.613281 -2.515625 1.40625 -2.328125 C 1.195312 -2.140625 1.09375 -1.878906 1.09375 -1.546875 C 1.09375 -1.210938 1.195312 -0.953125 1.40625 -0.765625 C 1.613281 -0.578125 1.914062 -0.484375 2.3125 -0.484375 Z M 2.3125 -0.484375 "/></g></g><g transform="translate(837.649074, 495.358294)"><g><path d="M 2.609375 0.078125 C 2.222656 0.078125 1.875 -0.015625 1.5625 -0.203125 C 1.257812 -0.390625 1.015625 -0.691406 0.828125 -1.109375 C 0.648438 -1.523438 0.5625 -2.066406 0.5625 -2.734375 C 0.5625 -3.378906 0.648438 -3.910156 0.828125 -4.328125 C 1.015625 -4.753906 1.265625 -5.066406 1.578125 -5.265625 C 1.898438 -5.460938 2.265625 -5.5625 2.671875 -5.5625 C 3.378906 -5.5625 3.894531 -5.347656 4.21875 -4.921875 L 3.90625 -4.484375 L 3.8125 -4.484375 C 3.539062 -4.816406 3.160156 -4.984375 2.671875 -4.984375 C 2.203125 -4.984375 1.84375 -4.800781 1.59375 -4.4375 C 1.34375 -4.082031 1.21875 -3.507812 1.21875 -2.71875 L 1.296875 -2.703125 C 1.441406 -3.015625 1.632812 -3.242188 1.875 -3.390625 C 2.113281 -3.546875 2.410156 -3.625 2.765625 -3.625 C 3.109375 -3.625 3.40625 -3.550781 3.65625 -3.40625 C 3.914062 -3.257812 4.113281 -3.046875 4.25 -2.765625 C 4.382812 -2.492188 4.453125 -2.164062 4.453125 -1.78125 C 4.453125 -1.40625 4.375 -1.078125 4.21875 -0.796875 C 4.070312 -0.515625 3.859375 -0.296875 3.578125 -0.140625 C 3.304688 0.00390625 2.984375 0.078125 2.609375 0.078125 Z M 2.609375 -0.5 C 2.972656 -0.5 3.253906 -0.609375 3.453125 -0.828125 C 3.660156 -1.046875 3.765625 -1.363281 3.765625 -1.78125 C 3.765625 -2.195312 3.660156 -2.515625 3.453125 -2.734375 C 3.253906 -2.953125 2.972656 -3.0625 2.609375 -3.0625 C 2.367188 -3.0625 2.15625 -3.007812 1.96875 -2.90625 C 1.789062 -2.8125 1.648438 -2.664062 1.546875 -2.46875 C 1.453125 -2.28125 1.40625 -2.050781 1.40625 -1.78125 C 1.40625 -1.507812 1.453125 -1.28125 1.546875 -1.09375 C 1.648438 -0.90625 1.789062 -0.757812 1.96875 -0.65625 C 2.15625 -0.550781 2.367188 -0.5 2.609375 -0.5 Z M 2.609375 -0.5 "/></g></g></g><g clip-path="url(#8a6f495490)"><path fill="#0cbe46" d="M 809.175781 413.78125 L 866.398438 413.78125 L 866.398438 459.847656 L 809.175781 459.847656 Z M 809.175781 413.78125 " fill-opacity="1" fill-rule="nonzero"/></g><g fill="#000000" fill-opacity="1"><g transform="translate(833.20664, 439.694784)"><g><path d="M 2.3125 0.078125 C 1.914062 0.078125 1.570312 0.015625 1.28125 -0.109375 C 1 -0.242188 0.785156 -0.425781 0.640625 -0.65625 C 0.492188 -0.894531 0.421875 -1.179688 0.421875 -1.515625 C 0.421875 -1.859375 0.503906 -2.144531 0.671875 -2.375 C 0.847656 -2.613281 1.109375 -2.796875 1.453125 -2.921875 L 1.453125 -3 C 1.210938 -3.144531 1.023438 -3.3125 0.890625 -3.5 C 0.765625 -3.6875 0.703125 -3.910156 0.703125 -4.171875 C 0.703125 -4.453125 0.765625 -4.695312 0.890625 -4.90625 C 1.023438 -5.113281 1.210938 -5.273438 1.453125 -5.390625 C 1.703125 -5.503906 1.988281 -5.5625 2.3125 -5.5625 C 2.632812 -5.5625 2.914062 -5.503906 3.15625 -5.390625 C 3.40625 -5.273438 3.59375 -5.113281 3.71875 -4.90625 C 3.851562 -4.695312 3.921875 -4.453125 3.921875 -4.171875 C 3.921875 -3.910156 3.859375 -3.6875 3.734375 -3.5 C 3.609375 -3.3125 3.425781 -3.144531 3.1875 -3 L 3.1875 -2.921875 C 3.519531 -2.796875 3.769531 -2.613281 3.9375 -2.375 C 4.113281 -2.144531 4.203125 -1.859375 4.203125 -1.515625 C 4.203125 -1.179688 4.128906 -0.894531 3.984375 -0.65625 C 3.835938 -0.425781 3.625 -0.242188 3.34375 -0.109375 C 3.0625 0.015625 2.71875 0.078125 2.3125 0.078125 Z M 2.3125 -3.171875 C 2.507812 -3.171875 2.679688 -3.207031 2.828125 -3.28125 C 2.972656 -3.351562 3.085938 -3.457031 3.171875 -3.59375 C 3.253906 -3.738281 3.296875 -3.90625 3.296875 -4.09375 C 3.296875 -4.28125 3.253906 -4.441406 3.171875 -4.578125 C 3.085938 -4.722656 2.972656 -4.832031 2.828125 -4.90625 C 2.679688 -4.976562 2.507812 -5.015625 2.3125 -5.015625 C 2.007812 -5.015625 1.769531 -4.929688 1.59375 -4.765625 C 1.414062 -4.609375 1.328125 -4.382812 1.328125 -4.09375 C 1.328125 -3.8125 1.414062 -3.585938 1.59375 -3.421875 C 1.769531 -3.253906 2.007812 -3.171875 2.3125 -3.171875 Z M 2.3125 -0.484375 C 2.707031 -0.484375 3.007812 -0.578125 3.21875 -0.765625 C 3.425781 -0.953125 3.53125 -1.210938 3.53125 -1.546875 C 3.53125 -1.878906 3.425781 -2.140625 3.21875 -2.328125 C 3.007812 -2.515625 2.707031 -2.609375 2.3125 -2.609375 C 1.914062 -2.609375 1.613281 -2.515625 1.40625 -2.328125 C 1.195312 -2.140625 1.09375 -1.878906 1.09375 -1.546875 C 1.09375 -1.210938 1.195312 -0.953125 1.40625 -0.765625 C 1.613281 -0.578125 1.914062 -0.484375 2.3125 -0.484375 Z M 2.3125 -0.484375 "/></g></g><g transform="translate(837.844016, 439.694784)"><g><path d="M 2.25 0.078125 C 1.738281 0.078125 1.328125 -0.0351562 1.015625 -0.265625 C 0.710938 -0.492188 0.519531 -0.816406 0.4375 -1.234375 L 0.90625 -1.453125 L 1 -1.4375 C 1.0625 -1.21875 1.140625 -1.039062 1.234375 -0.90625 C 1.335938 -0.769531 1.472656 -0.664062 1.640625 -0.59375 C 1.804688 -0.53125 2.007812 -0.5 2.25 -0.5 C 2.625 -0.5 2.910156 -0.609375 3.109375 -0.828125 C 3.316406 -1.054688 3.421875 -1.378906 3.421875 -1.796875 C 3.421875 -2.222656 3.320312 -2.546875 3.125 -2.765625 C 2.925781 -2.992188 2.644531 -3.109375 2.28125 -3.109375 C 2.007812 -3.109375 1.789062 -3.050781 1.625 -2.9375 C 1.457031 -2.832031 1.304688 -2.664062 1.171875 -2.4375 L 0.65625 -2.484375 L 0.765625 -5.484375 L 3.828125 -5.484375 L 3.828125 -4.9375 L 1.328125 -4.9375 L 1.265625 -3.109375 L 1.34375 -3.09375 C 1.46875 -3.28125 1.625 -3.421875 1.8125 -3.515625 C 2 -3.609375 2.222656 -3.65625 2.484375 -3.65625 C 2.804688 -3.65625 3.085938 -3.582031 3.328125 -3.4375 C 3.578125 -3.289062 3.769531 -3.078125 3.90625 -2.796875 C 4.039062 -2.523438 4.109375 -2.191406 4.109375 -1.796875 C 4.109375 -1.410156 4.03125 -1.070312 3.875 -0.78125 C 3.71875 -0.5 3.5 -0.285156 3.21875 -0.140625 C 2.945312 0.00390625 2.625 0.078125 2.25 0.078125 Z M 2.25 0.078125 "/></g></g></g><g clip-path="url(#a3473cd009)"><path fill="#0cbe46" d="M 809.175781 358.117188 L 866.398438 358.117188 L 866.398438 404.183594 L 809.175781 404.183594 Z M 809.175781 358.117188 " fill-opacity="1" fill-rule="nonzero"/></g><g fill="#000000" fill-opacity="1"><g transform="translate(833.154156, 384.031287)"><g><path d="M 2.3125 0.078125 C 1.914062 0.078125 1.570312 0.015625 1.28125 -0.109375 C 1 -0.242188 0.785156 -0.425781 0.640625 -0.65625 C 0.492188 -0.894531 0.421875 -1.179688 0.421875 -1.515625 C 0.421875 -1.859375 0.503906 -2.144531 0.671875 -2.375 C 0.847656 -2.613281 1.109375 -2.796875 1.453125 -2.921875 L 1.453125 -3 C 1.210938 -3.144531 1.023438 -3.3125 0.890625 -3.5 C 0.765625 -3.6875 0.703125 -3.910156 0.703125 -4.171875 C 0.703125 -4.453125 0.765625 -4.695312 0.890625 -4.90625 C 1.023438 -5.113281 1.210938 -5.273438 1.453125 -5.390625 C 1.703125 -5.503906 1.988281 -5.5625 2.3125 -5.5625 C 2.632812 -5.5625 2.914062 -5.503906 3.15625 -5.390625 C 3.40625 -5.273438 3.59375 -5.113281 3.71875 -4.90625 C 3.851562 -4.695312 3.921875 -4.453125 3.921875 -4.171875 C 3.921875 -3.910156 3.859375 -3.6875 3.734375 -3.5 C 3.609375 -3.3125 3.425781 -3.144531 3.1875 -3 L 3.1875 -2.921875 C 3.519531 -2.796875 3.769531 -2.613281 3.9375 -2.375 C 4.113281 -2.144531 4.203125 -1.859375 4.203125 -1.515625 C 4.203125 -1.179688 4.128906 -0.894531 3.984375 -0.65625 C 3.835938 -0.425781 3.625 -0.242188 3.34375 -0.109375 C 3.0625 0.015625 2.71875 0.078125 2.3125 0.078125 Z M 2.3125 -3.171875 C 2.507812 -3.171875 2.679688 -3.207031 2.828125 -3.28125 C 2.972656 -3.351562 3.085938 -3.457031 3.171875 -3.59375 C 3.253906 -3.738281 3.296875 -3.90625 3.296875 -4.09375 C 3.296875 -4.28125 3.253906 -4.441406 3.171875 -4.578125 C 3.085938 -4.722656 2.972656 -4.832031 2.828125 -4.90625 C 2.679688 -4.976562 2.507812 -5.015625 2.3125 -5.015625 C 2.007812 -5.015625 1.769531 -4.929688 1.59375 -4.765625 C 1.414062 -4.609375 1.328125 -4.382812 1.328125 -4.09375 C 1.328125 -3.8125 1.414062 -3.585938 1.59375 -3.421875 C 1.769531 -3.253906 2.007812 -3.171875 2.3125 -3.171875 Z M 2.3125 -0.484375 C 2.707031 -0.484375 3.007812 -0.578125 3.21875 -0.765625 C 3.425781 -0.953125 3.53125 -1.210938 3.53125 -1.546875 C 3.53125 -1.878906 3.425781 -2.140625 3.21875 -2.328125 C 3.007812 -2.515625 2.707031 -2.609375 2.3125 -2.609375 C 1.914062 -2.609375 1.613281 -2.515625 1.40625 -2.328125 C 1.195312 -2.140625 1.09375 -1.878906 1.09375 -1.546875 C 1.09375 -1.210938 1.195312 -0.953125 1.40625 -0.765625 C 1.613281 -0.578125 1.914062 -0.484375 2.3125 -0.484375 Z M 2.3125 -0.484375 "/></g></g><g transform="translate(837.791532, 384.031287)"><g><path d="M 3.421875 0 L 2.8125 0 L 2.8125 -1.3125 L 0.25 -1.3125 L 0.25 -1.828125 L 2.671875 -5.484375 L 3.421875 -5.484375 L 3.421875 -1.828125 L 4.375 -1.828125 L 4.375 -1.3125 L 3.421875 -1.3125 Z M 1 -1.90625 L 1.046875 -1.828125 L 2.8125 -1.828125 L 2.8125 -4.578125 L 2.734375 -4.59375 Z M 1 -1.90625 "/></g></g></g><g clip-path="url(#544c1049e4)"><path fill="#0cbe46" d="M 809.175781 302.457031 L 866.398438 302.457031 L 866.398438 348.523438 L 809.175781 348.523438 Z M 809.175781 302.457031 " fill-opacity="1" fill-rule="nonzero"/></g><g fill="#000000" fill-opacity="1"><g transform="translate(833.251627, 328.367756)"><g><path d="M 2.3125 0.078125 C 1.914062 0.078125 1.570312 0.015625 1.28125 -0.109375 C 1 -0.242188 0.785156 -0.425781 0.640625 -0.65625 C 0.492188 -0.894531 0.421875 -1.179688 0.421875 -1.515625 C 0.421875 -1.859375 0.503906 -2.144531 0.671875 -2.375 C 0.847656 -2.613281 1.109375 -2.796875 1.453125 -2.921875 L 1.453125 -3 C 1.210938 -3.144531 1.023438 -3.3125 0.890625 -3.5 C 0.765625 -3.6875 0.703125 -3.910156 0.703125 -4.171875 C 0.703125 -4.453125 0.765625 -4.695312 0.890625 -4.90625 C 1.023438 -5.113281 1.210938 -5.273438 1.453125 -5.390625 C 1.703125 -5.503906 1.988281 -5.5625 2.3125 -5.5625 C 2.632812 -5.5625 2.914062 -5.503906 3.15625 -5.390625 C 3.40625 -5.273438 3.59375 -5.113281 3.71875 -4.90625 C 3.851562 -4.695312 3.921875 -4.453125 3.921875 -4.171875 C 3.921875 -3.910156 3.859375 -3.6875 3.734375 -3.5 C 3.609375 -3.3125 3.425781 -3.144531 3.1875 -3 L 3.1875 -2.921875 C 3.519531 -2.796875 3.769531 -2.613281 3.9375 -2.375 C 4.113281 -2.144531 4.203125 -1.859375 4.203125 -1.515625 C 4.203125 -1.179688 4.128906 -0.894531 3.984375 -0.65625 C 3.835938 -0.425781 3.625 -0.242188 3.34375 -0.109375 C 3.0625 0.015625 2.71875 0.078125 2.3125 0.078125 Z M 2.3125 -3.171875 C 2.507812 -3.171875 2.679688 -3.207031 2.828125 -3.28125 C 2.972656 -3.351562 3.085938 -3.457031 3.171875 -3.59375 C 3.253906 -3.738281 3.296875 -3.90625 3.296875 -4.09375 C 3.296875 -4.28125 3.253906 -4.441406 3.171875 -4.578125 C 3.085938 -4.722656 2.972656 -4.832031 2.828125 -4.90625 C 2.679688 -4.976562 2.507812 -5.015625 2.3125 -5.015625 C 2.007812 -5.015625 1.769531 -4.929688 1.59375 -4.765625 C 1.414062 -4.609375 1.328125 -4.382812 1.328125 -4.09375 C 1.328125 -3.8125 1.414062 -3.585938 1.59375 -3.421875 C 1.769531 -3.253906 2.007812 -3.171875 2.3125 -3.171875 Z M 2.3125 -0.484375 C 2.707031 -0.484375 3.007812 -0.578125 3.21875 -0.765625 C 3.425781 -0.953125 3.53125 -1.210938 3.53125 -1.546875 C 3.53125 -1.878906 3.425781 -2.140625 3.21875 -2.328125 C 3.007812 -2.515625 2.707031 -2.609375 2.3125 -2.609375 C 1.914062 -2.609375 1.613281 -2.515625 1.40625 -2.328125 C 1.195312 -2.140625 1.09375 -1.878906 1.09375 -1.546875 C 1.09375 -1.210938 1.195312 -0.953125 1.40625 -0.765625 C 1.613281 -0.578125 1.914062 -0.484375 2.3125 -0.484375 Z M 2.3125 -0.484375 "/></g></g><g transform="translate(837.889003, 328.367756)"><g><path d="M 2.171875 0.078125 C 1.640625 0.078125 1.21875 -0.0390625 0.90625 -0.28125 C 0.59375 -0.519531 0.390625 -0.851562 0.296875 -1.28125 L 0.78125 -1.5 L 0.859375 -1.484375 C 0.953125 -1.148438 1.097656 -0.898438 1.296875 -0.734375 C 1.492188 -0.578125 1.785156 -0.5 2.171875 -0.5 C 2.554688 -0.5 2.847656 -0.585938 3.046875 -0.765625 C 3.253906 -0.941406 3.359375 -1.203125 3.359375 -1.546875 C 3.359375 -1.890625 3.253906 -2.148438 3.046875 -2.328125 C 2.835938 -2.503906 2.515625 -2.59375 2.078125 -2.59375 L 1.484375 -2.59375 L 1.484375 -3.125 L 2.015625 -3.125 C 2.359375 -3.125 2.628906 -3.207031 2.828125 -3.375 C 3.035156 -3.550781 3.140625 -3.796875 3.140625 -4.109375 C 3.140625 -4.398438 3.050781 -4.617188 2.875 -4.765625 C 2.695312 -4.921875 2.453125 -5 2.140625 -5 C 1.585938 -5 1.191406 -4.773438 0.953125 -4.328125 L 0.875 -4.3125 L 0.515625 -4.71875 C 0.660156 -4.96875 0.867188 -5.171875 1.140625 -5.328125 C 1.421875 -5.484375 1.753906 -5.5625 2.140625 -5.5625 C 2.484375 -5.5625 2.773438 -5.503906 3.015625 -5.390625 C 3.265625 -5.285156 3.453125 -5.128906 3.578125 -4.921875 C 3.710938 -4.710938 3.78125 -4.46875 3.78125 -4.1875 C 3.78125 -3.914062 3.703125 -3.675781 3.546875 -3.46875 C 3.390625 -3.269531 3.179688 -3.113281 2.921875 -3 L 2.921875 -2.921875 C 3.285156 -2.828125 3.554688 -2.660156 3.734375 -2.421875 C 3.921875 -2.191406 4.015625 -1.898438 4.015625 -1.546875 C 4.015625 -1.023438 3.859375 -0.625 3.546875 -0.34375 C 3.242188 -0.0625 2.785156 0.078125 2.171875 0.078125 Z M 2.171875 0.078125 "/></g></g></g><g clip-path="url(#d13e21026a)"><path fill="#0cbe46" d="M 809.175781 246.636719 L 866.398438 246.636719 L 866.398438 292.703125 L 809.175781 292.703125 Z M 809.175781 246.636719 " fill-opacity="1" fill-rule="nonzero"/></g><g fill="#000000" fill-opacity="1"><g transform="translate(833.371592, 272.550736)"><g><path d="M 2.3125 0.078125 C 1.914062 0.078125 1.570312 0.015625 1.28125 -0.109375 C 1 -0.242188 0.785156 -0.425781 0.640625 -0.65625 C 0.492188 -0.894531 0.421875 -1.179688 0.421875 -1.515625 C 0.421875 -1.859375 0.503906 -2.144531 0.671875 -2.375 C 0.847656 -2.613281 1.109375 -2.796875 1.453125 -2.921875 L 1.453125 -3 C 1.210938 -3.144531 1.023438 -3.3125 0.890625 -3.5 C 0.765625 -3.6875 0.703125 -3.910156 0.703125 -4.171875 C 0.703125 -4.453125 0.765625 -4.695312 0.890625 -4.90625 C 1.023438 -5.113281 1.210938 -5.273438 1.453125 -5.390625 C 1.703125 -5.503906 1.988281 -5.5625 2.3125 -5.5625 C 2.632812 -5.5625 2.914062 -5.503906 3.15625 -5.390625 C 3.40625 -5.273438 3.59375 -5.113281 3.71875 -4.90625 C 3.851562 -4.695312 3.921875 -4.453125 3.921875 -4.171875 C 3.921875 -3.910156 3.859375 -3.6875 3.734375 -3.5 C 3.609375 -3.3125 3.425781 -3.144531 3.1875 -3 L 3.1875 -2.921875 C 3.519531 -2.796875 3.769531 -2.613281 3.9375 -2.375 C 4.113281 -2.144531 4.203125 -1.859375 4.203125 -1.515625 C 4.203125 -1.179688 4.128906 -0.894531 3.984375 -0.65625 C 3.835938 -0.425781 3.625 -0.242188 3.34375 -0.109375 C 3.0625 0.015625 2.71875 0.078125 2.3125 0.078125 Z M 2.3125 -3.171875 C 2.507812 -3.171875 2.679688 -3.207031 2.828125 -3.28125 C 2.972656 -3.351562 3.085938 -3.457031 3.171875 -3.59375 C 3.253906 -3.738281 3.296875 -3.90625 3.296875 -4.09375 C 3.296875 -4.28125 3.253906 -4.441406 3.171875 -4.578125 C 3.085938 -4.722656 2.972656 -4.832031 2.828125 -4.90625 C 2.679688 -4.976562 2.507812 -5.015625 2.3125 -5.015625 C 2.007812 -5.015625 1.769531 -4.929688 1.59375 -4.765625 C 1.414062 -4.609375 1.328125 -4.382812 1.328125 -4.09375 C 1.328125 -3.8125 1.414062 -3.585938 1.59375 -3.421875 C 1.769531 -3.253906 2.007812 -3.171875 2.3125 -3.171875 Z M 2.3125 -0.484375 C 2.707031 -0.484375 3.007812 -0.578125 3.21875 -0.765625 C 3.425781 -0.953125 3.53125 -1.210938 3.53125 -1.546875 C 3.53125 -1.878906 3.425781 -2.140625 3.21875 -2.328125 C 3.007812 -2.515625 2.707031 -2.609375 2.3125 -2.609375 C 1.914062 -2.609375 1.613281 -2.515625 1.40625 -2.328125 C 1.195312 -2.140625 1.09375 -1.878906 1.09375 -1.546875 C 1.09375 -1.210938 1.195312 -0.953125 1.40625 -0.765625 C 1.613281 -0.578125 1.914062 -0.484375 2.3125 -0.484375 Z M 2.3125 -0.484375 "/></g></g><g transform="translate(838.008967, 272.550736)"><g><path d="M 0.328125 -0.25 C 0.328125 -0.550781 0.359375 -0.796875 0.421875 -0.984375 C 0.492188 -1.171875 0.609375 -1.34375 0.765625 -1.5 C 0.921875 -1.65625 1.175781 -1.863281 1.53125 -2.125 L 2.140625 -2.5625 C 2.359375 -2.71875 2.535156 -2.863281 2.671875 -3 C 2.816406 -3.144531 2.925781 -3.296875 3 -3.453125 C 3.082031 -3.617188 3.125 -3.800781 3.125 -4 C 3.125 -4.320312 3.035156 -4.566406 2.859375 -4.734375 C 2.691406 -4.898438 2.425781 -4.984375 2.0625 -4.984375 C 1.769531 -4.984375 1.507812 -4.914062 1.28125 -4.78125 C 1.0625 -4.644531 0.882812 -4.453125 0.75 -4.203125 L 0.671875 -4.1875 L 0.28125 -4.59375 C 0.46875 -4.894531 0.710938 -5.128906 1.015625 -5.296875 C 1.316406 -5.472656 1.664062 -5.5625 2.0625 -5.5625 C 2.457031 -5.5625 2.78125 -5.492188 3.03125 -5.359375 C 3.289062 -5.222656 3.476562 -5.035156 3.59375 -4.796875 C 3.71875 -4.566406 3.78125 -4.300781 3.78125 -4 C 3.78125 -3.75 3.726562 -3.519531 3.625 -3.3125 C 3.53125 -3.101562 3.390625 -2.90625 3.203125 -2.71875 C 3.015625 -2.53125 2.78125 -2.332031 2.5 -2.125 L 1.890625 -1.671875 C 1.660156 -1.503906 1.484375 -1.363281 1.359375 -1.25 C 1.234375 -1.132812 1.140625 -1.019531 1.078125 -0.90625 C 1.023438 -0.789062 1 -0.664062 1 -0.53125 L 3.78125 -0.53125 L 3.78125 0 L 0.328125 0 Z M 0.328125 -0.25 "/></g></g></g><g clip-path="url(#88d451cdf2)"><path fill="#0cbe46" d="M 809.175781 580.773438 L 866.398438 580.773438 L 866.398438 626.839844 L 809.175781 626.839844 Z M 809.175781 580.773438 " fill-opacity="1" fill-rule="nonzero"/></g><g fill="#000000" fill-opacity="1"><g transform="translate(833.161654, 606.685312)"><g><path d="M 2.3125 0.078125 C 1.914062 0.078125 1.570312 0.015625 1.28125 -0.109375 C 1 -0.242188 0.785156 -0.425781 0.640625 -0.65625 C 0.492188 -0.894531 0.421875 -1.179688 0.421875 -1.515625 C 0.421875 -1.859375 0.503906 -2.144531 0.671875 -2.375 C 0.847656 -2.613281 1.109375 -2.796875 1.453125 -2.921875 L 1.453125 -3 C 1.210938 -3.144531 1.023438 -3.3125 0.890625 -3.5 C 0.765625 -3.6875 0.703125 -3.910156 0.703125 -4.171875 C 0.703125 -4.453125 0.765625 -4.695312 0.890625 -4.90625 C 1.023438 -5.113281 1.210938 -5.273438 1.453125 -5.390625 C 1.703125 -5.503906 1.988281 -5.5625 2.3125 -5.5625 C 2.632812 -5.5625 2.914062 -5.503906 3.15625 -5.390625 C 3.40625 -5.273438 3.59375 -5.113281 3.71875 -4.90625 C 3.851562 -4.695312 3.921875 -4.453125 3.921875 -4.171875 C 3.921875 -3.910156 3.859375 -3.6875 3.734375 -3.5 C 3.609375 -3.3125 3.425781 -3.144531 3.1875 -3 L 3.1875 -2.921875 C 3.519531 -2.796875 3.769531 -2.613281 3.9375 -2.375 C 4.113281 -2.144531 4.203125 -1.859375 4.203125 -1.515625 C 4.203125 -1.179688 4.128906 -0.894531 3.984375 -0.65625 C 3.835938 -0.425781 3.625 -0.242188 3.34375 -0.109375 C 3.0625 0.015625 2.71875 0.078125 2.3125 0.078125 Z M 2.3125 -3.171875 C 2.507812 -3.171875 2.679688 -3.207031 2.828125 -3.28125 C 2.972656 -3.351562 3.085938 -3.457031 3.171875 -3.59375 C 3.253906 -3.738281 3.296875 -3.90625 3.296875 -4.09375 C 3.296875 -4.28125 3.253906 -4.441406 3.171875 -4.578125 C 3.085938 -4.722656 2.972656 -4.832031 2.828125 -4.90625 C 2.679688 -4.976562 2.507812 -5.015625 2.3125 -5.015625 C 2.007812 -5.015625 1.769531 -4.929688 1.59375 -4.765625 C 1.414062 -4.609375 1.328125 -4.382812 1.328125 -4.09375 C 1.328125 -3.8125 1.414062 -3.585938 1.59375 -3.421875 C 1.769531 -3.253906 2.007812 -3.171875 2.3125 -3.171875 Z M 2.3125 -0.484375 C 2.707031 -0.484375 3.007812 -0.578125 3.21875 -0.765625 C 3.425781 -0.953125 3.53125 -1.210938 3.53125 -1.546875 C 3.53125 -1.878906 3.425781 -2.140625 3.21875 -2.328125 C 3.007812 -2.515625 2.707031 -2.609375 2.3125 -2.609375 C 1.914062 -2.609375 1.613281 -2.515625 1.40625 -2.328125 C 1.195312 -2.140625 1.09375 -1.878906 1.09375 -1.546875 C 1.09375 -1.210938 1.195312 -0.953125 1.40625 -0.765625 C 1.613281 -0.578125 1.914062 -0.484375 2.3125 -0.484375 Z M 2.3125 -0.484375 "/></g></g><g transform="translate(837.79903, 606.685312)"><g><path d="M 2.3125 0.078125 C 1.914062 0.078125 1.570312 0.015625 1.28125 -0.109375 C 1 -0.242188 0.785156 -0.425781 0.640625 -0.65625 C 0.492188 -0.894531 0.421875 -1.179688 0.421875 -1.515625 C 0.421875 -1.859375 0.503906 -2.144531 0.671875 -2.375 C 0.847656 -2.613281 1.109375 -2.796875 1.453125 -2.921875 L 1.453125 -3 C 1.210938 -3.144531 1.023438 -3.3125 0.890625 -3.5 C 0.765625 -3.6875 0.703125 -3.910156 0.703125 -4.171875 C 0.703125 -4.453125 0.765625 -4.695312 0.890625 -4.90625 C 1.023438 -5.113281 1.210938 -5.273438 1.453125 -5.390625 C 1.703125 -5.503906 1.988281 -5.5625 2.3125 -5.5625 C 2.632812 -5.5625 2.914062 -5.503906 3.15625 -5.390625 C 3.40625 -5.273438 3.59375 -5.113281 3.71875 -4.90625 C 3.851562 -4.695312 3.921875 -4.453125 3.921875 -4.171875 C 3.921875 -3.910156 3.859375 -3.6875 3.734375 -3.5 C 3.609375 -3.3125 3.425781 -3.144531 3.1875 -3 L 3.1875 -2.921875 C 3.519531 -2.796875 3.769531 -2.613281 3.9375 -2.375 C 4.113281 -2.144531 4.203125 -1.859375 4.203125 -1.515625 C 4.203125 -1.179688 4.128906 -0.894531 3.984375 -0.65625 C 3.835938 -0.425781 3.625 -0.242188 3.34375 -0.109375 C 3.0625 0.015625 2.71875 0.078125 2.3125 0.078125 Z M 2.3125 -3.171875 C 2.507812 -3.171875 2.679688 -3.207031 2.828125 -3.28125 C 2.972656 -3.351562 3.085938 -3.457031 3.171875 -3.59375 C 3.253906 -3.738281 3.296875 -3.90625 3.296875 -4.09375 C 3.296875 -4.28125 3.253906 -4.441406 3.171875 -4.578125 C 3.085938 -4.722656 2.972656 -4.832031 2.828125 -4.90625 C 2.679688 -4.976562 2.507812 -5.015625 2.3125 -5.015625 C 2.007812 -5.015625 1.769531 -4.929688 1.59375 -4.765625 C 1.414062 -4.609375 1.328125 -4.382812 1.328125 -4.09375 C 1.328125 -3.8125 1.414062 -3.585938 1.59375 -3.421875 C 1.769531 -3.253906 2.007812 -3.171875 2.3125 -3.171875 Z M 2.3125 -0.484375 C 2.707031 -0.484375 3.007812 -0.578125 3.21875 -0.765625 C 3.425781 -0.953125 3.53125 -1.210938 3.53125 -1.546875 C 3.53125 -1.878906 3.425781 -2.140625 3.21875 -2.328125 C 3.007812 -2.515625 2.707031 -2.609375 2.3125 -2.609375 C 1.914062 -2.609375 1.613281 -2.515625 1.40625 -2.328125 C 1.195312 -2.140625 1.09375 -1.878906 1.09375 -1.546875 C 1.09375 -1.210938 1.195312 -0.953125 1.40625 -0.765625 C 1.613281 -0.578125 1.914062 -0.484375 2.3125 -0.484375 Z M 2.3125 -0.484375 "/></g></g></g><g clip-path="url(#2ebab41325)"><path fill="#0cbe46" d="M 809.175781 636.4375 L 866.398438 636.4375 L 866.398438 682.503906 L 809.175781 682.503906 Z M 809.175781 636.4375 " fill-opacity="1" fill-rule="nonzero"/></g><g fill="#000000" fill-opacity="1"><g transform="translate(833.011698, 662.348821)"><g><path d="M 2.3125 0.078125 C 1.914062 0.078125 1.570312 0.015625 1.28125 -0.109375 C 1 -0.242188 0.785156 -0.425781 0.640625 -0.65625 C 0.492188 -0.894531 0.421875 -1.179688 0.421875 -1.515625 C 0.421875 -1.859375 0.503906 -2.144531 0.671875 -2.375 C 0.847656 -2.613281 1.109375 -2.796875 1.453125 -2.921875 L 1.453125 -3 C 1.210938 -3.144531 1.023438 -3.3125 0.890625 -3.5 C 0.765625 -3.6875 0.703125 -3.910156 0.703125 -4.171875 C 0.703125 -4.453125 0.765625 -4.695312 0.890625 -4.90625 C 1.023438 -5.113281 1.210938 -5.273438 1.453125 -5.390625 C 1.703125 -5.503906 1.988281 -5.5625 2.3125 -5.5625 C 2.632812 -5.5625 2.914062 -5.503906 3.15625 -5.390625 C 3.40625 -5.273438 3.59375 -5.113281 3.71875 -4.90625 C 3.851562 -4.695312 3.921875 -4.453125 3.921875 -4.171875 C 3.921875 -3.910156 3.859375 -3.6875 3.734375 -3.5 C 3.609375 -3.3125 3.425781 -3.144531 3.1875 -3 L 3.1875 -2.921875 C 3.519531 -2.796875 3.769531 -2.613281 3.9375 -2.375 C 4.113281 -2.144531 4.203125 -1.859375 4.203125 -1.515625 C 4.203125 -1.179688 4.128906 -0.894531 3.984375 -0.65625 C 3.835938 -0.425781 3.625 -0.242188 3.34375 -0.109375 C 3.0625 0.015625 2.71875 0.078125 2.3125 0.078125 Z M 2.3125 -3.171875 C 2.507812 -3.171875 2.679688 -3.207031 2.828125 -3.28125 C 2.972656 -3.351562 3.085938 -3.457031 3.171875 -3.59375 C 3.253906 -3.738281 3.296875 -3.90625 3.296875 -4.09375 C 3.296875 -4.28125 3.253906 -4.441406 3.171875 -4.578125 C 3.085938 -4.722656 2.972656 -4.832031 2.828125 -4.90625 C 2.679688 -4.976562 2.507812 -5.015625 2.3125 -5.015625 C 2.007812 -5.015625 1.769531 -4.929688 1.59375 -4.765625 C 1.414062 -4.609375 1.328125 -4.382812 1.328125 -4.09375 C 1.328125 -3.8125 1.414062 -3.585938 1.59375 -3.421875 C 1.769531 -3.253906 2.007812 -3.171875 2.3125 -3.171875 Z M 2.3125 -0.484375 C 2.707031 -0.484375 3.007812 -0.578125 3.21875 -0.765625 C 3.425781 -0.953125 3.53125 -1.210938 3.53125 -1.546875 C 3.53125 -1.878906 3.425781 -2.140625 3.21875 -2.328125 C 3.007812 -2.515625 2.707031 -2.609375 2.3125 -2.609375 C 1.914062 -2.609375 1.613281 -2.515625 1.40625 -2.328125 C 1.195312 -2.140625 1.09375 -1.878906 1.09375 -1.546875 C 1.09375 -1.210938 1.195312 -0.953125 1.40625 -0.765625 C 1.613281 -0.578125 1.914062 -0.484375 2.3125 -0.484375 Z M 2.3125 -0.484375 "/></g></g><g transform="translate(837.649074, 662.348821)"><g><path d="M 2.3125 0.078125 C 1.84375 0.078125 1.457031 -0.0234375 1.15625 -0.234375 C 0.863281 -0.453125 0.675781 -0.753906 0.59375 -1.140625 L 1.078125 -1.359375 L 1.15625 -1.34375 C 1.238281 -1.0625 1.367188 -0.847656 1.546875 -0.703125 C 1.734375 -0.566406 1.988281 -0.5 2.3125 -0.5 C 2.769531 -0.5 3.117188 -0.6875 3.359375 -1.0625 C 3.597656 -1.445312 3.71875 -2.035156 3.71875 -2.828125 L 3.640625 -2.859375 C 3.484375 -2.546875 3.285156 -2.3125 3.046875 -2.15625 C 2.816406 -2 2.523438 -1.921875 2.171875 -1.921875 C 1.828125 -1.921875 1.523438 -1.992188 1.265625 -2.140625 C 1.015625 -2.296875 0.820312 -2.507812 0.6875 -2.78125 C 0.550781 -3.050781 0.484375 -3.367188 0.484375 -3.734375 C 0.484375 -4.097656 0.554688 -4.414062 0.703125 -4.6875 C 0.859375 -4.96875 1.070312 -5.179688 1.34375 -5.328125 C 1.625 -5.484375 1.945312 -5.5625 2.3125 -5.5625 C 2.957031 -5.5625 3.460938 -5.34375 3.828125 -4.90625 C 4.191406 -4.46875 4.375 -3.765625 4.375 -2.796875 C 4.375 -2.148438 4.285156 -1.609375 4.109375 -1.171875 C 3.929688 -0.742188 3.691406 -0.425781 3.390625 -0.21875 C 3.085938 -0.0195312 2.726562 0.078125 2.3125 0.078125 Z M 2.3125 -2.484375 C 2.5625 -2.484375 2.773438 -2.53125 2.953125 -2.625 C 3.140625 -2.726562 3.28125 -2.875 3.375 -3.0625 C 3.476562 -3.25 3.53125 -3.472656 3.53125 -3.734375 C 3.53125 -3.992188 3.476562 -4.21875 3.375 -4.40625 C 3.28125 -4.59375 3.140625 -4.734375 2.953125 -4.828125 C 2.773438 -4.929688 2.5625 -4.984375 2.3125 -4.984375 C 1.945312 -4.984375 1.660156 -4.875 1.453125 -4.65625 C 1.253906 -4.445312 1.15625 -4.140625 1.15625 -3.734375 C 1.15625 -3.328125 1.253906 -3.015625 1.453125 -2.796875 C 1.660156 -2.585938 1.945312 -2.484375 2.3125 -2.484375 Z M 2.3125 -2.484375 "/></g></g></g><g clip-path="url(#57bc119569)"><path fill="#0cbe46" d="M 809.175781 692.101562 L 866.398438 692.101562 L 866.398438 738.167969 L 809.175781 738.167969 Z M 809.175781 692.101562 " fill-opacity="1" fill-rule="nonzero"/></g><g fill="#000000" fill-opacity="1"><g transform="translate(832.636809, 718.012354)"><g><path d="M 2.3125 0.078125 C 1.84375 0.078125 1.457031 -0.0234375 1.15625 -0.234375 C 0.863281 -0.453125 0.675781 -0.753906 0.59375 -1.140625 L 1.078125 -1.359375 L 1.15625 -1.34375 C 1.238281 -1.0625 1.367188 -0.847656 1.546875 -0.703125 C 1.734375 -0.566406 1.988281 -0.5 2.3125 -0.5 C 2.769531 -0.5 3.117188 -0.6875 3.359375 -1.0625 C 3.597656 -1.445312 3.71875 -2.035156 3.71875 -2.828125 L 3.640625 -2.859375 C 3.484375 -2.546875 3.285156 -2.3125 3.046875 -2.15625 C 2.816406 -2 2.523438 -1.921875 2.171875 -1.921875 C 1.828125 -1.921875 1.523438 -1.992188 1.265625 -2.140625 C 1.015625 -2.296875 0.820312 -2.507812 0.6875 -2.78125 C 0.550781 -3.050781 0.484375 -3.367188 0.484375 -3.734375 C 0.484375 -4.097656 0.554688 -4.414062 0.703125 -4.6875 C 0.859375 -4.96875 1.070312 -5.179688 1.34375 -5.328125 C 1.625 -5.484375 1.945312 -5.5625 2.3125 -5.5625 C 2.957031 -5.5625 3.460938 -5.34375 3.828125 -4.90625 C 4.191406 -4.46875 4.375 -3.765625 4.375 -2.796875 C 4.375 -2.148438 4.285156 -1.609375 4.109375 -1.171875 C 3.929688 -0.742188 3.691406 -0.425781 3.390625 -0.21875 C 3.085938 -0.0195312 2.726562 0.078125 2.3125 0.078125 Z M 2.3125 -2.484375 C 2.5625 -2.484375 2.773438 -2.53125 2.953125 -2.625 C 3.140625 -2.726562 3.28125 -2.875 3.375 -3.0625 C 3.476562 -3.25 3.53125 -3.472656 3.53125 -3.734375 C 3.53125 -3.992188 3.476562 -4.21875 3.375 -4.40625 C 3.28125 -4.59375 3.140625 -4.734375 2.953125 -4.828125 C 2.773438 -4.929688 2.5625 -4.984375 2.3125 -4.984375 C 1.945312 -4.984375 1.660156 -4.875 1.453125 -4.65625 C 1.253906 -4.445312 1.15625 -4.140625 1.15625 -3.734375 C 1.15625 -3.328125 1.253906 -3.015625 1.453125 -2.796875 C 1.660156 -2.585938 1.945312 -2.484375 2.3125 -2.484375 Z M 2.3125 -2.484375 "/></g></g><g transform="translate(837.570347, 718.012354)"><g><path d="M 2.6875 0.078125 C 2.289062 0.078125 1.929688 -0.015625 1.609375 -0.203125 C 1.285156 -0.398438 1.03125 -0.707031 0.84375 -1.125 C 0.65625 -1.550781 0.5625 -2.085938 0.5625 -2.734375 C 0.5625 -3.390625 0.65625 -3.925781 0.84375 -4.34375 C 1.03125 -4.757812 1.285156 -5.066406 1.609375 -5.265625 C 1.929688 -5.460938 2.289062 -5.5625 2.6875 -5.5625 C 3.09375 -5.5625 3.453125 -5.460938 3.765625 -5.265625 C 4.085938 -5.066406 4.34375 -4.757812 4.53125 -4.34375 C 4.726562 -3.925781 4.828125 -3.390625 4.828125 -2.734375 C 4.828125 -2.085938 4.726562 -1.550781 4.53125 -1.125 C 4.34375 -0.707031 4.085938 -0.398438 3.765625 -0.203125 C 3.453125 -0.015625 3.09375 0.078125 2.6875 0.078125 Z M 2.6875 -0.515625 C 3.164062 -0.515625 3.523438 -0.6875 3.765625 -1.03125 C 4.015625 -1.375 4.140625 -1.941406 4.140625 -2.734375 C 4.140625 -3.523438 4.015625 -4.09375 3.765625 -4.4375 C 3.523438 -4.78125 3.164062 -4.953125 2.6875 -4.953125 C 2.375 -4.953125 2.109375 -4.878906 1.890625 -4.734375 C 1.679688 -4.597656 1.519531 -4.363281 1.40625 -4.03125 C 1.289062 -3.707031 1.234375 -3.273438 1.234375 -2.734375 C 1.234375 -2.203125 1.289062 -1.769531 1.40625 -1.4375 C 1.519531 -1.113281 1.679688 -0.878906 1.890625 -0.734375 C 2.109375 -0.585938 2.375 -0.515625 2.6875 -0.515625 Z M 2.6875 -0.515625 "/></g></g></g><path stroke-linecap="butt" transform="matrix(0.479858, 0, 0, 0.479858, 513.391852, 112.297411)" fill="none" stroke-linejoin="miter" d="M -0.00255783 2.001429 L 46.406048 2.001429 " stroke="#0cbe46" stroke-width="4" stroke-opacity="1" stroke-miterlimit="4"/><path stroke-linecap="butt" transform="matrix(0.479858, 0, 0, 0.479858, 904.191705, 112.297411)" fill="none" stroke-linejoin="miter" d="M -0.000622025 2.001429 L 44.84502 2.001429 " stroke="#0cbe46" stroke-width="4" stroke-opacity="1" stroke-miterlimit="4"/><path stroke-linecap="butt" transform="matrix(0, 0.479858, -0.479858, 0, 609.703152, 750.50835)" fill="none" stroke-linejoin="miter" d="M -0.00112063 2.002602 L 23.996874 2.002602 " stroke="#0cbe46" stroke-width="4" stroke-opacity="1" stroke-miterlimit="4"/><path stroke-linecap="butt" transform="matrix(0, 0.479858, -0.479858, 0, 839.719188, 750.50835)" fill="none" stroke-linejoin="miter" d="M -0.00112063 2.003459 L 23.996874 2.003459 " stroke="#0cbe46" stroke-width="4" stroke-opacity="1" stroke-miterlimit="4"/></svg>