<svg xmlns="http://www.w3.org/2000/svg" xmlns:xlink="http://www.w3.org/1999/xlink" width="1920" zoomAndPan="magnify" viewBox="0 0 1440 809.999993" height="1080" preserveAspectRatio="xMidYMid meet" version="1.0"><defs><clipPath id="518de1a5a2"><path d="M 162 255 L 1278 255 L 1278 555 L 162 555 Z M 162 255 " clip-rule="nonzero"/></clipPath><clipPath id="02842ea1e2"><path d="M 198 429.480469 L 690 429.480469 L 690 525.480469 L 198 525.480469 Z M 198 429.480469 " clip-rule="nonzero"/></clipPath><clipPath id="2c953274b5"><path d="M 258 291 L 1182 291 L 1182 387 L 258 387 Z M 258 291 " clip-rule="nonzero"/></clipPath><clipPath id="9903a80f2c"><path d="M 210 441.480469 L 246 441.480469 L 246 513.480469 L 210 513.480469 Z M 210 441.480469 " clip-rule="nonzero"/></clipPath><clipPath id="952070109d"><path d="M 498 441.480469 L 534 441.480469 L 534 513.480469 L 498 513.480469 Z M 498 441.480469 " clip-rule="nonzero"/></clipPath><clipPath id="2764c631ed"><path d="M 450 441.480469 L 486 441.480469 L 486 513.480469 L 450 513.480469 Z M 450 441.480469 " clip-rule="nonzero"/></clipPath><clipPath id="be70b78d39"><path d="M 402 441.480469 L 438 441.480469 L 438 513.480469 L 402 513.480469 Z M 402 441.480469 " clip-rule="nonzero"/></clipPath><clipPath id="ec2f5f6be7"><path d="M 354 441.480469 L 390 441.480469 L 390 513.480469 L 354 513.480469 Z M 354 441.480469 " clip-rule="nonzero"/></clipPath><clipPath id="ab176729ad"><path d="M 306 441.480469 L 342 441.480469 L 342 513.480469 L 306 513.480469 Z M 306 441.480469 " clip-rule="nonzero"/></clipPath><clipPath id="1ae14a34b0"><path d="M 258 441.480469 L 294 441.480469 L 294 513.480469 L 258 513.480469 Z M 258 441.480469 " clip-rule="nonzero"/></clipPath><clipPath id="a3a4104c8c"><path d="M 546 441.480469 L 582 441.480469 L 582 513.480469 L 546 513.480469 Z M 546 441.480469 " clip-rule="nonzero"/></clipPath><clipPath id="1c5c69af0d"><path d="M 594 441.480469 L 630 441.480469 L 630 513.480469 L 594 513.480469 Z M 594 441.480469 " clip-rule="nonzero"/></clipPath><clipPath id="1c09997744"><path d="M 642 441.480469 L 678 441.480469 L 678 513.480469 L 642 513.480469 Z M 642 441.480469 " clip-rule="nonzero"/></clipPath><clipPath id="a139a6a262"><path d="M 750 429.480469 L 1242 429.480469 L 1242 525.480469 L 750 525.480469 Z M 750 429.480469 " clip-rule="nonzero"/></clipPath><clipPath id="03a47af361"><path d="M 762 441.480469 L 798 441.480469 L 798 513.480469 L 762 513.480469 Z M 762 441.480469 " clip-rule="nonzero"/></clipPath><clipPath id="6dc1720877"><path d="M 1050 441.480469 L 1086 441.480469 L 1086 513.480469 L 1050 513.480469 Z M 1050 441.480469 " clip-rule="nonzero"/></clipPath><clipPath id="101e1929b5"><path d="M 1002 441.480469 L 1038 441.480469 L 1038 513.480469 L 1002 513.480469 Z M 1002 441.480469 " clip-rule="nonzero"/></clipPath><clipPath id="3601c5d1fe"><path d="M 954 441.480469 L 990 441.480469 L 990 513.480469 L 954 513.480469 Z M 954 441.480469 " clip-rule="nonzero"/></clipPath><clipPath id="7b12f5e33b"><path d="M 906 441.480469 L 942 441.480469 L 942 513.480469 L 906 513.480469 Z M 906 441.480469 " clip-rule="nonzero"/></clipPath><clipPath id="26bc898ebd"><path d="M 858 441.480469 L 894 441.480469 L 894 513.480469 L 858 513.480469 Z M 858 441.480469 " clip-rule="nonzero"/></clipPath><clipPath id="fb4e1321db"><path d="M 810 441.480469 L 846 441.480469 L 846 513.480469 L 810 513.480469 Z M 810 441.480469 " clip-rule="nonzero"/></clipPath><clipPath id="5f2843809c"><path d="M 1098 441.480469 L 1134 441.480469 L 1134 513.480469 L 1098 513.480469 Z M 1098 441.480469 " clip-rule="nonzero"/></clipPath><clipPath id="4ca8d07fba"><path d="M 1146 441.480469 L 1182 441.480469 L 1182 513.480469 L 1146 513.480469 Z M 1146 441.480469 " clip-rule="nonzero"/></clipPath><clipPath id="457b82bf43"><path d="M 1194 441.480469 L 1230 441.480469 L 1230 513.480469 L 1194 513.480469 Z M 1194 441.480469 " clip-rule="nonzero"/></clipPath><clipPath id="0aa3d7c55a"><path d="M 294 303 L 358.617188 303 L 358.617188 375 L 294 375 Z M 294 303 " clip-rule="nonzero"/></clipPath><clipPath id="d030b55f99"><path d="M 810.921875 303 L 875.539062 303 L 875.539062 375 L 810.921875 375 Z M 810.921875 303 " clip-rule="nonzero"/></clipPath><clipPath id="a53fd14e6c"><path d="M 724.769531 303 L 789.382812 303 L 789.382812 375 L 724.769531 375 Z M 724.769531 303 " clip-rule="nonzero"/></clipPath><clipPath id="c4997de5a2"><path d="M 638.617188 303 L 703.230469 303 L 703.230469 375 L 638.617188 375 Z M 638.617188 303 " clip-rule="nonzero"/></clipPath><clipPath id="106df26971"><path d="M 552.460938 303 L 617.078125 303 L 617.078125 375 L 552.460938 375 Z M 552.460938 303 " clip-rule="nonzero"/></clipPath><clipPath id="6a0c721bc9"><path d="M 466.308594 303 L 530.921875 303 L 530.921875 375 L 466.308594 375 Z M 466.308594 303 " clip-rule="nonzero"/></clipPath><clipPath id="97eae4fca7"><path d="M 380.152344 303 L 444.769531 303 L 444.769531 375 L 380.152344 375 Z M 380.152344 303 " clip-rule="nonzero"/></clipPath><clipPath id="1d3892858e"><path d="M 897.078125 303 L 961.691406 303 L 961.691406 375 L 897.078125 375 Z M 897.078125 303 " clip-rule="nonzero"/></clipPath><clipPath id="caf9a22197"><path d="M 983.230469 303 L 1047.847656 303 L 1047.847656 375 L 983.230469 375 Z M 983.230469 303 " clip-rule="nonzero"/></clipPath><clipPath id="ccf2eb7885"><path d="M 1069.382812 303 L 1134 303 L 1134 375 L 1069.382812 375 Z M 1069.382812 303 " clip-rule="nonzero"/></clipPath></defs><path fill="#d9d9d9" d="M 162 255 L 1277.625 255 L 1277.625 555 L 162 555 Z M 162 255 " fill-opacity="1" fill-rule="nonzero"/><g clip-path="url(#518de1a5a2)"><path stroke-linecap="butt" transform="matrix(0.75, 0, 0, 0.75, 161.999998, 255.000007)" fill="none" stroke-linejoin="miter" d="M 0.00000257037 -0.00000956173 L 1488.000077 -0.00000956173 L 1488.000077 400.000011 L 0.00000257037 400.000011 Z M 0.00000257037 -0.00000956173 " stroke="#0cbe46" stroke-width="8" stroke-opacity="1" stroke-miterlimit="4"/></g><g clip-path="url(#02842ea1e2)"><path stroke-linecap="butt" transform="matrix(0.75, 0, 0, 0.75, 197.999996, 429.479998)" fill-opacity="1" fill="#ffffff" fill-rule="nonzero" stroke-linejoin="miter" d="M 0.00000498519 0.000627142 L 656.000038 0.000627142 L 656.000038 128.000634 L 0.00000498519 128.000634 Z M 0.00000498519 0.000627142 " stroke="#0cbe46" stroke-width="8" stroke-opacity="1" stroke-miterlimit="4"/></g><path fill="#ffffff" d="M 258 291 L 1182 291 L 1182 387 L 258 387 Z M 258 291 " fill-opacity="1" fill-rule="nonzero"/><g clip-path="url(#2c953274b5)"><path stroke-linecap="butt" transform="matrix(0.75, 0, 0, 0.75, 258.000022, 291.000005)" fill="none" stroke-linejoin="miter" d="M -0.0000293901 -0.00000714691 L 1232.000033 -0.00000714691 L 1232.000033 127.999999 L -0.0000293901 127.999999 Z M -0.0000293901 -0.00000714691 " stroke="#0cbe46" stroke-width="8" stroke-opacity="1" stroke-miterlimit="4"/></g><g clip-path="url(#9903a80f2c)"><path fill="#0cbe46" d="M 210 441.480469 L 246 441.480469 L 246 513.480469 L 210 513.480469 Z M 210 441.480469 " fill-opacity="1" fill-rule="nonzero"/></g><g clip-path="url(#952070109d)"><path fill="#0cbe46" d="M 498 441.480469 L 534 441.480469 L 534 513.480469 L 498 513.480469 Z M 498 441.480469 " fill-opacity="1" fill-rule="nonzero"/></g><g clip-path="url(#2764c631ed)"><path fill="#0cbe46" d="M 450 441.480469 L 486 441.480469 L 486 513.480469 L 450 513.480469 Z M 450 441.480469 " fill-opacity="1" fill-rule="nonzero"/></g><g clip-path="url(#be70b78d39)"><path fill="#0cbe46" d="M 402 441.480469 L 438 441.480469 L 438 513.480469 L 402 513.480469 Z M 402 441.480469 " fill-opacity="1" fill-rule="nonzero"/></g><g clip-path="url(#ec2f5f6be7)"><path fill="#0cbe46" d="M 354 441.480469 L 390 441.480469 L 390 513.480469 L 354 513.480469 Z M 354 441.480469 " fill-opacity="1" fill-rule="nonzero"/></g><g clip-path="url(#ab176729ad)"><path fill="#0cbe46" d="M 306 441.480469 L 342 441.480469 L 342 513.480469 L 306 513.480469 Z M 306 441.480469 " fill-opacity="1" fill-rule="nonzero"/></g><g clip-path="url(#1ae14a34b0)"><path fill="#0cbe46" d="M 258 441.480469 L 294 441.480469 L 294 513.480469 L 258 513.480469 Z M 258 441.480469 " fill-opacity="1" fill-rule="nonzero"/></g><g clip-path="url(#a3a4104c8c)"><path fill="#0cbe46" d="M 546 441.480469 L 582 441.480469 L 582 513.480469 L 546 513.480469 Z M 546 441.480469 " fill-opacity="1" fill-rule="nonzero"/></g><g clip-path="url(#1c5c69af0d)"><path fill="#0cbe46" d="M 594 441.480469 L 630 441.480469 L 630 513.480469 L 594 513.480469 Z M 594 441.480469 " fill-opacity="1" fill-rule="nonzero"/></g><g clip-path="url(#1c09997744)"><path fill="#0cbe46" d="M 642 441.480469 L 678 441.480469 L 678 513.480469 L 642 513.480469 Z M 642 441.480469 " fill-opacity="1" fill-rule="nonzero"/></g><g clip-path="url(#a139a6a262)"><path stroke-linecap="butt" transform="matrix(0.75, 0, 0, 0.75, 749.999968, 429.479998)" fill-opacity="1" fill="#ffffff" fill-rule="nonzero" stroke-linejoin="miter" d="M 0.0000420123 0.000627142 L 656.000075 0.000627142 L 656.000075 128.000634 L 0.0000420123 128.000634 Z M 0.0000420123 0.000627142 " stroke="#0cbe46" stroke-width="8" stroke-opacity="1" stroke-miterlimit="4"/></g><g clip-path="url(#03a47af361)"><path fill="#0cbe46" d="M 762 441.480469 L 798 441.480469 L 798 513.480469 L 762 513.480469 Z M 762 441.480469 " fill-opacity="1" fill-rule="nonzero"/></g><g clip-path="url(#6dc1720877)"><path fill="#0cbe46" d="M 1050 441.480469 L 1086 441.480469 L 1086 513.480469 L 1050 513.480469 Z M 1050 441.480469 " fill-opacity="1" fill-rule="nonzero"/></g><g clip-path="url(#101e1929b5)"><path fill="#0cbe46" d="M 1002 441.480469 L 1038 441.480469 L 1038 513.480469 L 1002 513.480469 Z M 1002 441.480469 " fill-opacity="1" fill-rule="nonzero"/></g><g clip-path="url(#3601c5d1fe)"><path fill="#0cbe46" d="M 954 441.480469 L 990 441.480469 L 990 513.480469 L 954 513.480469 Z M 954 441.480469 " fill-opacity="1" fill-rule="nonzero"/></g><g clip-path="url(#7b12f5e33b)"><path fill="#0cbe46" d="M 906 441.480469 L 942 441.480469 L 942 513.480469 L 906 513.480469 Z M 906 441.480469 " fill-opacity="1" fill-rule="nonzero"/></g><g clip-path="url(#26bc898ebd)"><path fill="#0cbe46" d="M 858 441.480469 L 894 441.480469 L 894 513.480469 L 858 513.480469 Z M 858 441.480469 " fill-opacity="1" fill-rule="nonzero"/></g><g clip-path="url(#fb4e1321db)"><path fill="#0cbe46" d="M 810 441.480469 L 846 441.480469 L 846 513.480469 L 810 513.480469 Z M 810 441.480469 " fill-opacity="1" fill-rule="nonzero"/></g><g clip-path="url(#5f2843809c)"><path fill="#0cbe46" d="M 1098 441.480469 L 1134 441.480469 L 1134 513.480469 L 1098 513.480469 Z M 1098 441.480469 " fill-opacity="1" fill-rule="nonzero"/></g><g clip-path="url(#4ca8d07fba)"><path fill="#0cbe46" d="M 1146 441.480469 L 1182 441.480469 L 1182 513.480469 L 1146 513.480469 Z M 1146 441.480469 " fill-opacity="1" fill-rule="nonzero"/></g><g clip-path="url(#457b82bf43)"><path fill="#0cbe46" d="M 1194 441.480469 L 1230 441.480469 L 1230 513.480469 L 1194 513.480469 Z M 1194 441.480469 " fill-opacity="1" fill-rule="nonzero"/></g><g clip-path="url(#0aa3d7c55a)"><path fill="#0cbe46" d="M 294 303 L 358.617188 303 L 358.617188 374.933594 L 294 374.933594 Z M 294 303 " fill-opacity="1" fill-rule="nonzero"/></g><g clip-path="url(#d030b55f99)"><path fill="#0cbe46" d="M 810.921875 303 L 875.539062 303 L 875.539062 374.933594 L 810.921875 374.933594 Z M 810.921875 303 " fill-opacity="1" fill-rule="nonzero"/></g><g clip-path="url(#a53fd14e6c)"><path fill="#0cbe46" d="M 724.769531 303 L 789.382812 303 L 789.382812 374.933594 L 724.769531 374.933594 Z M 724.769531 303 " fill-opacity="1" fill-rule="nonzero"/></g><g clip-path="url(#c4997de5a2)"><path fill="#0cbe46" d="M 638.617188 303 L 703.230469 303 L 703.230469 374.933594 L 638.617188 374.933594 Z M 638.617188 303 " fill-opacity="1" fill-rule="nonzero"/></g><g clip-path="url(#106df26971)"><path fill="#0cbe46" d="M 552.460938 303 L 617.078125 303 L 617.078125 374.933594 L 552.460938 374.933594 Z M 552.460938 303 " fill-opacity="1" fill-rule="nonzero"/></g><g clip-path="url(#6a0c721bc9)"><path fill="#0cbe46" d="M 466.308594 303 L 530.921875 303 L 530.921875 374.933594 L 466.308594 374.933594 Z M 466.308594 303 " fill-opacity="1" fill-rule="nonzero"/></g><g clip-path="url(#97eae4fca7)"><path fill="#0cbe46" d="M 380.152344 303 L 444.769531 303 L 444.769531 374.933594 L 380.152344 374.933594 Z M 380.152344 303 " fill-opacity="1" fill-rule="nonzero"/></g><g clip-path="url(#1d3892858e)"><path fill="#0cbe46" d="M 897.078125 303 L 961.691406 303 L 961.691406 374.933594 L 897.078125 374.933594 Z M 897.078125 303 " fill-opacity="1" fill-rule="nonzero"/></g><g clip-path="url(#caf9a22197)"><path fill="#0cbe46" d="M 983.230469 303 L 1047.847656 303 L 1047.847656 374.933594 L 983.230469 374.933594 Z M 983.230469 303 " fill-opacity="1" fill-rule="nonzero"/></g><g clip-path="url(#ccf2eb7885)"><path fill="#0cbe46" d="M 1069.382812 303 L 1134 303 L 1134 374.933594 L 1069.382812 374.933594 Z M 1069.382812 303 " fill-opacity="1" fill-rule="nonzero"/></g><path stroke-linecap="butt" transform="matrix(0.75, 0, 0, 0.75, 161.999998, 337.500003)" fill="none" stroke-linejoin="miter" d="M 0.00000257037 1.999996 L 128.000009 1.999996 " stroke="#0cbe46" stroke-width="4" stroke-opacity="1" stroke-miterlimit="4"/><path stroke-linecap="butt" transform="matrix(0.75, 0.000000000000000083, -0.000000000000000083, 0.75, 1181.999947, 339.000003)" fill="none" stroke-linejoin="miter" d="M 0.0000709901 1.999996 L 128.000077 1.999996 " stroke="#0cbe46" stroke-width="4" stroke-opacity="1" stroke-miterlimit="4"/><path stroke-linecap="butt" transform="matrix(0.75, 0, 0, 0.75, 161.984384, 476.729996)" fill="none" stroke-linejoin="miter" d="M -0.000011564 2.00063 L 48.041658 2.00063 " stroke="#0cbe46" stroke-width="4" stroke-opacity="1" stroke-miterlimit="4"/><path stroke-linecap="butt" transform="matrix(0.75, 0, 0, 0.75, 1241.968768, 474.479996)" fill="none" stroke-linejoin="miter" d="M -0.0000236539 2.00063 L 48.041645 2.00063 " stroke="#0cbe46" stroke-width="4" stroke-opacity="1" stroke-miterlimit="4"/></svg>